<svg width="1116" height="982" viewBox="0 0 1116 982" fill="none" xmlns="http://www.w3.org/2000/svg">
<path d="M515.992 1007.57L515.391 1007.25C514.339 1006.79 517.063 1008.61 516.706 1008.29C515.654 1007.35 517.571 1009.49 517.627 1009.57C517.466 1009.35 517.334 1009.11 517.232 1008.85C517.232 1009.04 518.153 1011.58 517.834 1010.22C517.834 1009.9 517.664 1009.58 517.589 1009.27C517.364 1008.38 517.232 1007.39 517.082 1006.58C516.856 1005.11 517.082 1006.32 517.082 1007.22C517.082 1006.58 516.932 1005.94 516.838 1005.34C516.65 1003.78 516.462 1002.22 516.255 1000.66C515.879 997.634 515.485 994.609 515.09 991.584C513.625 980.498 512.178 969.374 509.697 958.457C504.756 936.717 494.966 914.188 474.71 902.689C462.178 895.548 444.064 891.283 431.306 900.19C416.668 910.411 413.624 929.803 418.453 946.093C422.888 961.125 432.94 973.978 443.651 985.026C452.226 993.84 461.365 1002.09 471.009 1009.72C479.276 1016.24 488.69 1023.15 499.194 1025.37C505.018 1026.92 511.218 1026.17 516.499 1023.26C523.715 1018.79 526.402 1010.77 527.304 1002.75C527.642 999.739 527.717 996.695 528.018 993.689C528.112 992.674 528.262 991.659 528.356 990.645C528.45 989.63 528.149 992.129 528.187 991.941C528.224 991.753 528.187 991.302 528.318 990.983C528.45 990.663 528.487 989.855 528.581 989.273C529.369 984.467 530.41 979.707 531.701 975.011C533.058 970.092 534.663 965.244 536.511 960.487C536.981 959.246 537.563 958.025 537.995 956.729C537.995 956.729 537.168 958.608 537.619 957.649L537.958 956.879C538.258 956.165 538.578 955.47 538.897 954.774C540.006 952.351 541.19 949.945 542.448 947.597C544.881 942.992 547.618 938.553 550.641 934.312C551.035 933.786 551.411 933.241 551.806 932.734L552.426 932.001C553.14 931.043 551.205 933.504 551.975 932.583C552.745 931.663 553.61 930.573 554.436 929.596C556.109 927.717 557.837 925.838 559.679 923.959C560.506 923.17 561.37 922.38 562.234 921.61L563.662 920.408C563.982 920.145 565.842 918.641 564.564 919.656C563.287 920.671 564.79 919.506 565.09 919.299L566.594 918.247C567.589 917.57 568.623 916.913 569.656 916.368C570.69 915.823 571.761 915.184 572.832 914.639L574.222 913.963L575.162 913.549C576.308 913.004 574.598 913.812 574.335 913.887C576.646 913.286 578.826 912.234 581.175 911.67C582.283 911.407 583.373 911.2 584.482 911.013C586.53 910.637 582.603 911.163 584.331 911.013L586.436 910.825C588.887 910.637 591.35 910.637 593.801 910.825C596.188 911.031 592.524 910.505 594.252 910.825C595.042 911.013 595.812 911.163 596.582 911.388C597.353 911.614 597.86 911.839 598.461 912.027C599.702 912.403 596.958 911.257 598.104 911.877L599.307 912.478C600.021 912.854 600.697 913.249 601.355 913.681L602.182 914.263C603.065 914.846 601.599 913.869 601.599 913.812C602.139 914.376 602.71 914.909 603.309 915.409L603.986 916.142C603.366 915.071 605.395 917.664 603.986 916.142C604.343 916.819 604.794 917.476 605.169 918.153C605.94 919.543 604.869 916.856 605.339 918.623C605.583 919.506 605.79 920.389 605.996 921.272C606.203 922.155 605.996 920.746 605.996 920.708C606.112 921.329 606.112 921.966 605.996 922.587C605.996 923.376 605.902 924.166 605.883 924.955C605.883 926.364 606.222 923.433 605.883 924.823C605.883 925.199 605.752 925.612 605.658 925.988C605.279 927.84 604.764 929.661 604.117 931.437C603.929 931.945 603.741 932.452 603.535 932.959C603.535 933.091 602.952 934.331 603.403 933.335C603.854 932.339 603.272 933.579 603.215 933.692L602.539 935.139C602.219 935.797 601.881 936.435 601.543 937.018C600.773 938.484 599.946 939.912 599.081 941.321C597.052 944.684 594.854 947.935 592.58 951.148C591.265 953.027 589.912 954.906 588.521 956.653L588.071 957.255C587.15 958.457 588.54 956.653 588.597 956.56L587.638 957.8C586.83 958.833 586.004 959.867 585.158 960.881C578.615 968.977 571.54 976.629 563.982 983.786C560.224 987.344 556.315 990.732 552.257 993.952C550.491 995.342 553.516 993.012 552.257 993.952L550.735 995.098C549.72 995.831 548.706 996.563 547.672 997.277C545.68 998.649 543.632 999.983 541.547 1001.2C539.461 1002.43 537.676 1003.4 535.684 1004.38L534.181 1005.09L533.523 1005.39C532.189 1006.01 534.444 1005 534.481 1005C533.486 1005.32 532.509 1005.79 531.513 1006.15C529.595 1006.81 527.637 1007.36 525.65 1007.78L524.222 1008.04C522.512 1008.36 525.688 1007.91 525.087 1007.93C524.091 1007.93 523.095 1008.12 522.099 1008.14C521.103 1008.16 520.408 1008.14 519.562 1008.14C519.111 1008.14 518.66 1008.03 518.209 1008.01C518.867 1008.01 520.727 1008.42 519.205 1008.01C518.33 1007.83 517.464 1007.61 516.612 1007.35L515.522 1006.99C513.531 1006.32 517.101 1007.71 516.011 1007.2C511.539 1005.17 505.676 1005.77 503.159 1010.56C500.979 1014.7 501.749 1021.25 506.522 1023.43C525.049 1031.89 544.797 1022.61 559.998 1011.45C577.365 998.289 592.71 982.658 605.545 965.053C610.281 959.096 614.511 952.754 618.191 946.093C621.964 939.299 624.215 931.766 624.786 924.015C624.98 919.758 624.239 915.51 622.616 911.569C620.993 907.628 618.527 904.09 615.391 901.204C604.85 891.809 590.213 890.494 576.89 893.481C566.28 896.124 556.512 901.412 548.499 908.852C532.114 923.376 521.554 944.365 515.109 964.977C512.078 974.677 510.1 984.674 509.209 994.797C509.096 996.037 509.021 997.277 508.946 998.555C508.871 999.833 508.814 1000.53 508.739 1001.51C508.739 1001.92 508.739 1002.33 508.608 1002.76C508.758 1001.39 508.608 1002.33 508.495 1003.14C508.382 1003.95 507.988 1004.76 507.856 1005.55C507.631 1006.84 508.42 1004.68 507.856 1005.55C507.725 1005.75 507.631 1006 507.499 1006.22C507.368 1006.45 506.109 1008.23 507.198 1006.9C508.288 1005.56 507.048 1006.99 506.766 1007.29C506.484 1007.59 506.24 1007.67 506.127 1007.86C506.015 1008.04 507.856 1006.79 507.198 1006.99C506.754 1007.16 506.337 1007.4 505.958 1007.69C506.503 1007.18 508.213 1006.95 506.71 1007.31L505.921 1007.5C504.774 1007.89 507.029 1007.35 507.198 1007.37C506.278 1007.25 505.131 1007.37 504.192 1007.37C502.67 1007.37 506.39 1007.86 504.887 1007.37C504.286 1007.22 503.647 1007.12 503.008 1006.97C501.956 1006.69 500.941 1006.35 499.927 1006L499.213 1005.71C497.803 1005.19 499.927 1006 500.021 1006.07C499.438 1005.71 498.724 1005.47 498.142 1005.17C495.95 1004.09 493.817 1002.9 491.753 1001.6C489.667 1000.28 487.638 998.893 485.646 997.428L484.256 996.394C482.959 995.417 485.872 997.672 484.65 996.695C483.805 996.019 482.94 995.342 482.114 994.647C471.945 986.453 462.369 977.55 453.459 968.003C452.313 966.762 451.204 965.485 450.096 964.245C449.513 963.549 448.931 962.854 448.367 962.14C448.123 961.839 447.897 961.52 447.634 961.219C446.713 960.111 448.931 962.986 447.446 960.975C445.367 958.197 443.435 955.312 441.659 952.332C440.757 950.772 439.893 949.194 439.103 947.597C438.746 946.883 438.427 946.15 438.07 945.436C437.431 944.158 438.54 946.77 438.07 945.436C437.901 944.929 437.675 944.421 437.488 943.895C436.878 942.216 436.363 940.503 435.947 938.765C435.721 937.826 435.515 936.886 435.364 935.947C435.364 935.533 435.214 935.139 435.158 934.726C435.458 936.717 435.158 934.726 435.158 934.369C435.035 932.604 435.035 930.834 435.158 929.07C435.158 928.544 435.251 927.999 435.289 927.454C435.289 927.604 434.988 929.013 435.289 927.942C435.59 926.871 435.702 925.8 436.003 924.748C436.191 924.053 436.416 923.358 436.642 922.662C436.755 922.362 437.356 920.971 436.83 922.136C436.304 923.301 436.83 922.136 436.943 921.967C437.262 921.328 437.581 920.708 437.938 920.088C438.295 919.468 438.465 919.299 438.709 918.886C439.273 917.946 438.822 918.491 438.483 919.092C438.955 918.4 439.511 917.769 440.137 917.213L440.888 916.499C441.922 915.466 440.625 916.499 440.625 916.631C440.625 916.762 442.166 915.635 442.392 915.503C442.617 915.372 443.312 915.034 443.763 914.789C443.049 915.165 442.655 915.184 443.632 914.902C444.477 914.631 445.336 914.405 446.206 914.226C446.569 914.101 446.949 914.031 447.333 914.019C447.333 914.019 445.605 914.113 446.732 914.132C448.66 913.95 450.602 913.994 452.52 914.263C450.904 913.831 452.294 914.263 453.102 914.414C453.91 914.564 454.868 914.808 455.751 915.034C457.255 915.447 458.739 915.917 460.205 916.443C460.543 916.574 461.539 917.176 461.858 917.101C461.727 917.101 459.754 916.142 461.238 916.837L462.027 917.213C463.249 917.777 464.432 918.397 465.597 919.092C466.762 919.787 467.833 920.445 468.904 921.178C469.355 921.497 469.788 921.836 470.257 922.136C471.253 922.813 468.754 920.915 469.656 921.685L470.52 922.381C472.473 924.001 474.295 925.773 475.969 927.679C476.759 928.562 477.435 929.558 478.243 930.404C478.243 930.404 477.022 928.75 477.604 929.596L478.243 930.479C478.619 930.986 478.976 931.512 479.333 932.039C480.771 934.183 482.083 936.411 483.26 938.709C483.861 939.874 484.444 941.039 484.989 942.223C485.214 942.749 485.44 943.256 485.684 943.782C485.928 944.308 485.947 945.154 485.402 943.087C485.52 943.445 485.658 943.797 485.815 944.139C486.811 946.638 487.694 949.156 488.521 951.655C491.6 961.937 493.849 972.45 495.248 983.091L495.755 986.717C495.849 987.356 495.943 987.995 496.018 988.596C495.812 986.999 496.319 990.739 496.018 988.596C496.338 991.077 496.676 993.557 496.995 996.112C497.785 1002.09 498.085 1008.33 499.457 1014.21C499.859 1016.24 500.702 1018.16 501.926 1019.84C503.149 1021.51 504.724 1022.9 506.541 1023.9C510.956 1026.03 516.894 1025.26 519.393 1020.52C521.573 1016.22 520.708 1009.87 515.992 1007.57Z" fill="#FFAABE"/>
<path d="M1028.28 849.908H809.173V1219.94H1028.28V849.908Z" fill="#BC4632"/>
<path d="M1001.13 1001.37C999.885 1001.37 998.69 1000.88 997.809 999.998C996.929 999.117 996.434 997.922 996.434 996.676V856.841C996.434 855.595 996.929 854.4 997.809 853.519C998.69 852.638 999.885 852.144 1001.13 852.144C1002.38 852.144 1003.57 852.638 1004.45 853.519C1005.33 854.4 1005.83 855.595 1005.83 856.841V996.751C1005.81 997.984 1005.31 999.16 1004.43 1000.02C1003.55 1000.89 1002.36 1001.37 1001.13 1001.37Z" fill="#3A140F"/>
<path d="M855.922 1220.24C854.676 1220.24 853.481 1219.74 852.6 1218.86C851.72 1217.98 851.225 1216.79 851.225 1215.54V959.284C851.225 958.038 851.72 956.843 852.6 955.963C853.481 955.082 854.676 954.587 855.922 954.587C857.168 954.587 858.363 955.082 859.244 955.963C860.125 956.843 860.62 958.038 860.62 959.284V1215.54C860.62 1216.79 860.125 1217.98 859.244 1218.86C858.363 1219.74 857.168 1220.24 855.922 1220.24Z" fill="#3A140F"/>
<path d="M965.9 1041.26C964.654 1041.26 963.459 1040.77 962.578 1039.89C961.697 1039.01 961.202 1037.81 961.202 1036.57V856.841C961.202 855.595 961.697 854.4 962.578 853.519C963.459 852.638 964.654 852.144 965.9 852.144C967.146 852.144 968.341 852.638 969.222 853.519C970.102 854.4 970.597 855.595 970.597 856.841V1036.64C970.578 1037.88 970.074 1039.05 969.195 1039.92C968.316 1040.78 967.133 1041.27 965.9 1041.26Z" fill="#3A140F"/>
<path d="M1119.88 963.944C1106.07 1059.12 1178.55 1136.81 1250.49 1137.47C1323.19 1138.15 1397.64 1060.22 1383.9 963.944H1119.88Z" fill="#F19400"/>
<path d="M1204.83 456.388H667.59L526.665 754.135C510.581 788.126 513.831 828.524 536.285 858.682C590.945 932.076 699.42 869.487 699.42 869.487C713.588 880.629 753.423 908.795 809.755 908.419C863.664 908.062 901.92 881.775 916.351 870.67C931.383 882.264 979.917 916.18 1045.83 909.434C1092.21 904.699 1125.52 882.057 1141.36 869.487C1187.94 886.398 1224.38 889.723 1252.82 885.233C1319.34 874.748 1357.45 803.496 1330.33 741.865L1204.83 456.388Z" fill="#129277"/>
<path d="M1059.46 158.229H793.333L644.008 439.045C640.493 445.609 638.498 452.879 638.173 460.318C637.848 467.756 639.2 475.173 642.129 482.018C697.034 608.663 827.098 530.872 827.098 530.872C941.116 641.733 1044.76 530.872 1044.76 530.872C1135.5 582.037 1189.67 524.258 1213.48 486.377C1218.26 478.765 1220.9 470.003 1221.12 461.015C1221.35 452.027 1219.14 443.145 1214.74 435.306L1059.46 158.229Z" fill="#129277"/>
<path d="M922.213 -94.0457L791.378 138.95C789.152 142.941 788.031 147.454 788.134 152.023C788.236 156.592 789.558 161.05 791.961 164.937C836.456 237.166 928.076 185.982 928.076 185.982C931.383 188.049 984.239 219.804 1034.73 193.648C1047.51 186.949 1058.63 177.472 1067.27 165.914C1070.33 161.895 1072.14 157.059 1072.45 152.017C1072.77 146.974 1071.59 141.95 1069.06 137.579L934.088 -94.1397C933.482 -95.1815 932.611 -96.0445 931.563 -96.6413C930.516 -97.238 929.329 -97.5473 928.124 -97.5377C926.918 -97.5282 925.736 -97.2002 924.698 -96.587C923.661 -95.9737 922.803 -95.097 922.213 -94.0457Z" fill="#129277"/>
<path d="M924.693 65.9511C914.265 65.9509 903.861 64.925 893.634 62.8883C863.57 56.8755 845.306 44.3426 844.535 43.8165C844.028 43.4649 843.595 43.0168 843.261 42.4979C842.928 41.979 842.699 41.3994 842.589 40.7922C842.479 40.185 842.49 39.5621 842.621 38.9591C842.752 38.356 843 37.7847 843.352 37.2776C843.703 36.7705 844.151 36.3376 844.67 36.0037C845.189 35.6698 845.769 35.4414 846.376 35.3314C846.983 35.2215 847.606 35.2323 848.209 35.3631C848.812 35.4939 849.383 35.7422 849.89 36.0938C850.06 36.2065 867.647 48.1946 895.888 53.7564C933.656 61.2724 971.537 54.2638 1008.52 33.0874C1009.05 32.7639 1009.65 32.5509 1010.27 32.461C1010.89 32.371 1011.52 32.4058 1012.12 32.5634C1012.73 32.721 1013.3 32.9982 1013.8 33.3787C1014.29 33.7592 1014.71 34.2354 1015.02 34.7791C1015.33 35.3228 1015.53 35.9232 1015.61 36.5449C1015.68 37.1666 1015.63 37.7971 1015.46 38.3992C1015.29 39.0014 1015 39.5631 1014.6 40.0514C1014.21 40.5396 1013.73 40.9445 1013.18 41.2423C980.068 60.145 949.534 65.9511 924.693 65.9511Z" fill="#3A140F"/>
<path d="M852.239 377.189C814.164 377.231 776.181 373.454 738.86 365.915C707.725 359.526 690.006 352.762 689.311 352.536C688.735 352.315 688.208 351.983 687.76 351.559C687.312 351.134 686.953 350.626 686.701 350.062C686.45 349.498 686.312 348.891 686.296 348.274C686.279 347.657 686.385 347.043 686.605 346.467C686.826 345.891 687.158 345.364 687.583 344.916C688.007 344.468 688.516 344.108 689.08 343.857C689.643 343.606 690.251 343.468 690.868 343.452C691.484 343.435 692.098 343.54 692.675 343.761C693.37 344.024 764.189 370.593 869.432 367.455C931.678 365.524 993.246 353.943 1051.94 333.126C1126.12 306.933 1197.26 265.895 1263.38 211.141C1264.35 210.346 1265.58 209.966 1266.83 210.084C1268.07 210.202 1269.21 210.809 1270.01 211.771C1270.8 212.733 1271.18 213.971 1271.06 215.213C1270.95 216.455 1270.34 217.599 1269.38 218.394C1202.3 273.919 1130.11 315.52 1054.78 342.07C995.116 363.213 932.53 374.947 869.263 376.85C863.476 377.088 857.801 377.201 852.239 377.189Z" fill="#3A140F"/>
<path d="M902.5 128C921.001 128 936 113.002 936 94.5C936 75.9985 921.001 61 902.5 61C883.998 61 869 75.9985 869 94.5C869 113.002 883.998 128 902.5 128Z" fill="#FFAABE"/>
<path d="M817.5 415.5C817.5 439.254 798.467 458.5 775 458.5C751.533 458.5 732.5 439.254 732.5 415.5C732.5 391.746 751.533 372.5 775 372.5C798.467 372.5 817.5 391.746 817.5 415.5Z" fill="#FD510C" stroke="black"/>
<path d="M931.5 446C953.315 446 971 428.315 971 406.5C971 384.685 953.315 367 931.5 367C909.685 367 892 384.685 892 406.5C892 428.315 909.685 446 931.5 446Z" fill="#9747FF"/>
<path d="M1074.5 401C1094.66 401 1111 384.658 1111 364.5C1111 344.342 1094.66 328 1074.5 328C1054.34 328 1038 344.342 1038 364.5C1038 384.658 1054.34 401 1074.5 401Z" fill="#FF968E"/>
<path d="M991.079 209.187C985.282 209.179 979.496 208.714 973.773 207.797C957.583 205.117 942.011 199.528 927.813 191.299C891.078 209.018 858.778 213.302 831.814 204.039C813.299 197.859 797.78 184.95 788.334 167.868C787.852 166.755 787.819 165.499 788.243 164.362C788.666 163.226 789.512 162.296 790.605 161.77C791.697 161.243 792.951 161.159 794.104 161.536C795.257 161.912 796.219 162.72 796.79 163.791C805.27 178.594 818.88 189.778 835.046 195.226C860.112 203.757 890.702 199.21 925.99 181.735L928.414 180.533L930.669 182.036C944.442 190.352 959.679 195.958 975.558 198.552C1009.38 203.851 1038.37 192.69 1061.63 165.444C1062.04 164.974 1062.53 164.588 1063.08 164.307C1063.63 164.026 1064.23 163.856 1064.84 163.807C1065.46 163.759 1066.08 163.831 1066.67 164.022C1067.25 164.213 1067.8 164.517 1068.27 164.918C1068.74 165.319 1069.12 165.809 1069.41 166.359C1069.69 166.909 1069.86 167.51 1069.9 168.126C1069.95 168.741 1069.88 169.361 1069.69 169.949C1069.5 170.536 1069.19 171.081 1068.79 171.551C1043.48 201.183 1014.66 209.169 991.079 209.187Z" fill="#3A140F"/>
<path d="M934.615 585.081C932.172 585.081 929.748 585.081 927.305 584.875C873.341 581.868 835.836 546.768 826.009 536.565C779.597 559.602 738.748 565.126 704.569 552.969C679.47 543.985 658.792 525.683 646.827 501.86C646.373 500.727 646.378 499.462 646.841 498.332C647.304 497.202 648.189 496.297 649.308 495.809C650.427 495.32 651.692 495.286 652.835 495.714C653.978 496.143 654.91 496.999 655.433 498.102C666.492 519.521 685.217 535.986 707.876 544.213C740.27 555.656 779.654 549.737 824.919 526.626L828.207 524.953L830.612 527.734C830.988 528.166 870.071 572.36 927.926 575.536C966.37 577.64 1004.63 561.443 1041.55 527.358L1044.33 524.784L1047.43 526.964C1047.82 527.227 1087.15 554.266 1132.53 544.57C1163.42 537.975 1190.18 516.122 1212.07 479.594C1212.71 478.525 1213.75 477.754 1214.96 477.451C1216.16 477.148 1217.44 477.338 1218.51 477.978C1219.58 478.619 1220.35 479.657 1220.66 480.866C1220.96 482.075 1220.77 483.354 1220.13 484.423C1196.81 523.319 1167.97 546.656 1134.39 553.777C1092.19 562.759 1055.96 543.33 1045.21 536.716C1009.46 568.828 972.289 585.081 934.615 585.081Z" fill="#3A140F"/>
<path d="M699.514 874.184H699.101C697.86 874.074 696.714 873.476 695.914 872.521C695.114 871.567 694.726 870.333 694.836 869.092L700.585 802.35C700.692 801.104 701.29 799.952 702.247 799.147C703.204 798.342 704.441 797.95 705.687 798.057C706.933 798.164 708.085 798.761 708.89 799.718C709.695 800.675 710.087 801.912 709.98 803.158L704.231 869.975C704.109 871.138 703.558 872.213 702.686 872.992C701.814 873.77 700.683 874.195 699.514 874.184Z" fill="#3A140F"/>
<path d="M918.042 874.41H917.835C917.219 874.385 916.614 874.24 916.054 873.981C915.494 873.722 914.991 873.355 914.574 872.901C914.156 872.447 913.833 871.915 913.622 871.335C913.411 870.756 913.317 870.14 913.344 869.524L916.2 802.613C916.269 801.375 916.817 800.213 917.73 799.374C918.643 798.535 919.847 798.086 921.086 798.122C921.703 798.149 922.309 798.297 922.869 798.558C923.428 798.819 923.931 799.187 924.348 799.643C924.765 800.098 925.089 800.632 925.299 801.212C925.51 801.793 925.604 802.409 925.577 803.026L922.721 869.994C922.649 871.187 922.125 872.308 921.256 873.128C920.386 873.949 919.237 874.407 918.042 874.41Z" fill="#3A140F"/>
<path d="M988 274C1007.33 274 1023 258.33 1023 239C1023 219.67 1007.33 204 988 204C968.67 204 953 219.67 953 239C953 258.33 968.67 274 988 274Z" fill="#EE9334"/>
</svg>
