<svg width="273" height="301" viewBox="0 0 273 301" fill="none" xmlns="http://www.w3.org/2000/svg">
<path d="M0 20C0 8.9543 8.95431 0 20 0H253C264.046 0 273 8.95431 273 20V78H0V20Z" fill="#FD510C"/>
<path d="M107.533 58C118.133 58 125.433 50.55 125.433 39.8C125.433 28.9 117.983 21.45 107.183 21.45H94.383V58H107.533ZM106.583 27.35C114.133 27.35 118.683 32.05 118.683 39.8C118.683 47.4 114.233 52.1 106.933 52.1H100.783V27.35H106.583ZM141.545 58.65C147.995 58.65 152.495 55.4 153.545 50H147.895C147.195 52.35 144.995 53.65 141.645 53.65C137.595 53.65 135.295 51.45 134.845 47.1L153.445 47.05V45.2C153.445 37.5 148.745 32.55 141.345 32.55C134.095 32.55 129.045 37.9 129.045 45.65C129.045 53.3 134.195 58.65 141.545 58.65ZM141.395 37.55C145.045 37.55 147.395 39.8 147.395 43.2H134.995C135.595 39.5 137.795 37.55 141.395 37.55ZM156.877 45.6C156.877 53.45 161.777 58.65 169.277 58.65C175.727 58.65 180.527 54.7 181.277 48.95H175.127C174.477 51.65 172.327 53.15 169.277 53.15C165.377 53.15 162.977 50.25 162.977 45.6C162.977 40.95 165.577 38 169.477 38C172.377 38 174.427 39.45 175.127 42.25H181.227C180.577 36.3 175.977 32.55 169.227 32.55C161.927 32.55 156.877 37.95 156.877 45.6Z" fill="black"/>
<path d="M0 78H273V281C273 292.046 264.046 301 253 301H20C8.9543 301 0 292.046 0 281V78Z" fill="white"/>
<path d="M82.8363 154.6V247H101.286V137.35H58.8363V154.6H82.8363ZM119.952 192.4C119.952 226.3 137.202 248.95 166.302 248.95C195.402 248.95 212.802 226.3 212.802 192.4C212.802 158.35 194.352 135.25 166.302 135.25C138.252 135.25 119.952 158.35 119.952 192.4ZM138.852 192.4C138.852 166.45 149.052 152.2 166.302 152.2C183.702 152.2 193.902 166.45 193.902 192.4C193.902 217.75 183.702 232 166.302 232C149.052 232 138.852 217.75 138.852 192.4Z" fill="black"/>
</svg>
