<svg width="740" height="500" viewBox="0 0 740 500" fill="none" xmlns="http://www.w3.org/2000/svg">
<path d="M110.096 124.14C110.096 144.3 121.796 157.08 144.116 161.94L164.996 166.62C175.796 168.96 180.296 174.18 180.296 183C180.296 193.98 170.576 200.64 155.276 200.64C140.516 200.64 131.516 193.98 131.336 182.82H108.296C108.836 206.4 127.196 221.34 155.276 221.34C184.256 221.34 203.336 205.5 203.336 181.02C203.336 161.4 192.356 149.88 169.856 145.02L149.156 140.52C138.176 138 133.136 132.78 133.136 123.42C133.136 112.44 142.316 105.6 156.536 105.6C169.496 105.6 177.596 112.26 178.136 123.6H201.176C200.456 99.84 183.536 85.08 156.896 85.08C129.176 85.08 110.096 101.1 110.096 124.14ZM260.72 221.34C283.94 221.34 300.14 209.64 303.92 190.2H283.58C281.06 198.66 273.14 203.34 261.08 203.34C246.5 203.34 238.22 195.42 236.6 179.76L303.56 179.58V172.92C303.56 145.2 286.64 127.38 260 127.38C233.9 127.38 215.72 146.64 215.72 174.54C215.72 202.08 234.26 221.34 260.72 221.34ZM260.18 145.38C273.32 145.38 281.78 153.48 281.78 165.72H237.14C239.3 152.4 247.22 145.38 260.18 145.38ZM315.915 174.36C315.915 202.62 333.555 221.34 360.555 221.34C383.775 221.34 401.055 207.12 403.755 186.42H381.615C379.275 196.14 371.535 201.54 360.555 201.54C346.515 201.54 337.875 191.1 337.875 174.36C337.875 157.62 347.235 147 361.275 147C371.715 147 379.095 152.22 381.615 162.3H403.575C401.235 140.88 384.675 127.38 360.375 127.38C334.095 127.38 315.915 146.82 315.915 174.36ZM475.9 129.72C472.3 128.82 469.24 128.46 466.18 128.46C454.3 128.46 445.84 134.4 442.06 143.22L440.8 130.26H420.1V219H442.06V175.8C442.06 158.52 451.96 150.06 467.8 150.06H475.9V129.72ZM527.556 221.34C550.776 221.34 566.976 209.64 570.756 190.2H550.416C547.896 198.66 539.976 203.34 527.916 203.34C513.336 203.34 505.056 195.42 503.436 179.76L570.396 179.58V172.92C570.396 145.2 553.476 127.38 526.836 127.38C500.736 127.38 482.556 146.64 482.556 174.54C482.556 202.08 501.096 221.34 527.556 221.34ZM527.016 145.38C540.156 145.38 548.616 153.48 548.616 165.72H503.976C506.136 152.4 514.056 145.38 527.016 145.38ZM617.332 219V148.44H634.612V130.08H617.332V102.36H595.372V130.08H578.272V148.44H595.372V219H617.332ZM141.825 324.14C141.825 344.3 153.525 357.08 175.845 361.94L196.725 366.62C207.525 368.96 212.025 374.18 212.025 383C212.025 393.98 202.305 400.64 187.005 400.64C172.245 400.64 163.245 393.98 163.065 382.82H140.025C140.565 406.4 158.925 421.34 187.005 421.34C215.985 421.34 235.065 405.5 235.065 381.02C235.065 361.4 224.085 349.88 201.585 345.02L180.885 340.52C169.905 338 164.865 332.78 164.865 323.42C164.865 312.44 174.045 305.6 188.265 305.6C201.225 305.6 209.325 312.26 209.865 323.6H232.905C232.185 299.84 215.265 285.08 188.625 285.08C160.905 285.08 141.825 301.1 141.825 324.14ZM279.128 421.34C292.988 421.34 305.048 415.04 308.828 405.86L310.448 419H329.708V365C329.708 340.34 314.948 327.38 291.008 327.38C266.888 327.38 251.048 339.98 251.048 359.24H269.768C269.768 349.88 276.968 344.48 289.928 344.48C301.088 344.48 308.288 349.34 308.288 361.4V363.38L281.648 365.36C260.588 366.98 248.708 377.24 248.708 393.62C248.708 410.36 260.228 421.34 279.128 421.34ZM286.328 404.78C276.428 404.78 271.028 400.82 271.028 392.72C271.028 385.52 276.248 381.02 289.928 379.76L308.468 378.32V383C308.468 396.68 299.828 404.78 286.328 404.78ZM373.241 419V371.12C373.241 356.72 381.521 347.36 395.021 347.36C406.361 347.36 413.741 354.56 413.741 369.5V419H435.701V364.28C435.701 341.24 424.181 327.38 401.861 327.38C389.801 327.38 379.001 332.6 373.421 341.6L371.621 330.08H351.281V419H373.241ZM487.518 419V348.44H504.798V330.08H487.518V302.36H465.558V330.08H448.458V348.44H465.558V419H487.518ZM544.382 421.34C558.242 421.34 570.302 415.04 574.082 405.86L575.702 419H594.962V365C594.962 340.34 580.202 327.38 556.262 327.38C532.142 327.38 516.302 339.98 516.302 359.24H535.022C535.022 349.88 542.222 344.48 555.182 344.48C566.342 344.48 573.542 349.34 573.542 361.4V363.38L546.902 365.36C525.842 366.98 513.962 377.24 513.962 393.62C513.962 410.36 525.482 421.34 544.382 421.34ZM551.582 404.78C541.682 404.78 536.282 400.82 536.282 392.72C536.282 385.52 541.502 381.02 555.182 379.76L573.722 378.32V383C573.722 396.68 565.082 404.78 551.582 404.78Z" fill="black"/>
<g clip-path="url(#clip0_930_198)">
<rect x="298" y="146.064" width="97.4573" height="97.4573" rx="48.7286" transform="rotate(-21.087 298 146.064)" fill="black"/>
<path d="M380.702 139.868C381.005 139.745 381.317 139.641 381.634 139.559L381.7 139.542C381.786 139.521 381.684 139.548 381.673 139.552C381.724 139.536 381.776 139.525 381.828 139.518C381.937 139.496 382.046 139.475 382.155 139.457C382.385 139.421 382.617 139.397 382.849 139.384C382.97 139.377 383.091 139.374 383.212 139.374L383.3 139.374L383.348 139.376L383.419 139.379L383.533 139.386C383.748 139.4 383.961 139.43 384.172 139.461C384.431 139.502 384.689 139.55 384.943 139.614L385.152 139.67C385.246 139.697 385.063 139.642 385.126 139.662L385.18 139.679L385.317 139.724C385.485 139.782 385.65 139.847 385.811 139.921C385.887 139.957 385.963 139.994 386.038 140.034C386.082 140.057 386.124 140.081 386.17 140.104L386.226 140.137C386.278 140.166 386.143 140.084 386.219 140.133C386.392 140.243 386.557 140.365 386.714 140.499C386.786 140.561 386.855 140.626 386.924 140.694C386.992 140.761 386.918 140.68 386.911 140.681C386.93 140.697 386.947 140.716 386.962 140.735C387.003 140.781 387.044 140.828 387.084 140.876C387.196 141.015 387.3 141.159 387.396 141.309C387.439 141.378 387.48 141.446 387.52 141.515C387.529 141.534 387.539 141.552 387.551 141.57C387.486 141.49 387.513 141.498 387.537 141.534C387.561 141.57 387.585 141.626 387.609 141.674C387.691 141.838 387.763 142.007 387.825 142.18C387.857 142.263 387.881 142.348 387.904 142.433C387.907 142.453 387.912 142.473 387.92 142.492C387.88 142.424 387.901 142.405 387.906 142.456C387.911 142.507 387.926 142.553 387.935 142.604C387.949 142.685 387.958 142.767 387.963 142.85C387.965 142.888 387.966 142.926 387.966 142.964C387.966 143.001 387.94 143.035 387.968 142.934C387.964 142.957 387.962 142.98 387.963 143.004C387.955 143.079 387.942 143.154 387.924 143.227C387.914 143.271 387.892 143.265 387.937 143.185C387.93 143.201 387.924 143.217 387.92 143.234C387.905 143.275 387.887 143.315 387.868 143.353C387.806 143.465 387.912 143.297 387.87 143.358C387.844 143.392 387.82 143.426 387.792 143.459L387.739 143.52C387.728 143.531 387.663 143.595 387.712 143.549C387.761 143.503 387.667 143.589 387.667 143.589C387.641 143.61 387.614 143.632 387.587 143.652C387.542 143.694 387.49 143.729 387.435 143.755C387.447 143.751 387.531 143.709 387.443 143.752L387.369 143.786C387.319 143.805 387.269 143.825 387.219 143.844C387.115 143.877 387.226 143.841 387.229 143.84C387.19 143.851 387.15 143.857 387.11 143.857C387.084 143.858 387.056 143.858 387.03 143.86C387.112 143.853 387.07 143.864 387.041 143.856C387.012 143.848 386.92 143.85 386.912 143.834C386.922 143.858 387.004 143.866 386.92 143.831C386.899 143.824 386.878 143.815 386.859 143.805C386.838 143.796 386.819 143.785 386.799 143.776C386.779 143.767 386.881 143.834 386.797 143.77C386.761 143.744 386.729 143.714 386.695 143.687C386.642 143.644 386.766 143.78 386.703 143.695C386.69 143.678 386.676 143.662 386.663 143.643C386.661 143.637 386.627 143.59 386.627 143.59C386.627 143.59 386.68 143.708 386.64 143.622C386.632 143.602 386.625 143.583 386.617 143.563C386.609 143.543 386.605 143.533 386.6 143.519C386.586 143.483 386.592 143.499 386.611 143.569C386.622 143.564 386.587 143.46 386.599 143.441C386.579 143.473 386.59 143.521 386.606 143.46C386.608 143.435 386.613 143.411 386.62 143.388C386.588 143.423 386.595 143.453 386.617 143.403C386.63 143.375 386.64 143.346 386.653 143.319C386.667 143.292 386.697 143.235 386.666 143.292C386.634 143.349 386.685 143.264 386.694 143.251C386.727 143.206 386.763 143.162 386.8 143.121L386.852 143.065C386.764 143.141 386.901 143.009 386.852 143.065C386.95 142.978 387.052 142.896 387.159 142.821C387.208 142.787 387.256 142.755 387.305 142.724L387.382 142.68C387.297 142.731 387.363 142.687 387.382 142.68C387.498 142.622 387.617 142.57 387.74 142.525C387.801 142.502 387.864 142.483 387.925 142.465C387.939 142.46 388.028 142.437 387.966 142.45C387.904 142.462 387.994 142.439 388.01 142.44C388.14 142.413 388.273 142.394 388.406 142.384C388.507 142.377 388.611 142.374 388.716 142.375C388.82 142.375 388.716 142.375 388.703 142.374C388.727 142.372 388.752 142.373 388.777 142.377C388.837 142.381 388.898 142.387 388.958 142.394C389.152 142.416 389.343 142.453 389.531 142.504C389.551 142.509 389.585 142.526 389.605 142.524C389.597 142.527 389.492 142.489 389.57 142.514L389.678 142.549C389.752 142.575 389.826 142.602 389.898 142.63C390.024 142.686 390.148 142.735 390.276 142.798C390.373 142.843 390.468 142.892 390.563 142.944C390.605 142.968 390.65 142.992 390.695 143.017C390.607 142.959 390.665 142.998 390.683 143.011C390.702 143.023 390.745 143.05 390.776 143.07C390.95 143.186 391.117 143.312 391.277 143.447C391.351 143.511 391.425 143.578 391.496 143.645C391.529 143.678 391.562 143.709 391.595 143.741C391.612 143.756 391.628 143.772 391.643 143.789C391.575 143.691 391.625 143.771 391.646 143.798C391.901 144.072 392.132 144.367 392.337 144.68C392.427 144.816 392.512 144.955 392.593 145.097C392.6 145.115 392.674 145.242 392.627 145.158C392.58 145.073 392.649 145.199 392.658 145.217C392.693 145.283 392.726 145.349 392.759 145.416C392.861 145.625 392.955 145.838 393.039 146.056C393.065 146.123 393.091 146.19 393.117 146.258C393.163 146.379 393.256 146.476 393.374 146.529C393.492 146.581 393.626 146.584 393.747 146.538C393.866 146.489 393.961 146.396 394.013 146.279C394.065 146.162 394.07 146.029 394.026 145.908C393.563 144.6 392.765 143.345 391.651 142.5C390.982 141.989 390.203 141.639 389.377 141.478C388.276 141.275 387.071 141.531 386.242 142.313C385.799 142.729 385.476 143.304 385.705 143.922C385.807 144.176 385.978 144.395 386.199 144.555C386.421 144.715 386.682 144.809 386.955 144.827C387.269 144.833 387.58 144.765 387.863 144.627C388.146 144.49 388.392 144.287 388.581 144.036C388.84 143.684 388.966 143.251 388.936 142.814C388.911 141.998 388.501 141.171 388.035 140.519C387.496 139.783 386.752 139.22 385.897 138.901C384.265 138.283 382.469 138.246 380.812 138.796C380.659 138.847 380.506 138.904 380.355 138.965C380.235 139.011 380.138 139.104 380.085 139.222C380.033 139.34 380.03 139.474 380.076 139.595C380.123 139.715 380.215 139.813 380.333 139.865C380.451 139.917 380.585 139.921 380.706 139.874L380.702 139.868Z" fill="#FFAABE"/>
<path d="M338.876 211.206L338.791 211.256C338.774 211.263 338.665 211.326 338.751 211.279C338.836 211.233 338.713 211.299 338.692 211.31C338.652 211.332 338.61 211.353 338.569 211.373C338.41 211.453 338.25 211.527 338.086 211.594C337.887 211.676 337.684 211.749 337.478 211.813C337.379 211.843 337.279 211.872 337.179 211.897C337.154 211.906 337.129 211.916 337.101 211.917C337.205 211.896 337.13 211.906 337.109 211.914C337.042 211.929 336.974 211.944 336.906 211.957C336.443 212.044 335.972 212.084 335.501 212.076L335.329 212.072C335.219 212.07 335.416 212.076 335.351 212.073L335.244 212.067C335.106 212.06 334.967 212.05 334.829 212.035C334.663 212.018 334.499 211.993 334.336 211.962C334.259 211.948 334.182 211.932 334.107 211.912C334.021 211.883 333.932 211.859 333.842 211.841C333.851 211.83 333.948 211.876 333.857 211.845L333.796 211.826C333.751 211.811 333.706 211.795 333.659 211.774C333.568 211.739 333.477 211.702 333.388 211.662C333.306 211.626 333.226 211.587 333.146 211.547C333.102 211.523 333.057 211.498 333.013 211.472C332.999 211.464 332.933 211.425 332.992 211.461C333.051 211.497 332.97 211.446 332.957 211.438C332.774 211.32 332.602 211.188 332.441 211.041C332.407 211.01 332.373 210.978 332.34 210.945L332.3 210.906C332.243 210.85 332.324 210.93 332.328 210.936C332.269 210.862 332.199 210.796 332.142 210.723C332.021 210.582 331.909 210.434 331.804 210.28C331.755 210.208 331.708 210.134 331.662 210.06C331.653 210.036 331.635 210.013 331.621 209.989L331.616 209.975L331.627 210.005L331.604 209.961C331.593 209.931 331.574 209.904 331.559 209.874C331.478 209.709 331.411 209.537 331.361 209.359C331.358 209.339 331.352 209.32 331.345 209.301C331.383 209.359 331.366 209.397 331.359 209.339C331.353 209.281 331.343 209.262 331.338 209.223C331.324 209.133 331.324 209.044 331.317 208.952C331.312 208.891 331.308 209.06 331.316 208.996C331.318 208.977 331.318 208.959 331.32 208.941C331.324 208.899 331.331 208.859 331.339 208.82C331.342 208.802 331.347 208.784 331.351 208.767C331.362 208.717 331.38 208.749 331.338 208.808C331.36 208.768 331.379 208.726 331.394 208.682L331.419 208.633C331.456 208.559 331.405 208.661 331.403 208.658C331.401 208.656 331.485 208.541 331.494 208.529C331.531 208.481 331.57 208.435 331.61 208.391C331.62 208.38 331.682 208.322 331.634 208.365C331.587 208.408 331.683 208.326 331.693 208.317C331.725 208.289 331.759 208.263 331.793 208.238C331.82 208.22 331.883 208.164 331.793 208.238C331.815 208.224 331.839 208.213 331.864 208.204C331.912 208.185 331.96 208.166 332.008 208.148C332.113 208.114 331.995 208.153 331.995 208.153C332.034 208.143 332.073 208.138 332.113 208.137C332.135 208.133 332.157 208.132 332.179 208.134C332.165 208.122 332.085 208.125 332.154 208.134L332.221 208.144C332.231 208.146 332.338 208.158 332.261 208.15C332.183 208.142 332.261 208.15 332.281 208.157L332.345 208.183C332.36 208.191 332.413 208.207 332.42 208.221C332.408 208.191 332.344 208.171 332.414 208.223C332.439 208.241 332.519 208.287 332.529 208.32C332.529 208.32 332.455 208.225 332.508 208.303C332.515 208.322 332.533 208.339 332.546 208.356C332.576 208.395 332.551 208.406 332.534 208.325C332.54 208.346 332.548 208.367 332.558 208.386C332.556 208.381 332.581 208.447 332.581 208.447C332.567 208.377 332.563 208.362 332.569 208.4C332.575 208.415 332.575 208.433 332.576 208.45C332.581 208.474 332.582 208.499 332.58 208.523C332.605 208.425 332.582 208.478 332.574 208.506C332.566 208.535 332.564 208.555 332.561 208.578C332.544 208.689 332.589 208.519 332.561 208.578C332.532 208.637 332.524 208.67 332.501 208.714C332.489 208.743 332.474 208.77 332.457 208.797C332.493 208.744 332.48 208.758 332.45 208.8C332.385 208.892 332.314 208.98 332.238 209.062C332.216 209.086 332.107 209.192 332.178 209.126C332.126 209.174 332.073 209.221 332.017 209.266C331.923 209.342 331.825 209.413 331.723 209.477L331.65 209.522C331.636 209.527 331.558 209.572 331.614 209.542L331.558 209.57L331.461 209.614C331.351 209.665 331.238 209.708 331.123 209.745C331.07 209.765 331.014 209.775 330.96 209.79C331.055 209.765 330.985 209.78 330.965 209.788L330.846 209.811C330.628 209.849 330.407 209.866 330.186 209.864C330.168 209.863 330.091 209.859 330.161 209.864C330.231 209.868 330.128 209.861 330.121 209.861C330.076 209.858 330.032 209.855 329.988 209.85C329.894 209.841 329.801 209.83 329.709 209.815C329.556 209.79 329.404 209.759 329.254 209.721L329.086 209.675C329.068 209.67 329.051 209.665 329.033 209.659C329.129 209.697 329.07 209.67 329.047 209.663C328.989 209.643 328.929 209.626 328.874 209.604C328.679 209.533 328.489 209.45 328.305 209.355C328.218 209.311 328.133 209.263 328.048 209.214C327.963 209.165 328.057 209.218 328.066 209.226C328.048 209.213 328.029 209.201 328.009 209.191C327.962 209.161 327.914 209.13 327.869 209.099C327.71 208.991 327.557 208.876 327.41 208.753C327.269 208.636 327.133 208.513 327.003 208.388L326.918 208.302C326.844 208.226 326.979 208.368 326.934 208.318C326.92 208.303 326.906 208.289 326.893 208.274C326.833 208.21 326.774 208.146 326.714 208.082C326.367 207.681 326.061 207.246 325.802 206.783C325.795 206.766 325.784 206.749 325.774 206.733C325.741 206.673 325.847 206.869 325.806 206.79C325.794 206.759 325.774 206.732 325.759 206.704C325.641 206.479 325.39 206.31 325.129 206.424C324.91 206.52 324.723 206.813 324.849 207.054C325.481 208.254 326.371 209.334 327.539 210.042C328.248 210.478 329.048 210.745 329.877 210.823C330.42 210.871 330.968 210.813 331.49 210.653C332.068 210.466 332.587 210.13 332.995 209.68C333.393 209.249 333.679 208.66 333.474 208.071C333.279 207.508 332.685 207.178 332.112 207.174C331.539 207.17 330.975 207.549 330.65 208.014C330.379 208.392 330.265 208.86 330.333 209.32C330.45 210.166 330.964 210.957 331.544 211.561C332.2 212.236 333.04 212.703 333.96 212.902C334.652 213.049 335.361 213.101 336.066 213.057C337.069 212.999 338.048 212.732 338.94 212.272C339.115 212.183 339.287 212.089 339.458 211.988C339.678 211.859 339.713 211.496 339.559 211.307C339.379 211.084 339.115 211.067 338.878 211.205L338.876 211.206Z" fill="#FFAABE"/>
<path d="M325.907 164.774L322.648 166.886C322.63 166.898 322.615 166.913 322.604 166.932C322.594 166.95 322.588 166.971 322.588 166.993C322.587 167.014 322.591 167.035 322.6 167.054C322.61 167.073 322.623 167.09 322.64 167.103L324.524 168.521C324.547 168.538 324.564 168.563 324.572 168.591C324.58 168.618 324.578 168.648 324.567 168.675C324.557 168.702 324.538 168.725 324.513 168.74C324.488 168.755 324.46 168.761 324.431 168.758L322.096 168.501C322.075 168.498 322.053 168.501 322.032 168.508C322.012 168.516 321.993 168.529 321.979 168.545C321.964 168.562 321.954 168.582 321.95 168.603C321.945 168.624 321.946 168.647 321.952 168.668L323.114 172.937C323.123 172.968 323.12 173.001 323.107 173.029C323.093 173.058 323.07 173.08 323.041 173.093C323.012 173.106 322.979 173.108 322.949 173.098C322.918 173.089 322.893 173.069 322.876 173.042L320.546 169.284C320.535 169.266 320.52 169.252 320.502 169.241C320.484 169.231 320.463 169.224 320.443 169.223C320.422 169.222 320.401 169.226 320.382 169.235C320.363 169.243 320.346 169.256 320.333 169.272L318.927 171.154C318.909 171.177 318.885 171.194 318.857 171.202C318.829 171.209 318.799 171.208 318.772 171.197C318.746 171.186 318.723 171.167 318.708 171.142C318.693 171.118 318.687 171.089 318.69 171.06L318.936 168.718C318.939 168.697 318.936 168.675 318.929 168.655C318.922 168.635 318.91 168.617 318.894 168.603C318.878 168.588 318.859 168.578 318.838 168.573C318.817 168.567 318.796 168.567 318.775 168.572L314.797 169.6C314.766 169.607 314.734 169.604 314.706 169.59C314.678 169.576 314.656 169.553 314.643 169.524C314.631 169.495 314.629 169.463 314.638 169.433C314.647 169.403 314.667 169.377 314.693 169.36L318.16 167.156C318.177 167.145 318.191 167.129 318.202 167.111C318.212 167.093 318.218 167.073 318.219 167.052C318.219 167.032 318.216 167.011 318.207 166.992C318.199 166.973 318.186 166.957 318.17 166.943L316.287 165.526C316.264 165.509 316.248 165.484 316.24 165.456C316.232 165.428 316.233 165.399 316.244 165.372C316.255 165.345 316.274 165.322 316.298 165.307C316.323 165.292 316.352 165.286 316.381 165.288L318.714 165.546C318.736 165.549 318.758 165.546 318.778 165.538C318.799 165.53 318.817 165.518 318.831 165.501C318.846 165.484 318.856 165.465 318.86 165.443C318.865 165.422 318.864 165.4 318.859 165.379L317.642 160.971C317.634 160.94 317.637 160.908 317.651 160.879C317.664 160.851 317.688 160.828 317.717 160.815C317.746 160.803 317.779 160.801 317.809 160.811C317.839 160.82 317.865 160.84 317.881 160.867L320.272 164.764C320.283 164.782 320.299 164.797 320.317 164.807C320.335 164.818 320.355 164.824 320.376 164.825C320.397 164.826 320.417 164.822 320.437 164.814C320.456 164.805 320.472 164.792 320.486 164.776L321.89 162.896C321.908 162.873 321.932 162.856 321.96 162.848C321.988 162.841 322.018 162.842 322.044 162.853C322.071 162.864 322.094 162.883 322.109 162.908C322.124 162.932 322.13 162.961 322.127 162.99L321.877 165.334C321.874 165.356 321.877 165.377 321.884 165.397C321.892 165.417 321.904 165.435 321.919 165.449C321.935 165.464 321.954 165.474 321.975 165.48C321.995 165.485 322.017 165.486 322.038 165.481L325.804 164.534C325.834 164.526 325.866 164.53 325.894 164.544C325.922 164.558 325.944 164.581 325.957 164.61C325.969 164.639 325.971 164.671 325.962 164.701C325.952 164.731 325.933 164.757 325.907 164.774Z" fill="#EE9334"/>
<path d="M411.468 178.401L408.209 180.513C408.191 180.524 408.176 180.54 408.165 180.559C408.155 180.577 408.149 180.598 408.148 180.619C408.147 180.641 408.152 180.662 408.161 180.681C408.171 180.7 408.184 180.717 408.202 180.73L410.085 182.148C410.108 182.165 410.125 182.19 410.134 182.218C410.142 182.245 410.14 182.275 410.13 182.302C410.119 182.329 410.1 182.352 410.075 182.367C410.05 182.382 410.021 182.389 409.992 182.385L407.658 182.128C407.636 182.125 407.614 182.128 407.593 182.135C407.573 182.143 407.555 182.156 407.54 182.172C407.526 182.189 407.516 182.209 407.511 182.23C407.506 182.251 407.507 182.274 407.513 182.295L408.67 186.562C408.677 186.592 408.674 186.624 408.66 186.652C408.646 186.68 408.623 186.703 408.594 186.715C408.566 186.728 408.533 186.73 408.503 186.721C408.473 186.712 408.447 186.693 408.43 186.666L406.109 182.905C406.097 182.887 406.082 182.871 406.063 182.86C406.045 182.85 406.024 182.843 406.002 182.842C405.981 182.841 405.959 182.846 405.94 182.855C405.92 182.864 405.903 182.878 405.891 182.895L404.485 184.777C404.468 184.801 404.444 184.818 404.416 184.826C404.388 184.834 404.359 184.833 404.332 184.822C404.305 184.812 404.282 184.793 404.266 184.769C404.251 184.744 404.244 184.715 404.247 184.686L404.493 182.345C404.496 182.324 404.494 182.302 404.487 182.282C404.479 182.261 404.467 182.243 404.451 182.229C404.435 182.214 404.416 182.204 404.395 182.198C404.375 182.193 404.353 182.193 404.332 182.198L400.354 183.226C400.323 183.234 400.291 183.231 400.263 183.217C400.235 183.203 400.213 183.18 400.2 183.151C400.187 183.122 400.186 183.09 400.194 183.06C400.203 183.03 400.223 183.004 400.249 182.987L403.717 180.783C403.734 180.771 403.748 180.756 403.759 180.738C403.769 180.72 403.775 180.699 403.776 180.679C403.777 180.658 403.773 180.637 403.764 180.619C403.756 180.6 403.743 180.583 403.727 180.57L401.84 179.149C401.817 179.132 401.8 179.107 401.792 179.079C401.785 179.051 401.786 179.022 401.797 178.995C401.807 178.968 401.826 178.945 401.851 178.93C401.876 178.915 401.904 178.909 401.933 178.911L404.267 179.169C404.289 179.172 404.311 179.169 404.331 179.162C404.352 179.154 404.37 179.141 404.385 179.125C404.399 179.108 404.409 179.088 404.413 179.066C404.418 179.045 404.417 179.023 404.411 179.002L403.195 174.594C403.186 174.563 403.188 174.529 403.202 174.5C403.215 174.471 403.239 174.448 403.269 174.435C403.298 174.422 403.332 174.42 403.362 174.43C403.393 174.441 403.419 174.462 403.435 174.49L405.825 178.387C405.836 178.405 405.851 178.42 405.869 178.43C405.887 178.441 405.908 178.447 405.928 178.448C405.949 178.449 405.97 178.445 405.989 178.437C406.008 178.428 406.025 178.415 406.038 178.399L407.444 176.518C407.461 176.495 407.486 176.479 407.514 176.471C407.541 176.463 407.571 176.465 407.598 176.476C407.625 176.486 407.647 176.506 407.662 176.53C407.677 176.555 407.684 176.584 407.681 176.613L407.435 178.956C407.432 178.977 407.435 178.999 407.442 179.019C407.449 179.039 407.461 179.057 407.477 179.072C407.493 179.086 407.512 179.097 407.533 179.102C407.554 179.107 407.575 179.108 407.596 179.103L411.363 178.164C411.393 178.158 411.423 178.163 411.45 178.177C411.477 178.191 411.498 178.213 411.51 178.241C411.522 178.268 411.525 178.299 411.517 178.328C411.51 178.357 411.492 178.383 411.468 178.401Z" fill="#EE9334"/>
<path d="M387.914 156.307C386.197 157.24 384.796 158.661 383.887 160.39C382.978 162.12 382.602 164.08 382.807 166.023C383.012 167.965 383.789 169.804 385.039 171.306C386.289 172.807 387.956 173.904 389.829 174.458C391.703 175.012 393.699 174.999 395.564 174.418C397.43 173.838 399.082 172.718 400.31 171.199C401.539 169.68 402.29 167.831 402.468 165.886C402.646 163.94 402.243 161.985 401.31 160.269C400.059 157.967 397.945 156.256 395.433 155.513C392.92 154.77 390.216 155.056 387.914 156.307ZM395.569 170.392C394.5 170.973 393.282 171.224 392.07 171.113C390.859 171.002 389.707 170.534 388.761 169.769C387.815 169.004 387.117 167.975 386.756 166.813C386.395 165.651 386.386 164.408 386.731 163.241C387.076 162.074 387.76 161.036 388.695 160.257C389.63 159.479 390.775 158.995 391.985 158.868C393.196 158.74 394.416 158.974 395.494 159.54C396.571 160.106 397.456 160.979 398.037 162.048C398.423 162.758 398.665 163.537 398.75 164.341C398.835 165.145 398.761 165.957 398.532 166.732C398.303 167.507 397.924 168.23 397.415 168.858C396.907 169.487 396.28 170.009 395.57 170.395L395.569 170.392Z" fill="#FD510C"/>
<path d="M382.858 179.188C387.038 176.916 391.861 177.344 394.905 179.923C395.295 179.084 395.462 178.159 395.39 177.237C395.318 176.315 395.01 175.427 394.495 174.659L383.399 158.107L364.875 168.175L372.783 186.614C373.159 187.434 373.735 188.145 374.458 188.684C375.182 189.223 376.028 189.572 376.921 189.698C376.409 185.742 378.678 181.46 382.858 179.188Z" fill="#FD510C"/>
<path d="M374.949 175.83C374.912 175.845 374.871 175.85 374.831 175.844L369.377 175.127C369.315 175.117 369.258 175.083 369.22 175.032C369.182 174.981 369.165 174.917 369.174 174.854C369.182 174.791 369.215 174.734 369.264 174.695C369.314 174.655 369.378 174.637 369.441 174.644L374.894 175.361C374.948 175.368 374.997 175.393 375.035 175.432C375.073 175.47 375.097 175.52 375.103 175.574C375.11 175.628 375.098 175.682 375.07 175.728C375.042 175.774 375 175.81 374.949 175.83Z" fill="#3A140F"/>
<path d="M369.743 176.245C369.687 176.267 369.626 176.267 369.57 176.247C369.514 176.227 369.468 176.187 369.439 176.135C369.411 176.083 369.402 176.022 369.415 175.964C369.429 175.906 369.463 175.855 369.511 175.82L370.578 175.042L369.836 174.123C369.796 174.072 369.778 174.008 369.785 173.944C369.792 173.88 369.824 173.822 369.874 173.781C369.924 173.741 369.988 173.722 370.052 173.729C370.116 173.735 370.175 173.767 370.216 173.817L371.278 175.133L369.799 176.214C369.782 176.226 369.763 176.237 369.743 176.245Z" fill="#3A140F"/>
<path d="M392.431 182.569C393.522 181.981 394.392 181.052 394.905 179.923C391.866 177.344 387.038 176.916 382.858 179.188C378.679 181.46 376.409 185.742 376.921 189.698C378.148 189.88 379.401 189.656 380.489 189.06L392.431 182.569Z" fill="#EDEAD9"/>
<path d="M383.103 171.399C383.058 171.416 383.008 171.42 382.961 171.409C382.913 171.398 382.87 171.373 382.837 171.337C382.804 171.301 382.783 171.257 382.775 171.208C382.768 171.16 382.775 171.111 382.796 171.067L385.164 166.103C385.194 166.048 385.244 166.007 385.303 165.987C385.363 165.968 385.427 165.972 385.484 165.999C385.54 166.026 385.584 166.074 385.606 166.132C385.629 166.191 385.628 166.255 385.603 166.313L383.235 171.277C383.208 171.333 383.161 171.376 383.103 171.399Z" fill="#3A140F"/>
<path d="M386.286 167.254L384.575 167.908L384.048 166.3C384.038 166.269 384.034 166.237 384.036 166.205C384.038 166.173 384.047 166.142 384.061 166.113C384.076 166.085 384.096 166.059 384.12 166.039C384.144 166.018 384.173 166.002 384.203 165.992C384.265 165.972 384.332 165.978 384.389 166.007C384.447 166.036 384.491 166.087 384.511 166.148L384.879 167.27L386.111 166.795C386.171 166.772 386.238 166.774 386.297 166.8C386.356 166.826 386.403 166.875 386.426 166.935C386.449 166.995 386.447 167.062 386.421 167.121C386.395 167.18 386.347 167.227 386.286 167.25L386.286 167.254Z" fill="#3A140F"/>
<path d="M382.133 180.617C384.862 179.564 386.222 176.498 385.169 173.769C384.117 171.04 381.051 169.68 378.321 170.733C375.592 171.785 374.233 174.851 375.285 177.58C376.338 180.31 379.403 181.669 382.133 180.617Z" fill="#EDEAD9"/>
<path d="M377.683 172.558C379.296 171.936 380.1 170.124 379.478 168.511C378.856 166.898 377.044 166.095 375.431 166.717C373.818 167.339 373.014 169.151 373.636 170.764C374.258 172.377 376.07 173.18 377.683 172.558Z" fill="#EDEAD9"/>
<path d="M379.225 174.482C379.509 174.372 379.651 174.053 379.541 173.769C379.432 173.484 379.112 173.343 378.828 173.453C378.544 173.562 378.402 173.881 378.512 174.166C378.622 174.45 378.941 174.591 379.225 174.482Z" fill="#3A140F"/>
<path d="M380.391 176.627C380.675 176.517 380.817 176.198 380.707 175.914C380.597 175.63 380.278 175.488 379.994 175.598C379.71 175.707 379.568 176.027 379.678 176.311C379.787 176.595 380.106 176.737 380.391 176.627Z" fill="#3A140F"/>
<path d="M381.558 178.773C381.842 178.663 381.983 178.344 381.874 178.06C381.764 177.775 381.445 177.634 381.161 177.743C380.876 177.853 380.735 178.172 380.844 178.456C380.954 178.741 381.273 178.882 381.558 178.773Z" fill="#3A140F"/>
<path d="M386.993 173.44C386.935 173.467 386.867 173.469 386.807 173.447C386.746 173.424 386.697 173.379 386.67 173.32C386.642 173.261 386.64 173.194 386.662 173.133C386.685 173.073 386.73 173.023 386.789 172.996L389.508 171.518C389.566 171.487 389.633 171.48 389.695 171.499C389.758 171.517 389.81 171.56 389.841 171.617C389.873 171.674 389.88 171.742 389.861 171.804C389.843 171.866 389.8 171.919 389.743 171.95L387.023 173.428L386.993 173.44Z" fill="#FFAABE"/>
<path d="M389.329 174.496C389.274 174.518 389.213 174.518 389.158 174.498C389.102 174.478 389.056 174.438 389.028 174.386L387.076 170.793C387.045 170.736 387.038 170.669 387.056 170.606C387.075 170.544 387.117 170.491 387.175 170.46C387.232 170.429 387.299 170.422 387.362 170.441C387.424 170.459 387.477 170.502 387.508 170.559L389.46 174.151C389.476 174.179 389.485 174.21 389.489 174.242C389.492 174.274 389.489 174.306 389.48 174.336C389.471 174.367 389.456 174.396 389.436 174.421C389.416 174.445 389.391 174.466 389.363 174.481C389.352 174.487 389.341 174.492 389.329 174.496Z" fill="#FFAABE"/>
<path d="M387.969 173.901C387.919 173.92 387.864 173.922 387.813 173.907C387.782 173.898 387.754 173.883 387.729 173.863C387.704 173.843 387.683 173.818 387.668 173.79C387.652 173.762 387.643 173.731 387.639 173.699C387.636 173.667 387.639 173.635 387.648 173.604L388.379 171.135C388.397 171.073 388.439 171.02 388.496 170.989C388.553 170.957 388.62 170.95 388.683 170.968C388.745 170.986 388.798 171.029 388.829 171.086C388.86 171.143 388.868 171.21 388.849 171.272L388.119 173.741C388.108 173.778 388.089 173.811 388.063 173.839C388.037 173.867 388.005 173.888 387.969 173.901Z" fill="#FFAABE"/>
<path d="M389.596 173.081C389.546 173.1 389.491 173.102 389.439 173.087L386.969 172.356C386.939 172.348 386.91 172.333 386.885 172.313C386.86 172.293 386.839 172.269 386.823 172.241C386.807 172.213 386.798 172.182 386.794 172.15C386.79 172.119 386.793 172.086 386.801 172.056C386.81 172.025 386.825 171.996 386.845 171.971C386.864 171.946 386.889 171.925 386.917 171.909C386.945 171.894 386.975 171.884 387.007 171.88C387.039 171.876 387.071 171.879 387.102 171.887L389.576 172.616C389.625 172.63 389.668 172.66 389.699 172.7C389.731 172.74 389.749 172.789 389.751 172.84C389.753 172.891 389.739 172.941 389.711 172.984C389.683 173.026 389.642 173.059 389.594 173.077L389.596 173.081Z" fill="#FFAABE"/>
<path d="M368.961 172.479C368.932 172.492 368.901 172.5 368.869 172.501C368.836 172.502 368.804 172.497 368.774 172.486C368.744 172.475 368.717 172.458 368.693 172.436C368.67 172.414 368.651 172.388 368.637 172.359C368.624 172.33 368.616 172.299 368.615 172.266C368.614 172.234 368.619 172.202 368.63 172.172C368.641 172.142 368.658 172.115 368.68 172.091C368.701 172.068 368.728 172.049 368.757 172.035L371.475 170.56C371.532 170.529 371.599 170.522 371.662 170.54C371.724 170.559 371.777 170.601 371.808 170.659C371.839 170.716 371.846 170.783 371.828 170.846C371.809 170.908 371.767 170.961 371.709 170.992L368.99 172.47C368.981 172.473 368.971 172.476 368.961 172.479Z" fill="#FFAABE"/>
<path d="M371.297 173.536C371.242 173.558 371.181 173.558 371.126 173.537C371.07 173.517 371.024 173.477 370.996 173.425L369.044 169.832C369.013 169.775 369.006 169.708 369.024 169.645C369.043 169.583 369.085 169.53 369.142 169.499C369.2 169.468 369.267 169.461 369.329 169.48C369.392 169.498 369.445 169.541 369.476 169.598L371.428 173.19C371.443 173.218 371.453 173.249 371.457 173.281C371.46 173.313 371.457 173.345 371.448 173.376C371.439 173.407 371.424 173.435 371.404 173.46C371.384 173.485 371.359 173.506 371.331 173.521L371.297 173.536Z" fill="#FFAABE"/>
<path d="M369.937 172.94C369.895 172.956 369.849 172.961 369.804 172.952C369.76 172.944 369.719 172.923 369.685 172.893C369.652 172.862 369.628 172.823 369.615 172.78C369.603 172.736 369.603 172.69 369.615 172.646L370.345 170.177C370.354 170.146 370.369 170.117 370.388 170.092C370.408 170.067 370.433 170.046 370.461 170.03C370.489 170.015 370.519 170.005 370.551 170.001C370.583 169.997 370.615 170 370.646 170.008C370.677 170.017 370.706 170.032 370.731 170.052C370.756 170.071 370.777 170.096 370.792 170.124C370.808 170.152 370.818 170.183 370.822 170.214C370.825 170.246 370.823 170.278 370.814 170.309L370.084 172.778C370.074 172.814 370.055 172.848 370.03 172.876C370.004 172.904 369.972 172.926 369.937 172.94Z" fill="#FFAABE"/>
<path d="M371.562 172.117C371.512 172.136 371.457 172.138 371.406 172.123L368.938 171.395C368.907 171.386 368.879 171.372 368.853 171.352C368.828 171.332 368.807 171.307 368.792 171.279C368.776 171.251 368.766 171.221 368.762 171.189C368.759 171.157 368.761 171.125 368.77 171.094C368.779 171.063 368.793 171.035 368.813 171.01C368.833 170.984 368.857 170.963 368.885 170.948C368.913 170.932 368.944 170.922 368.976 170.919C369.008 170.915 369.04 170.917 369.071 170.926L371.545 171.655C371.594 171.669 371.637 171.698 371.668 171.739C371.699 171.779 371.717 171.828 371.719 171.879C371.721 171.93 371.707 171.98 371.679 172.022C371.651 172.065 371.611 172.097 371.563 172.116L371.562 172.117Z" fill="#FFAABE"/>
<path d="M376.645 169.865C376.589 169.886 376.528 169.886 376.473 169.866C376.417 169.845 376.371 169.805 376.343 169.753L375.85 168.846C375.818 168.789 375.811 168.721 375.83 168.659C375.848 168.596 375.891 168.544 375.948 168.513C376.006 168.482 376.073 168.474 376.135 168.493C376.198 168.512 376.25 168.554 376.281 168.611L376.775 169.519C376.805 169.576 376.812 169.643 376.794 169.705C376.776 169.767 376.733 169.819 376.677 169.85L376.645 169.865Z" fill="#EE9334"/>
<path d="M377.109 171.034C376.646 171.195 376.146 171.218 375.671 171.098C375.609 171.08 375.556 171.038 375.525 170.982C375.493 170.926 375.486 170.859 375.503 170.797C375.521 170.735 375.562 170.682 375.619 170.65C375.675 170.619 375.742 170.611 375.804 170.629C375.869 170.647 377.325 171.053 377.795 169.547C377.803 169.515 377.818 169.485 377.838 169.458C377.858 169.432 377.883 169.41 377.912 169.393C377.941 169.377 377.973 169.367 378.006 169.363C378.039 169.36 378.072 169.363 378.104 169.373C378.136 169.382 378.165 169.399 378.19 169.42C378.216 169.442 378.236 169.468 378.251 169.498C378.265 169.528 378.274 169.56 378.275 169.593C378.277 169.627 378.272 169.66 378.26 169.691C378.022 170.473 377.571 170.856 377.109 171.034Z" fill="#3A140F"/>
<path d="M364.888 168.198C365.068 168.528 365.493 168.704 366.108 168.742L364.799 167.897C364.808 168.002 364.838 168.105 364.888 168.198Z" fill="#BC4632"/>
<path d="M377.037 164.157L376.872 164.067C376.854 164.25 376.799 164.427 376.711 164.588L376.485 164.996C376.869 164.773 377.242 164.547 377.602 164.32C377.404 164.308 377.211 164.252 377.037 164.157Z" fill="#BC4632"/>
<path d="M368.547 165.165L370.931 164.396C371.127 164.333 371.335 164.315 371.538 164.344C371.742 164.373 371.936 164.449 372.106 164.564L373.163 162.641C373.336 162.326 373.627 162.092 373.972 161.992C374.317 161.891 374.689 161.932 375.004 162.105L375.169 162.195C375.187 162.013 375.241 161.835 375.33 161.674L376.536 159.478C376.621 159.322 376.737 159.183 376.876 159.072C377.014 158.96 377.174 158.876 377.345 158.826C377.517 158.776 377.696 158.76 377.873 158.779C378.051 158.799 378.223 158.853 378.379 158.939L379.022 159.292L379.035 158.11C377.242 158.63 375.061 159.538 372.808 160.766C370.528 162.005 368.56 163.355 367.145 164.588L368.255 165.299C368.347 165.243 368.445 165.198 368.547 165.165Z" fill="#BC4632"/>
<path d="M383.346 158.166C383.281 158.049 383.187 157.95 383.074 157.878C383.08 157.932 383.083 157.986 383.083 158.04L383.063 159.614C383.425 159.022 383.545 158.52 383.346 158.166Z" fill="#BC4632"/>
<path d="M367.142 142.13L365.8 147.137L370.963 145.624L367.142 142.13Z" fill="#FD510C"/>
<path d="M367.693 143.565C368.468 143.266 368.854 142.395 368.555 141.62C368.256 140.846 367.386 140.46 366.611 140.758C365.836 141.057 365.45 141.928 365.749 142.702C366.047 143.477 366.918 143.863 367.693 143.565Z" fill="#EDEAD9"/>
<path d="M372.455 151.759C372.28 151.437 372.187 151.078 372.184 150.712C372.181 150.347 372.268 149.986 372.436 149.661C372.605 149.337 372.851 149.059 373.152 148.852C373.454 148.644 373.801 148.514 374.165 148.473C374.107 148.341 374.044 148.211 373.975 148.083C373.368 146.962 372.372 146.103 371.174 145.669C369.977 145.234 368.661 145.254 367.477 145.725C366.294 146.196 365.324 147.085 364.752 148.224C364.18 149.362 364.046 150.671 364.375 151.902C364.412 151.879 364.449 151.857 364.487 151.837C364.949 151.585 365.486 151.505 366.001 151.611C366.517 151.716 366.979 152 367.305 152.413C367.632 152.826 367.802 153.34 367.786 153.866C367.771 154.392 367.569 154.896 367.219 155.288C368.445 155.856 369.844 155.924 371.12 155.478C372.396 155.031 373.447 154.105 374.052 152.897C373.717 152.841 373.398 152.71 373.122 152.513C372.845 152.316 372.617 152.058 372.455 151.759Z" fill="#EE9334"/>
<path d="M374.165 148.473C373.629 148.533 373.133 148.786 372.769 149.184C372.405 149.581 372.197 150.097 372.184 150.636C372.17 151.175 372.352 151.701 372.696 152.116C373.04 152.531 373.522 152.808 374.054 152.896C374.397 152.212 374.584 151.461 374.603 150.697C374.622 149.932 374.473 149.173 374.165 148.473Z" fill="#FFAABE"/>
<path d="M367.518 152.732C367.235 152.211 366.757 151.825 366.189 151.657C365.621 151.489 365.009 151.553 364.489 151.836C364.449 151.851 364.413 151.879 364.377 151.901C364.484 152.301 364.638 152.686 364.835 153.05C365.367 154.034 366.204 154.819 367.22 155.288C367.527 154.944 367.721 154.514 367.774 154.057C367.827 153.599 367.738 153.137 367.518 152.732Z" fill="#FFAABE"/>
<path d="M369.643 151.335C369.955 151.214 370.111 150.864 369.99 150.552C369.87 150.24 369.52 150.085 369.208 150.205C368.896 150.325 368.741 150.676 368.861 150.988C368.981 151.3 369.332 151.455 369.643 151.335Z" fill="#FD510C"/>
<path d="M370.425 153.19C370.389 153.204 370.352 153.218 370.315 153.233C369.378 153.526 368.643 152.959 368.562 152.893C368.535 152.874 368.513 152.849 368.496 152.821C368.48 152.792 368.469 152.761 368.465 152.728C368.461 152.695 368.463 152.662 368.472 152.631C368.481 152.599 368.496 152.569 368.517 152.544C368.538 152.518 368.564 152.497 368.593 152.482C368.622 152.466 368.654 152.457 368.686 152.454C368.719 152.452 368.752 152.456 368.784 152.466C368.815 152.477 368.844 152.493 368.868 152.515C368.893 152.535 369.468 152.987 370.169 152.768C370.905 152.537 371.104 151.78 371.105 151.769C371.123 151.709 371.163 151.657 371.218 151.626C371.272 151.594 371.337 151.585 371.398 151.601C371.459 151.616 371.512 151.654 371.546 151.708C371.579 151.761 371.591 151.825 371.578 151.887C371.566 151.924 371.328 152.842 370.425 153.19Z" fill="#BC4632"/>
<path d="M364.31 156.185L377.375 151.931C377.636 151.841 377.917 151.821 378.188 151.873C378.388 151.908 378.575 151.992 378.735 152.116C378.894 152.24 379.021 152.402 379.104 152.586C379.104 152.586 379.698 153.691 378.5 154.376C378.236 154.526 377.971 154.676 377.715 154.84L375.351 156.357L377.373 161.764L369.209 166.2L367.394 159.434L364.087 159.202C363.727 159.181 363.383 159.044 363.107 158.812C363.017 158.734 362.935 158.646 362.864 158.55C362.796 158.456 362.587 158.151 362.571 157.827C362.538 157.19 363.232 156.478 364.31 156.185Z" fill="#EE9334"/>
<path d="M367.03 155.195C366.962 155.519 366.983 155.857 367.093 156.17C367.202 156.483 367.395 156.76 367.65 156.972C367.906 157.183 368.214 157.321 368.542 157.37C368.87 157.419 369.206 157.378 369.512 157.25C369.607 157.312 370.531 157.897 371.618 157.489C372.655 157.099 372.983 156.127 373.022 156.008C373.368 155.975 373.698 155.843 373.97 155.626C374.242 155.41 374.446 155.118 374.555 154.788C374.665 154.458 374.675 154.103 374.586 153.766C374.497 153.43 374.312 153.127 374.053 152.894C374.053 152.894 371.742 157.287 367.03 155.195Z" fill="#EDEAD9"/>
<path d="M372.106 159.999C372.438 159.871 372.603 159.498 372.475 159.166C372.347 158.834 371.974 158.669 371.642 158.797C371.31 158.925 371.145 159.298 371.273 159.629C371.401 159.961 371.774 160.127 372.106 159.999Z" fill="#129277"/>
<path d="M373.144 162.808C373.476 162.68 373.642 162.307 373.514 161.975C373.386 161.643 373.013 161.478 372.681 161.606C372.349 161.734 372.184 162.107 372.312 162.439C372.44 162.771 372.812 162.936 373.144 162.808Z" fill="#129277"/>
<path d="M379.893 161.781L379.01 163.389C379.742 162.876 380.402 162.367 380.977 161.875L380.348 161.869C380.192 161.866 380.038 161.836 379.893 161.781Z" fill="#BC4632"/>
<path d="M367.143 164.592L366.608 164.247C366.305 164.052 365.938 163.986 365.587 164.063C365.235 164.14 364.929 164.353 364.735 164.655L364.011 165.777C363.915 165.927 363.848 166.094 363.817 166.269C363.785 166.445 363.787 166.624 363.825 166.798C363.863 166.973 363.934 167.138 364.035 167.284C364.137 167.43 364.266 167.556 364.416 167.652L364.801 167.9C364.726 167.128 365.614 165.925 367.143 164.592Z" fill="#EDEAD9"/>
<path d="M368.083 168.143L367.673 166.872C367.581 166.584 367.587 166.273 367.691 165.989C367.795 165.705 367.991 165.464 368.248 165.305L367.138 164.593C365.605 165.928 364.721 167.127 364.795 167.899L366.104 168.744C366.672 168.778 367.404 168.692 368.254 168.498C368.18 168.389 368.122 168.269 368.083 168.143Z" fill="#EDEAD9"/>
<path d="M370.931 164.396L368.547 165.165C368.442 165.199 368.342 165.246 368.248 165.305L368.713 165.604C368.862 165.701 368.992 165.826 369.093 165.972C369.194 166.119 369.266 166.284 369.303 166.458C369.341 166.632 369.344 166.812 369.312 166.987C369.28 167.162 369.214 167.329 369.117 167.479L368.498 168.439C369.754 168.131 371.249 167.599 372.853 166.875L372.493 166.678C372.178 166.504 371.945 166.213 371.844 165.867C371.744 165.522 371.784 165.151 371.957 164.836L372.106 164.564C371.936 164.449 371.742 164.373 371.538 164.344C371.335 164.315 371.127 164.333 370.931 164.396Z" fill="#EDEAD9"/>
<path d="M368.713 165.604L368.248 165.305C367.991 165.464 367.795 165.705 367.691 165.989C367.587 166.273 367.581 166.584 367.673 166.872L368.083 168.143C368.124 168.268 368.183 168.386 368.257 168.494L368.498 168.438L369.116 167.477C369.311 167.175 369.378 166.808 369.302 166.457C369.226 166.106 369.014 165.799 368.713 165.604Z" fill="#EDEAD9"/>
<path d="M376.872 164.068L375.866 163.515C375.634 163.388 375.444 163.195 375.32 162.96C375.196 162.725 375.144 162.46 375.169 162.195L375.004 162.105C374.689 161.932 374.317 161.891 373.972 161.992C373.627 162.092 373.336 162.326 373.163 162.641L372.106 164.564C372.358 164.733 372.545 164.982 372.638 165.27L373.047 166.541C373.071 166.614 373.087 166.688 373.098 166.764C373.857 166.415 374.638 166.024 375.428 165.594C375.789 165.398 376.142 165.199 376.486 164.998L376.711 164.589C376.8 164.428 376.854 164.251 376.872 164.068Z" fill="#EDEAD9"/>
<path d="M372.493 166.678L372.853 166.875L373.098 166.764C373.087 166.688 373.071 166.614 373.047 166.541L372.638 165.27C372.545 164.982 372.358 164.733 372.106 164.564L371.957 164.836C371.784 165.151 371.744 165.522 371.844 165.867C371.945 166.213 372.178 166.504 372.493 166.678Z" fill="#EDEAD9"/>
<path d="M375.866 163.515L376.872 164.068C376.898 163.804 376.845 163.538 376.722 163.303C376.598 163.069 376.408 162.875 376.175 162.748L375.169 162.195C375.144 162.459 375.196 162.725 375.32 162.96C375.444 163.195 375.634 163.388 375.866 163.515Z" fill="#EDEAD9"/>
<path d="M383.074 157.878C383.038 157.549 382.883 157.244 382.637 157.021C382.392 156.798 382.074 156.673 381.742 156.668L380.406 156.653C380.046 156.649 379.7 156.788 379.443 157.039C379.186 157.291 379.039 157.634 379.035 157.993L379.033 158.114C380.947 157.559 382.42 157.448 383.074 157.878Z" fill="#EDEAD9"/>
<path d="M383.074 157.878C382.42 157.448 380.947 157.559 379.033 158.114L379.02 159.295L379.55 159.585C379.706 159.671 379.843 159.786 379.955 159.925C380.066 160.064 380.149 160.223 380.199 160.394C380.249 160.565 380.265 160.744 380.245 160.921C380.226 161.098 380.172 161.27 380.086 161.426L379.893 161.781C380.039 161.836 380.194 161.866 380.35 161.868L380.979 161.874C381.943 161.048 382.665 160.27 383.072 159.61L383.091 158.036C383.088 157.983 383.082 157.93 383.074 157.878Z" fill="#EDEAD9"/>
<path d="M379.893 161.781L380.089 161.425C380.174 161.269 380.228 161.097 380.248 160.92C380.267 160.743 380.252 160.564 380.202 160.393C380.152 160.222 380.069 160.063 379.958 159.924C379.846 159.785 379.708 159.67 379.552 159.584L379.023 159.294L379.008 160.497C379.005 160.776 379.089 161.049 379.247 161.279C379.406 161.509 379.631 161.684 379.893 161.781Z" fill="#EDEAD9"/>
<path d="M379.005 160.498L379.02 159.295L378.379 158.939C378.064 158.766 377.693 158.725 377.347 158.825C377.002 158.926 376.711 159.159 376.537 159.474L375.331 161.67C375.243 161.831 375.189 162.009 375.171 162.192L376.177 162.744C376.409 162.872 376.599 163.065 376.723 163.299C376.847 163.534 376.899 163.8 376.874 164.064L377.039 164.154C377.213 164.25 377.406 164.306 377.605 164.318C378.096 164.008 378.563 163.698 379.007 163.387L379.893 161.781C379.631 161.685 379.405 161.51 379.246 161.28C379.087 161.05 379.003 160.777 379.005 160.498Z" fill="#EDEAD9"/>
<path d="M380.023 162.291C379.964 162.313 379.898 162.312 379.839 162.287C379.509 162.152 379.223 161.924 379.017 161.632C378.826 161.353 378.764 161.083 378.674 160.412C378.612 159.946 378.56 159.473 378.522 159.008C378.516 158.944 378.537 158.88 378.578 158.83C378.62 158.781 378.68 158.75 378.744 158.745C378.808 158.739 378.872 158.76 378.922 158.801C378.971 158.843 379.002 158.903 379.007 158.967C379.046 159.427 379.097 159.892 379.158 160.35C379.244 160.984 379.293 161.173 379.421 161.359C379.575 161.576 379.788 161.744 380.034 161.844C380.078 161.863 380.116 161.895 380.142 161.936C380.168 161.976 380.181 162.024 380.18 162.072C380.179 162.12 380.164 162.167 380.136 162.207C380.109 162.246 380.07 162.277 380.025 162.294L380.023 162.291Z" fill="#BC4632"/>
<path d="M377.176 164.488C377.137 164.504 377.093 164.508 377.051 164.501C377.009 164.495 376.969 164.477 376.936 164.45C376.903 164.423 376.877 164.388 376.862 164.348C376.847 164.308 376.842 164.265 376.849 164.223C376.869 164.087 376.868 163.949 376.845 163.814C376.817 163.68 376.772 163.551 376.71 163.429C376.57 163.165 376.04 162.747 375.206 162.454C375.175 162.444 375.147 162.427 375.124 162.406C375.1 162.384 375.08 162.359 375.066 162.33C375.053 162.301 375.044 162.27 375.043 162.238C375.041 162.206 375.045 162.174 375.056 162.144C375.067 162.113 375.083 162.086 375.104 162.062C375.126 162.038 375.151 162.018 375.18 162.005C375.209 161.991 375.24 161.983 375.272 161.981C375.304 161.979 375.336 161.984 375.367 161.994C376.213 162.294 376.911 162.766 377.14 163.203C377.226 163.368 377.288 163.545 377.324 163.728C377.358 163.916 377.362 164.108 377.334 164.297C377.328 164.34 377.309 164.38 377.281 164.414C377.254 164.448 377.217 164.473 377.176 164.488Z" fill="#BC4632"/>
<path d="M373.116 166.809L373.1 166.815C373.038 166.834 372.971 166.828 372.914 166.797C372.857 166.767 372.814 166.716 372.795 166.654L372.332 165.149C372.292 164.998 372.153 164.668 371.972 164.618C371.909 164.601 371.857 164.559 371.825 164.503C371.794 164.446 371.786 164.38 371.803 164.318C371.821 164.255 371.863 164.203 371.919 164.171C371.975 164.14 372.042 164.132 372.104 164.149C372.593 164.284 372.778 164.922 372.806 165.028L373.265 166.516C373.282 166.574 373.275 166.637 373.248 166.691C373.22 166.746 373.173 166.788 373.116 166.809Z" fill="#BC4632"/>
<path d="M368.175 168.479L368.16 168.485C368.098 168.504 368.032 168.498 367.974 168.469C367.917 168.439 367.874 168.387 367.855 168.326L367.352 166.716C367.042 165.755 367.664 165.087 368.037 164.867C368.092 164.835 368.158 164.826 368.22 164.843C368.282 164.859 368.334 164.899 368.367 164.954C368.4 165.009 368.409 165.075 368.394 165.137C368.379 165.199 368.339 165.252 368.285 165.286C368.252 165.306 367.55 165.742 367.818 166.569L368.32 168.18C368.338 168.239 368.333 168.303 368.306 168.358C368.28 168.414 368.233 168.457 368.175 168.479Z" fill="#BC4632"/>
<path d="M394.495 174.791C394.444 174.81 394.388 174.812 394.336 174.796C394.284 174.78 394.238 174.747 394.207 174.702L391.969 171.475C391.932 171.422 391.918 171.356 391.93 171.293C391.941 171.229 391.978 171.173 392.031 171.136C392.084 171.099 392.149 171.085 392.213 171.096C392.277 171.108 392.333 171.144 392.37 171.197L394.608 174.425C394.644 174.478 394.658 174.543 394.646 174.606C394.634 174.669 394.598 174.725 394.545 174.762C394.53 174.774 394.513 174.783 394.495 174.791Z" fill="#FFAABE"/>
<path d="M386.695 163.168C386.642 163.188 386.585 163.189 386.532 163.172C386.479 163.154 386.433 163.119 386.403 163.072L384.269 159.857C384.25 159.831 384.237 159.801 384.23 159.769C384.223 159.737 384.223 159.704 384.229 159.672C384.235 159.64 384.247 159.61 384.265 159.583C384.283 159.555 384.307 159.532 384.334 159.514C384.361 159.496 384.391 159.484 384.423 159.478C384.455 159.472 384.488 159.472 384.52 159.479C384.552 159.486 384.582 159.499 384.609 159.518C384.635 159.537 384.658 159.56 384.675 159.588L386.815 162.803C386.833 162.83 386.846 162.86 386.852 162.891C386.859 162.923 386.859 162.955 386.852 162.987C386.846 163.019 386.834 163.049 386.816 163.075C386.798 163.102 386.774 163.125 386.748 163.142C386.731 163.154 386.714 163.162 386.695 163.168Z" fill="#FFAABE"/>
<path d="M349.477 169.652L349.595 173.073L351.925 172.993L351.915 172.724C350.942 171.992 350.087 170.731 349.477 169.652Z" fill="#EDEAD9"/>
<path d="M349.276 163.802L349.467 169.286L349.479 169.651C350.089 170.73 350.943 171.992 351.917 172.723L351.798 169.26C351.77 168.463 351.741 167.666 351.712 166.868C350.738 166.138 349.885 164.879 349.276 163.802Z" fill="#FD510C"/>
<path d="M354.963 156.653L354.985 156.652C355.237 156.638 355.475 156.527 355.647 156.342C355.819 156.156 355.912 155.911 355.907 155.658C355.897 155.185 355.881 154.583 355.854 153.978C355.262 154.648 354.621 155.47 354.168 156.312C354.266 156.426 354.388 156.516 354.526 156.575C354.664 156.634 354.813 156.661 354.963 156.653Z" fill="#EDEAD9"/>
<path d="M348.951 153.052C348.944 153.213 348.94 153.375 348.939 153.538C348.934 155.381 349.014 157.232 349.092 159.081C349.615 160.118 350.488 161.632 351.538 162.617C351.507 161.858 351.479 161.1 351.452 160.341C351.443 160.097 351.431 159.791 351.418 159.396C351.363 157.792 351.328 156.807 351.314 156.23C350.358 155.407 349.527 154.102 348.951 153.052Z" fill="#FD510C"/>
<path d="M355.594 151.447C355.489 151.087 355.319 150.75 355.094 150.45C353.791 148.733 351.192 148.712 349.872 150.264C350.355 151.018 350.937 151.781 351.576 152.331C351.658 152.108 351.814 151.921 352.018 151.799C352.446 151.555 353.061 151.634 353.42 151.915C353.76 152.18 353.852 152.604 353.905 154.186C353.919 154.599 353.931 155.103 353.932 155.681C353.933 155.913 354.016 156.136 354.166 156.312C354.619 155.47 355.26 154.649 355.853 153.978C355.849 153.898 355.846 153.818 355.842 153.739C355.808 152.954 355.819 152.17 355.594 151.447Z" fill="#FD510C"/>
<path d="M349.872 150.264C349.686 150.481 349.532 150.722 349.411 150.981C349.11 151.625 348.994 152.336 348.957 153.052C349.528 154.102 350.359 155.406 351.322 156.229C351.319 156.057 351.315 155.918 351.316 155.814C351.313 154.075 351.312 152.965 351.576 152.329C350.937 151.781 350.361 151.018 349.872 150.264Z" fill="#EDEAD9"/>
<path d="M349.099 159.08C349.136 159.901 349.17 160.716 349.199 161.532L349.275 163.8C349.885 164.877 350.737 166.136 351.711 166.867C351.657 165.449 351.603 164.031 351.547 162.614C350.496 161.631 349.622 160.117 349.099 159.08Z" fill="#EDEAD9"/>
<path d="M355.744 198.673L341.324 203.049C340.771 203.216 340.19 203.274 339.614 203.217C339.039 203.161 338.481 202.991 337.971 202.719C337.461 202.446 337.01 202.076 336.643 201.629C336.276 201.182 336.001 200.668 335.834 200.114L329.122 177.992L351.966 171.063L358.681 193.182C358.849 193.735 358.906 194.317 358.849 194.892C358.793 195.467 358.623 196.026 358.35 196.536C358.077 197.046 357.707 197.497 357.26 197.864C356.812 198.23 356.297 198.505 355.744 198.673Z" fill="#129277"/>
<path d="M327.397 180.478C325.527 181.045 323.867 182.153 322.627 183.663C321.387 185.173 320.622 187.017 320.43 188.962C320.239 190.907 320.628 192.864 321.549 194.588C322.47 196.311 323.881 197.723 325.605 198.644C327.328 199.565 329.286 199.954 331.23 199.762C333.175 199.571 335.019 198.807 336.529 197.567C338.039 196.327 339.148 194.667 339.715 192.797C340.281 190.927 340.281 188.93 339.713 187.061C338.952 184.555 337.227 182.455 334.917 181.22C332.608 179.986 329.903 179.719 327.397 180.478ZM332.05 195.814C330.885 196.167 329.642 196.167 328.478 195.814C327.313 195.461 326.28 194.771 325.508 193.83C324.735 192.89 324.26 191.741 324.14 190.53C324.021 189.319 324.263 188.1 324.837 187.027C325.41 185.954 326.289 185.075 327.362 184.501C328.435 183.927 329.654 183.684 330.865 183.804C332.076 183.923 333.225 184.398 334.166 185.17C335.106 185.942 335.797 186.976 336.15 188.14C336.385 188.913 336.465 189.725 336.386 190.529C336.307 191.333 336.071 192.114 335.69 192.826C335.309 193.539 334.791 194.17 334.167 194.682C333.542 195.195 332.823 195.579 332.05 195.814Z" fill="#129277"/>
<path d="M347.587 167.477C347.723 166.86 347.698 166.217 347.513 165.612L347.4 165.238C347.114 164.3 346.468 163.514 345.603 163.052C344.739 162.59 343.726 162.489 342.787 162.773L342.404 162.888C342.339 162.545 342.2 162.221 341.997 161.937C341.192 160.828 339.788 161.041 337.557 159.816C336.899 159.455 336.278 159.03 335.702 158.547C335.571 159.223 335.358 159.88 335.068 160.505C333.96 162.882 332.314 163.456 332.251 164.909C332.24 165.254 332.312 165.597 332.461 165.908L332.148 166.007C331.211 166.293 330.425 166.938 329.963 167.801C329.501 168.665 329.399 169.676 329.681 170.614L329.795 170.988C329.977 171.594 330.313 172.142 330.769 172.579C329.97 172.96 329.333 173.615 328.974 174.425C328.616 175.235 328.56 176.147 328.816 176.994L328.93 177.368C329.216 178.306 329.862 179.092 330.727 179.554C331.592 180.017 332.604 180.117 333.543 179.834L349.309 175.05C350.247 174.764 351.033 174.118 351.495 173.254C351.957 172.389 352.057 171.376 351.774 170.438L351.66 170.064C351.404 169.216 350.851 168.489 350.104 168.014C349.356 167.54 348.463 167.349 347.587 167.477Z" fill="#EDEAD9"/>
<path d="M332.31 167.957L332.299 168.005C332.24 168.259 332.398 168.513 332.652 168.573L334.274 168.951C334.528 169.01 334.782 168.852 334.842 168.598L334.853 168.549C334.912 168.295 334.754 168.041 334.5 167.982L332.878 167.604C332.624 167.544 332.369 167.702 332.31 167.957Z" fill="#FFAABE"/>
<path d="M343.004 165.45L342.907 167.113C342.892 167.374 343.091 167.597 343.351 167.613L343.401 167.615C343.662 167.631 343.885 167.432 343.9 167.171L343.997 165.508C344.013 165.248 343.814 165.024 343.553 165.009L343.504 165.006C343.243 164.991 343.019 165.19 343.004 165.45Z" fill="#FD510C"/>
<path d="M333.245 174.425L333.234 174.473C333.175 174.728 333.335 174.982 333.589 175.04L335.215 175.413C335.47 175.472 335.723 175.313 335.782 175.058L335.793 175.009C335.851 174.755 335.692 174.501 335.438 174.442L333.812 174.069C333.557 174.011 333.304 174.17 333.245 174.425Z" fill="#EE9334"/>
<path d="M338.236 167.531L337.627 169.081C337.532 169.324 337.652 169.599 337.895 169.694L337.941 169.712C338.184 169.808 338.458 169.688 338.554 169.445L339.162 167.895C339.258 167.652 339.138 167.377 338.895 167.282L338.849 167.264C338.606 167.168 338.332 167.288 338.236 167.531Z" fill="#EE9334"/>
<path d="M345.648 173.611L345.694 173.629C345.937 173.724 346.211 173.605 346.307 173.362L346.915 171.812C347.011 171.569 346.891 171.294 346.648 171.199L346.602 171.181C346.359 171.085 346.085 171.205 345.989 171.448L345.38 172.998C345.285 173.241 345.405 173.515 345.648 173.611Z" fill="#FFAABE"/>
<path d="M340.484 170.585L340.458 170.627C340.323 170.85 340.393 171.141 340.616 171.277L342.039 172.143C342.262 172.279 342.553 172.208 342.689 171.985L342.714 171.942C342.85 171.719 342.779 171.429 342.556 171.293L341.134 170.427C340.911 170.291 340.62 170.362 340.484 170.585Z" fill="#129277"/>
<path d="M337.966 175.842L337.99 175.886C338.112 176.116 338.398 176.204 338.629 176.082L340.1 175.302C340.331 175.18 340.419 174.894 340.297 174.663L340.273 174.619C340.151 174.389 339.865 174.301 339.634 174.423L338.163 175.203C337.932 175.325 337.844 175.611 337.966 175.842Z" fill="#FFAABE"/>
<path d="M345.272 184.051C344.636 183.939 344.252 183.454 344.135 183.291C344.096 183.539 344.005 183.775 343.87 183.986C343.734 184.197 343.556 184.377 343.346 184.515C343.137 184.653 342.901 184.746 342.653 184.787C342.406 184.829 342.152 184.818 341.909 184.756C341.916 184.773 341.923 184.79 341.925 184.809L343.251 189.181L348.141 187.697L346.87 183.507C346.409 183.941 345.82 184.148 345.272 184.051Z" fill="#FF968E"/>
<path d="M343.026 179.417L342.438 182.685L345.334 181.801L343.026 179.417Z" fill="#FD510C"/>
<path d="M343.236 179.964C343.528 179.851 343.674 179.523 343.561 179.23C343.448 178.938 343.12 178.793 342.828 178.905C342.536 179.018 342.39 179.346 342.503 179.639C342.615 179.931 342.944 180.076 343.236 179.964Z" fill="#EDEAD9"/>
<path d="M349.252 185.441C348.614 185.635 348.07 186.056 347.724 186.626C347.38 186.243 346.935 185.965 346.44 185.825C345.945 185.685 345.42 185.688 344.927 185.835C344.433 185.981 343.992 186.265 343.653 186.652C343.315 187.04 343.093 187.516 343.014 188.024C342.638 187.81 342.215 187.688 341.782 187.671C341.349 187.653 340.918 187.739 340.525 187.921C340.132 188.104 339.788 188.378 339.523 188.721C339.257 189.063 339.077 189.464 338.998 189.89C338.919 190.316 338.943 190.755 339.069 191.17C339.194 191.585 339.416 191.964 339.718 192.275C340.019 192.587 340.391 192.822 340.802 192.96C341.212 193.099 341.65 193.137 342.079 193.072C342.094 193.142 342.112 193.212 342.133 193.282C342.298 193.827 342.631 194.307 343.084 194.653C343.537 194.999 344.087 195.194 344.657 195.21C345.227 195.226 345.787 195.062 346.259 194.742C346.731 194.422 347.09 193.961 347.285 193.426C347.745 193.762 348.299 193.946 348.869 193.95C349.439 193.955 349.996 193.78 350.461 193.451C350.926 193.121 351.275 192.654 351.46 192.115C351.645 191.575 351.655 190.992 351.49 190.446C351.479 190.419 351.469 190.392 351.458 190.366C352.021 190.02 352.439 189.481 352.634 188.85C352.828 188.218 352.786 187.538 352.516 186.935C352.245 186.333 351.764 185.849 351.163 185.575C350.561 185.302 349.881 185.256 349.249 185.448L349.252 185.441Z" fill="#EDEAD9"/>
<path d="M343.628 181.622C342.989 181.816 342.452 182.253 342.131 182.839C341.811 183.424 341.732 184.112 341.911 184.755C342.154 184.817 342.408 184.828 342.655 184.787C342.902 184.745 343.138 184.653 343.348 184.515C343.557 184.377 343.736 184.197 343.871 183.986C344.007 183.775 344.097 183.538 344.136 183.29C344.254 183.454 344.638 183.938 345.274 184.051C345.822 184.147 346.411 183.94 346.872 183.506L346.817 183.325C346.719 183.004 346.559 182.705 346.346 182.445C346.133 182.186 345.871 181.971 345.575 181.813C345.279 181.654 344.955 181.556 344.62 181.523C344.286 181.491 343.949 181.524 343.628 181.622Z" fill="#EDEAD9"/>
<path d="M346.312 189.889C346.227 189.922 346.139 189.948 346.05 189.967C345.182 190.155 344.537 189.63 344.416 189.523C344.392 189.502 344.373 189.476 344.359 189.448C344.345 189.419 344.337 189.388 344.335 189.356C344.333 189.324 344.337 189.292 344.348 189.261C344.358 189.231 344.374 189.203 344.396 189.179C344.417 189.155 344.442 189.136 344.471 189.122C344.5 189.108 344.531 189.1 344.563 189.098C344.595 189.096 344.627 189.1 344.657 189.111C344.688 189.121 344.716 189.137 344.739 189.159C344.795 189.207 345.296 189.632 345.947 189.491C346.205 189.43 346.441 189.297 346.626 189.107C346.812 188.917 346.94 188.679 346.996 188.419C347.01 188.356 347.049 188.301 347.104 188.267C347.158 188.232 347.224 188.221 347.287 188.236C347.35 188.25 347.405 188.289 347.44 188.343C347.474 188.398 347.485 188.464 347.471 188.527C347.403 188.832 347.263 189.115 347.061 189.352C346.859 189.589 346.602 189.774 346.312 189.889Z" fill="#3A140F"/>
<path d="M351.434 178.574L350.29 179.141C350.284 179.145 350.278 179.149 350.274 179.155C350.27 179.161 350.268 179.167 350.267 179.174C350.266 179.181 350.266 179.188 350.269 179.195C350.271 179.201 350.275 179.207 350.28 179.212L350.842 179.747C350.849 179.753 350.853 179.762 350.855 179.771C350.856 179.78 350.855 179.79 350.85 179.799C350.846 179.807 350.839 179.814 350.83 179.818C350.822 179.822 350.812 179.823 350.803 179.821L350.049 179.648C350.042 179.647 350.035 179.647 350.028 179.649C350.021 179.651 350.015 179.654 350.01 179.659C350.005 179.664 350.001 179.67 349.999 179.677C349.996 179.683 349.996 179.69 349.997 179.697L350.213 181.136C350.214 181.146 350.211 181.156 350.206 181.165C350.2 181.173 350.192 181.179 350.182 181.182C350.172 181.185 350.162 181.184 350.152 181.18C350.143 181.176 350.135 181.169 350.131 181.16L349.512 179.845C349.509 179.838 349.504 179.833 349.499 179.828C349.493 179.824 349.487 179.821 349.48 179.82C349.473 179.818 349.465 179.819 349.459 179.821C349.452 179.823 349.446 179.827 349.441 179.832L348.91 180.395C348.903 180.402 348.895 180.407 348.885 180.408C348.876 180.409 348.866 180.408 348.858 180.403C348.85 180.399 348.843 180.391 348.839 180.383C348.835 180.374 348.834 180.364 348.836 180.355L349.006 179.599C349.008 179.592 349.008 179.585 349.006 179.578C349.004 179.571 349.001 179.565 348.996 179.56C348.992 179.555 348.986 179.551 348.979 179.548C348.973 179.546 348.966 179.545 348.959 179.546L347.619 179.732C347.609 179.733 347.599 179.73 347.591 179.725C347.582 179.719 347.576 179.711 347.573 179.701C347.57 179.691 347.57 179.681 347.574 179.672C347.578 179.662 347.585 179.654 347.594 179.65L348.811 179.06C348.817 179.057 348.823 179.052 348.827 179.047C348.831 179.041 348.833 179.034 348.834 179.027C348.835 179.02 348.835 179.013 348.832 179.007C348.83 179 348.826 178.994 348.821 178.989L348.26 178.455C348.253 178.448 348.248 178.44 348.246 178.43C348.244 178.42 348.246 178.411 348.25 178.402C348.255 178.393 348.262 178.387 348.271 178.383C348.28 178.379 348.29 178.378 348.299 178.381L349.052 178.553C349.059 178.555 349.066 178.555 349.073 178.553C349.08 178.551 349.087 178.547 349.092 178.543C349.097 178.538 349.101 178.532 349.103 178.525C349.106 178.518 349.106 178.511 349.105 178.504L348.874 177.018C348.87 177.007 348.871 176.995 348.877 176.985C348.882 176.975 348.891 176.967 348.902 176.964C348.913 176.961 348.925 176.962 348.935 176.967C348.945 176.972 348.952 176.982 348.956 176.992L349.587 178.358C349.59 178.364 349.594 178.37 349.6 178.374C349.605 178.379 349.612 178.382 349.619 178.383C349.626 178.384 349.633 178.384 349.64 178.381C349.646 178.379 349.652 178.375 349.657 178.37L350.188 177.808C350.194 177.801 350.203 177.796 350.212 177.794C350.222 177.793 350.232 177.794 350.24 177.799C350.249 177.803 350.256 177.811 350.259 177.82C350.263 177.829 350.264 177.839 350.261 177.848L350.092 178.605C350.09 178.612 350.09 178.619 350.092 178.626C350.093 178.632 350.097 178.639 350.101 178.644C350.106 178.649 350.112 178.653 350.118 178.655C350.125 178.658 350.132 178.659 350.139 178.658L351.406 178.493C351.416 178.492 351.426 178.494 351.435 178.499C351.443 178.504 351.45 178.512 351.453 178.522C351.456 178.531 351.456 178.542 351.453 178.551C351.449 178.561 351.443 178.569 351.434 178.574Z" fill="#EE9334"/>
<path d="M341.101 194.642L339.957 195.21C339.951 195.213 339.945 195.218 339.941 195.223C339.937 195.229 339.934 195.235 339.933 195.242C339.932 195.249 339.932 195.256 339.934 195.263C339.937 195.269 339.94 195.275 339.945 195.28L340.508 195.816C340.515 195.822 340.52 195.831 340.522 195.84C340.524 195.85 340.522 195.86 340.517 195.868C340.513 195.877 340.505 195.883 340.497 195.887C340.488 195.891 340.478 195.892 340.468 195.889L339.716 195.717C339.709 195.715 339.701 195.715 339.694 195.717C339.687 195.719 339.681 195.723 339.676 195.728C339.671 195.732 339.667 195.739 339.664 195.745C339.662 195.752 339.661 195.759 339.663 195.766L339.88 197.205C339.881 197.215 339.878 197.225 339.872 197.233C339.867 197.242 339.858 197.248 339.849 197.251C339.839 197.254 339.828 197.253 339.819 197.249C339.81 197.245 339.802 197.238 339.797 197.229L339.178 195.913C339.175 195.906 339.17 195.901 339.165 195.896C339.159 195.892 339.152 195.889 339.145 195.888C339.138 195.887 339.131 195.888 339.124 195.89C339.118 195.892 339.112 195.896 339.107 195.901L338.576 196.463C338.57 196.47 338.561 196.475 338.552 196.477C338.542 196.479 338.532 196.477 338.524 196.473C338.515 196.468 338.509 196.461 338.505 196.452C338.501 196.443 338.5 196.433 338.503 196.424L338.673 195.668C338.674 195.661 338.674 195.654 338.672 195.647C338.67 195.64 338.667 195.634 338.662 195.629C338.657 195.623 338.651 195.619 338.645 195.617C338.638 195.614 338.631 195.614 338.624 195.614L337.285 195.801C337.275 195.802 337.265 195.799 337.256 195.793C337.248 195.788 337.242 195.779 337.239 195.769C337.236 195.76 337.236 195.749 337.24 195.74C337.244 195.731 337.251 195.723 337.26 195.718L338.477 195.129C338.483 195.126 338.489 195.121 338.493 195.116C338.497 195.11 338.5 195.103 338.501 195.096C338.502 195.089 338.501 195.082 338.499 195.076C338.497 195.069 338.493 195.063 338.488 195.058L337.926 194.524C337.918 194.517 337.913 194.509 337.912 194.499C337.91 194.489 337.912 194.48 337.916 194.471C337.921 194.462 337.928 194.456 337.937 194.452C337.946 194.448 337.956 194.447 337.965 194.45L338.719 194.622C338.726 194.623 338.733 194.623 338.74 194.621C338.746 194.619 338.753 194.616 338.758 194.611C338.763 194.606 338.767 194.6 338.769 194.593C338.771 194.587 338.772 194.58 338.771 194.573L338.54 193.086C338.539 193.075 338.542 193.065 338.547 193.057C338.553 193.049 338.561 193.042 338.571 193.039C338.581 193.037 338.591 193.037 338.601 193.041C338.61 193.045 338.618 193.052 338.623 193.061L339.253 194.426C339.256 194.433 339.261 194.439 339.267 194.443C339.272 194.447 339.279 194.45 339.286 194.451C339.293 194.452 339.3 194.452 339.307 194.449C339.314 194.447 339.32 194.443 339.325 194.438L339.855 193.876C339.862 193.869 339.87 193.865 339.88 193.863C339.889 193.862 339.899 193.864 339.907 193.868C339.915 193.873 339.922 193.88 339.926 193.889C339.93 193.897 339.931 193.907 339.929 193.916L339.758 194.674C339.757 194.68 339.757 194.687 339.759 194.694C339.761 194.701 339.764 194.707 339.769 194.712C339.774 194.717 339.78 194.721 339.786 194.724C339.793 194.726 339.8 194.727 339.807 194.726L341.073 194.561C341.083 194.56 341.093 194.562 341.101 194.568C341.11 194.573 341.116 194.581 341.12 194.591C341.123 194.6 341.123 194.61 341.12 194.62C341.116 194.629 341.11 194.637 341.101 194.642Z" fill="#EE9334"/>
<path d="M356.576 197.544C356.542 197.557 356.506 197.563 356.47 197.56C350.709 197.111 344.986 198.819 340.412 202.351C340.361 202.391 340.296 202.408 340.232 202.399C340.168 202.391 340.11 202.357 340.071 202.306C340.031 202.255 340.014 202.19 340.023 202.126C340.031 202.062 340.065 202.003 340.116 201.964C344.785 198.357 350.627 196.614 356.509 197.074C356.564 197.078 356.616 197.101 356.656 197.139C356.696 197.177 356.722 197.227 356.73 197.282C356.738 197.336 356.727 197.392 356.7 197.439C356.672 197.487 356.629 197.524 356.578 197.544L356.576 197.544Z" fill="#FFAABE"/>
<path d="M330.947 183.948L330.931 183.954C330.9 183.964 330.868 183.967 330.836 183.964C330.804 183.961 330.773 183.952 330.745 183.937C330.717 183.921 330.692 183.901 330.671 183.876C330.651 183.851 330.636 183.823 330.627 183.792L329.52 180.129C329.51 180.099 329.507 180.067 329.51 180.035C329.513 180.003 329.523 179.972 329.538 179.943C329.553 179.915 329.574 179.89 329.598 179.87C329.623 179.849 329.652 179.834 329.683 179.825C329.713 179.815 329.745 179.812 329.777 179.815C329.809 179.819 329.84 179.828 329.869 179.843C329.897 179.858 329.922 179.879 329.942 179.904C329.963 179.928 329.978 179.957 329.987 179.988L331.092 183.649C331.11 183.708 331.106 183.772 331.079 183.827C331.052 183.883 331.005 183.926 330.947 183.948Z" fill="#FFAABE"/>
<path d="M335.38 198.559L335.364 198.566C335.333 198.575 335.301 198.578 335.269 198.575C335.237 198.572 335.206 198.562 335.178 198.547C335.15 198.532 335.125 198.512 335.105 198.487C335.084 198.462 335.069 198.434 335.06 198.403L333.949 194.742C333.94 194.711 333.936 194.679 333.94 194.647C333.943 194.615 333.952 194.584 333.967 194.556C333.982 194.528 334.003 194.503 334.028 194.482C334.053 194.462 334.081 194.447 334.112 194.437C334.143 194.428 334.175 194.425 334.207 194.428C334.239 194.431 334.27 194.441 334.298 194.456C334.326 194.471 334.351 194.492 334.372 194.516C334.392 194.541 334.407 194.57 334.417 194.6L335.527 198.261C335.545 198.32 335.539 198.384 335.512 198.439C335.485 198.494 335.438 198.537 335.38 198.559Z" fill="#FFAABE"/>
</g>
<rect x="298.646" y="146.35" width="96.4573" height="96.4573" rx="48.2286" transform="rotate(-21.087 298.646 146.35)" stroke="black"/>
<defs>
<clipPath id="clip0_930_198">
<rect x="298" y="146.064" width="97.4573" height="97.4573" rx="48.7286" transform="rotate(-21.087 298 146.064)" fill="white"/>
</clipPath>
</defs>
</svg>
