<svg width="617" height="744" viewBox="0 0 617 744" fill="none" xmlns="http://www.w3.org/2000/svg">
<circle cx="360.5" cy="225.5" r="225.5" fill="#FD510C"/>
<g clip-path="url(#clip0_8_813)">
<path d="M348.21 230.619L275.539 241.214L280.59 275.86C280.704 276.647 280.972 277.404 281.379 278.088C281.786 278.772 282.323 279.369 282.961 279.844C283.599 280.32 284.324 280.666 285.095 280.861C285.866 281.056 286.668 281.098 287.455 280.983L361.861 270.135C363.451 269.904 364.884 269.049 365.845 267.761C366.805 266.472 367.215 264.855 366.983 263.264L361.932 228.619L348.21 230.619Z" fill="#FFAABE"/>
<path d="M354.008 216.278L279.603 227.125C278.014 227.357 276.582 228.21 275.623 229.498C274.663 230.785 274.254 232.401 274.485 233.99L275.539 241.214L361.932 228.619L360.879 221.395C360.764 220.607 360.495 219.851 360.088 219.167C359.68 218.484 359.142 217.888 358.504 217.412C357.866 216.937 357.141 216.592 356.369 216.398C355.598 216.203 354.796 216.162 354.008 216.278Z" fill="#EDEAD9"/>
<path d="M295.118 279.355C294.701 279.416 294.277 279.308 293.939 279.056C293.602 278.805 293.378 278.429 293.317 278.012L288.63 245.864C288.569 245.447 288.677 245.023 288.928 244.686C289.18 244.348 289.556 244.124 289.973 244.063C290.39 244.002 290.814 244.11 291.151 244.362C291.489 244.613 291.713 244.989 291.774 245.406L296.461 277.559C296.521 277.975 296.412 278.398 296.161 278.735C295.909 279.071 295.534 279.294 295.118 279.355Z" fill="#FD510C"/>
<path d="M306.907 277.636C306.7 277.667 306.49 277.657 306.287 277.606C306.085 277.555 305.894 277.464 305.727 277.339C305.56 277.215 305.419 277.058 305.312 276.878C305.205 276.699 305.135 276.5 305.106 276.293L300.419 244.145C300.358 243.729 300.466 243.305 300.717 242.967C300.969 242.629 301.345 242.405 301.762 242.344C302.179 242.284 302.603 242.391 302.94 242.643C303.278 242.895 303.502 243.27 303.563 243.687L308.25 275.84C308.31 276.257 308.202 276.679 307.95 277.016C307.698 277.352 307.323 277.575 306.907 277.636Z" fill="#FD510C"/>
<path d="M318.68 275.92C318.473 275.95 318.263 275.94 318.06 275.889C317.858 275.838 317.667 275.748 317.5 275.623C317.332 275.498 317.191 275.342 317.085 275.162C316.978 274.983 316.908 274.784 316.879 274.577L312.192 242.429C312.131 242.012 312.238 241.588 312.49 241.251C312.742 240.913 313.118 240.689 313.534 240.628C313.951 240.567 314.375 240.675 314.713 240.926C315.051 241.178 315.275 241.554 315.335 241.971L320.023 274.124C320.082 274.54 319.974 274.963 319.722 275.299C319.471 275.636 319.096 275.859 318.68 275.92Z" fill="#FD510C"/>
<path d="M330.485 274.199C330.278 274.229 330.068 274.219 329.865 274.168C329.663 274.117 329.472 274.027 329.305 273.902C329.138 273.777 328.996 273.621 328.89 273.441C328.783 273.261 328.713 273.063 328.684 272.856L323.997 240.708C323.936 240.291 324.043 239.867 324.295 239.529C324.547 239.192 324.923 238.968 325.34 238.907C325.757 238.846 326.18 238.954 326.518 239.205C326.856 239.457 327.08 239.833 327.141 240.25L331.828 272.403C331.888 272.819 331.779 273.242 331.528 273.578C331.276 273.915 330.901 274.138 330.485 274.199Z" fill="#FD510C"/>
<path d="M342.274 272.48C342.067 272.511 341.857 272.5 341.654 272.449C341.452 272.398 341.261 272.308 341.094 272.183C340.927 272.058 340.785 271.902 340.679 271.722C340.572 271.543 340.502 271.344 340.473 271.137L335.786 238.989C335.725 238.572 335.832 238.148 336.084 237.811C336.336 237.473 336.712 237.249 337.129 237.188C337.545 237.127 337.969 237.235 338.307 237.487C338.645 237.738 338.869 238.114 338.93 238.531L343.617 270.684C343.677 271.1 343.568 271.523 343.317 271.859C343.065 272.196 342.69 272.419 342.274 272.48Z" fill="#FD510C"/>
<path d="M354.063 270.761C353.856 270.792 353.645 270.782 353.442 270.731C353.24 270.68 353.049 270.59 352.881 270.465C352.713 270.34 352.572 270.184 352.464 270.004C352.357 269.825 352.287 269.626 352.256 269.419L347.569 237.271C347.534 236.866 347.655 236.463 347.908 236.144C348.16 235.825 348.525 235.615 348.927 235.557C349.33 235.498 349.739 235.595 350.072 235.829C350.405 236.062 350.637 236.414 350.719 236.812L355.406 268.965C355.466 269.381 355.357 269.804 355.106 270.141C354.854 270.477 354.479 270.7 354.063 270.761Z" fill="#FD510C"/>
<path d="M361.813 228.636L275.641 241.199C275.616 242.441 275.889 243.67 276.438 244.783C277.048 246.048 277.984 247.128 279.15 247.912C280.315 248.695 281.669 249.154 283.071 249.241C284.472 249.327 285.872 249.039 287.125 248.405C288.379 247.772 289.441 246.815 290.202 245.635C291.059 246.368 292.064 246.909 293.148 247.222C294.232 247.535 295.37 247.613 296.486 247.45C297.603 247.288 298.671 246.888 299.621 246.279C300.57 245.669 301.378 244.864 301.991 243.916C302.848 244.647 303.851 245.187 304.933 245.499C306.015 245.812 307.152 245.889 308.266 245.726C309.381 245.564 310.448 245.165 311.396 244.557C312.344 243.949 313.151 243.145 313.764 242.2C314.621 242.933 315.626 243.474 316.71 243.787C317.793 244.1 318.932 244.178 320.048 244.015C321.164 243.853 322.233 243.453 323.183 242.843C324.132 242.234 324.94 241.429 325.553 240.481C326.41 241.214 327.415 241.755 328.499 242.068C329.582 242.382 330.721 242.459 331.837 242.297C332.953 242.134 334.022 241.734 334.971 241.125C335.921 240.515 336.729 239.71 337.342 238.762C338.199 239.495 339.203 240.037 340.286 240.35C341.369 240.663 342.507 240.741 343.623 240.578C344.739 240.415 345.808 240.016 346.756 239.406C347.705 238.797 348.513 237.992 349.125 237.044C350.434 238.158 352.069 238.815 353.784 238.918C355.499 239.021 357.201 238.563 358.633 237.614C360.065 236.665 361.15 235.276 361.723 233.657C362.297 232.037 362.329 230.275 361.813 228.636Z" fill="#EDEAD9"/>
<path d="M312.025 260.441C306.883 258.167 301.985 255.379 296.77 253.281C294.055 252.193 289.496 251.543 289.74 255.818C289.785 256.913 290.13 257.976 290.738 258.888C292.053 260.896 299.529 270.169 310.074 282.578C315.466 282.008 320.904 281.461 326.388 280.937C330.215 280.569 334.023 280.219 337.812 279.887C333.164 273.456 329.028 266.692 324.125 260.48C322.308 258.161 315.561 248.194 311.749 250.707C310.491 251.539 309.98 253.653 310.152 255.063C310.292 256.098 310.985 259.983 312.025 260.441Z" fill="#BC4632"/>
<path d="M326.443 191.61C326.136 190.845 325.623 190.179 324.96 189.687C324.297 189.196 323.511 188.898 322.689 188.826C322.724 188.478 322.717 188.126 322.668 187.779C322.584 187.203 322.388 186.65 322.09 186.15C321.792 185.65 321.398 185.214 320.931 184.866C320.464 184.519 319.934 184.267 319.369 184.124C318.805 183.982 318.218 183.952 317.642 184.037C317.279 184.091 316.924 184.19 316.586 184.334C316.163 183.435 315.449 182.704 314.56 182.259C313.671 181.815 312.658 181.682 311.684 181.883C310.711 182.084 309.833 182.607 309.193 183.367C308.552 184.127 308.186 185.081 308.154 186.075C307.992 186.081 307.831 186.095 307.671 186.118C306.508 186.288 305.461 186.914 304.76 187.856C304.058 188.799 303.759 189.981 303.929 191.144C303.936 191.197 303.944 191.251 303.952 191.305C303.96 191.359 303.203 191.788 303.149 191.829C302.463 192.287 301.928 192.939 301.613 193.702C301.281 194.558 301.219 195.495 301.438 196.387C301.656 197.279 302.144 198.081 302.835 198.686C303.481 199.371 304.282 199.889 305.171 200.198C306.06 200.507 307.011 200.596 307.942 200.459L321.647 198.461C322.883 198.282 324.029 197.712 324.918 196.836C325.278 196.535 325.612 196.205 325.917 195.849C326.207 195.458 326.429 195.023 326.576 194.56C326.877 193.591 326.83 192.548 326.443 191.61Z" fill="#FFAABE"/>
<path d="M333.085 202.814L298.213 207.898L299.352 215.709L334.223 210.624L333.085 202.814Z" fill="#FD510C"/>
<path d="M334.223 210.624L299.352 215.709L300.627 224.456L335.499 219.372L334.223 210.624Z" fill="#129277"/>
<path d="M332.307 197.479C332.241 197.031 332.088 196.6 331.857 196.211C331.625 195.822 331.318 195.482 330.955 195.211C330.592 194.941 330.179 194.744 329.74 194.633C329.301 194.522 328.845 194.498 328.396 194.564L300.35 198.653C299.902 198.718 299.471 198.871 299.082 199.103C298.693 199.335 298.354 199.641 298.083 200.004C297.812 200.367 297.616 200.78 297.505 201.219C297.393 201.658 297.37 202.115 297.435 202.563L298.213 207.898L333.085 202.814L332.307 197.479Z" fill="#129277"/>
<path d="M316.847 195.022C316.039 195.119 315.221 194.955 314.514 194.554C313.634 194.847 312.685 194.866 311.794 194.608C310.903 194.35 310.111 193.827 309.524 193.109C308.937 192.391 308.582 191.511 308.507 190.587C308.431 189.662 308.638 188.736 309.101 187.932C309.195 187.738 309.329 187.564 309.492 187.423C309.656 187.282 309.847 187.175 310.053 187.11C310.259 187.045 310.477 187.022 310.692 187.044C310.907 187.065 311.116 187.13 311.305 187.235C311.494 187.339 311.66 187.481 311.793 187.652C311.926 187.823 312.022 188.019 312.077 188.228C312.131 188.438 312.142 188.656 312.11 188.87C312.077 189.083 312.001 189.288 311.887 189.472C311.718 189.76 311.652 190.098 311.7 190.428C311.748 190.759 311.908 191.064 312.152 191.291C312.387 191.476 312.672 191.583 312.969 191.6C313.267 191.617 313.562 191.541 313.815 191.384L314.826 190.775L315.728 191.573C315.91 191.747 316.144 191.856 316.395 191.882C316.517 191.849 316.627 191.781 316.711 191.685C316.795 191.59 316.849 191.472 316.866 191.346C316.927 190.926 317.153 190.548 317.493 190.294C317.834 190.04 318.261 189.932 318.681 189.993C319.101 190.055 319.48 190.28 319.733 190.62C319.987 190.961 320.095 191.388 320.034 191.808C319.931 192.551 319.611 193.247 319.114 193.808C318.616 194.37 317.965 194.772 317.24 194.964C317.11 194.991 316.979 195.01 316.847 195.022Z" fill="#FD510C"/>
<path d="M318.182 636.607C315.256 637.842 312.068 639.395 307.601 638.848C305.609 638.591 303.689 637.936 301.955 636.922C299.931 635.731 298.154 634.163 296.719 632.304C295.638 630.922 294.553 629.542 293.466 628.165L262.149 647.827L273.01 665.122L281.259 678.263L340.633 640.981C335.351 633.818 325.919 633.34 318.182 636.607Z" fill="#3A140F"/>
<path d="M281.259 678.263L281.539 678.711C282.157 679.693 283.14 680.389 284.271 680.648C285.402 680.906 286.589 680.706 287.573 680.091L316.163 662.129L340.166 647.085C340.988 646.567 341.571 645.744 341.788 644.796C342.004 643.848 341.836 642.853 341.32 642.03C341.097 641.672 340.861 641.338 340.624 641.032L281.259 678.263Z" fill="#FFAABE"/>
<path d="M133.72 675.007C131.675 672.556 129.256 669.99 128.461 665.559C128.117 663.58 128.176 661.552 128.637 659.596C129.176 657.311 130.149 655.15 131.502 653.23L134.494 648.902L106.468 624.813L93.1462 640.262L83.0248 652.024L136.167 697.75C141.457 690.591 139.127 681.437 133.72 675.007Z" fill="#3A140F"/>
<path d="M83.0248 652.024L82.6821 652.426C81.9252 653.306 81.5485 654.45 81.6348 655.607C81.721 656.765 82.2632 657.84 83.1422 658.598L108.751 680.632L130.242 699.115C130.979 699.747 131.937 700.061 132.906 699.988C133.874 699.915 134.774 699.46 135.408 698.724C135.685 698.403 135.943 698.096 136.178 697.749L83.0248 652.024Z" fill="#FFAABE"/>
<path d="M288.354 642.165C287.998 642.215 287.635 642.142 287.325 641.958C287.015 641.775 286.776 641.492 286.647 641.156C286.518 640.82 286.507 640.45 286.616 640.106C286.724 639.763 286.946 639.466 287.244 639.265L296.423 633.177C296.774 632.971 297.191 632.907 297.588 632.998C297.985 633.09 298.332 633.33 298.557 633.67C298.783 634.009 298.87 634.422 298.8 634.823C298.731 635.225 298.51 635.584 298.184 635.828L289.027 641.913C288.825 642.047 288.595 642.134 288.354 642.165Z" fill="#EDEAD9"/>
<path d="M294.065 646.792C293.706 646.847 293.339 646.778 293.025 646.595C292.711 646.413 292.469 646.129 292.339 645.789C292.209 645.45 292.2 645.077 292.312 644.732C292.424 644.386 292.651 644.09 292.955 643.891L302.133 637.803C302.485 637.571 302.914 637.487 303.328 637.571C303.741 637.655 304.104 637.9 304.337 638.252C304.57 638.603 304.653 639.033 304.569 639.446C304.485 639.86 304.24 640.223 303.889 640.456L294.71 646.544C294.516 646.673 294.296 646.758 294.065 646.792Z" fill="#EDEAD9"/>
<path d="M126.499 664.053C126.287 664.085 126.071 664.073 125.863 664.018C125.656 663.963 125.462 663.866 125.293 663.734L116.611 656.973C116.278 656.714 116.061 656.334 116.009 655.915C115.957 655.496 116.073 655.074 116.332 654.741C116.591 654.408 116.972 654.191 117.39 654.139C117.809 654.087 118.231 654.203 118.564 654.462L127.247 661.223C127.5 661.412 127.691 661.672 127.796 661.971C127.901 662.269 127.915 662.592 127.836 662.898C127.757 663.205 127.588 663.481 127.352 663.691C127.116 663.901 126.822 664.036 126.509 664.079L126.499 664.053Z" fill="#EDEAD9"/>
<path d="M94.2317 618.598L142 659.698L154.739 644.889L106.431 604.422L94.2317 618.598Z" fill="#BC4632"/>
<path d="M106.431 604.422L154.739 644.889L199.77 592.562L159.989 542.172L106.431 604.422Z" fill="#EE9334"/>
<path d="M238.813 642.027L251.464 658.06L304.583 624.175L292.655 607.223L238.813 642.027Z" fill="#BC4632"/>
<path d="M189.632 460.957L118.123 471.382C118.335 483.732 121.518 492.405 124.697 498.296C131.485 510.918 144.957 523.121 144.957 523.121L159.996 542.182L173.002 527.092L220.775 568.192L199.781 592.594C214.417 611.125 228.943 629.497 238.813 642.027L292.652 607.24L189.632 460.957Z" fill="#EE9334"/>
<path d="M172.997 527.06L159.991 542.15L199.773 592.54L220.767 568.138L172.997 527.06Z" fill="#EE9334"/>
<path d="M189.632 460.957L118.123 471.382L110.113 449.4L95.7819 409.961C92.8282 401.843 88.5507 393.544 88.2466 384.672C87.8933 374.707 94.0373 366.433 103.59 363.595C108.933 362.008 114.67 361.837 120.161 361.036L140.369 358.09C158.914 355.386 176.376 369.882 179.379 390.478L189.632 460.957Z" fill="#EDEAD9"/>
<path d="M120.64 349.355L117.604 349.798C116.527 349.955 115.43 349.898 114.374 349.631C113.319 349.364 112.327 348.891 111.455 348.24C110.582 347.589 109.847 346.773 109.29 345.838C108.733 344.902 108.366 343.867 108.21 342.789L104.225 315.459L115.46 313.822L120.64 349.355Z" fill="#BC4632"/>
<path d="M216.197 292.824C216.118 292.788 216.036 292.757 215.953 292.733C215.669 292.67 216.733 293.218 216.424 292.988C216.116 292.758 217.066 293.62 216.803 293.362C216.449 292.974 217.008 293.711 217.005 293.728C216.938 293.493 216.842 293.267 216.72 293.055C216.664 292.898 216.613 292.735 216.561 292.573L216.499 292.367C216.339 291.841 216.518 292.502 216.578 292.647C216.075 290.741 215.544 288.84 214.973 286.955C214.226 284.498 213.374 282.075 212.418 279.686C211.251 276.702 209.892 273.797 208.351 270.988C206.802 268.034 204.893 265.284 202.666 262.801C197.658 257.484 189.716 255.162 183.541 260.24C174.494 267.683 180.49 279.585 187.377 285.948C190.922 289.224 195.05 291.784 199.097 294.388C202.355 296.485 205.778 298.361 209.567 299.277C211.539 299.753 213.771 299.829 215.658 298.971C218.158 297.826 219.559 295.297 219.773 292.616C219.826 291.112 219.771 289.606 219.611 288.109C219.581 287.718 219.568 287.324 219.555 286.935C219.534 286.795 219.541 286.085 219.523 286.715C219.504 287.344 219.527 286.478 219.531 286.318C219.551 284.493 219.68 282.672 219.917 280.863C220.692 274.862 222.555 268.527 226.09 263.547C228.704 259.868 236.29 253.72 240.948 257.802C242.057 258.773 242.424 260.385 242.275 261.853C241.867 265.579 239.562 269.637 237.723 272.824C237.259 273.64 236.777 274.441 236.282 275.233C235.239 276.903 234.142 278.542 232.986 280.112C231.829 281.683 230.581 283.299 229.272 284.81C228.962 285.168 228.645 285.522 228.328 285.871L227.881 286.354L227.624 286.628C227.238 287.036 228.012 286.236 227.734 286.513C227.064 287.16 226.405 287.806 225.709 288.457C225.012 289.109 224.356 289.622 223.642 290.16C223.31 290.407 222.971 290.648 222.644 290.856C222.49 290.966 222.334 291.066 222.174 291.172C222.013 291.277 221.992 291.281 221.907 291.342C221.611 291.539 222.652 290.909 222.139 291.199C221.467 291.592 220.771 291.943 220.055 292.25C219.723 292.386 219.388 292.501 219.048 292.622C218.426 292.84 219.446 292.526 219.27 292.562C219.094 292.599 218.873 292.664 218.675 292.704C218.369 292.765 218.06 292.81 217.749 292.839C217.577 292.864 217.405 292.889 217.206 292.885C216.569 292.929 217.582 292.897 217.476 292.885C217.156 292.843 216.828 292.853 216.508 292.811L216 292.72C215.316 292.589 216.637 292.902 216.167 292.768C214.576 292.301 212.641 292.792 212.025 294.526C211.494 296.011 212.072 298.169 213.778 298.668C221.505 300.912 228.327 295.145 233.218 289.853C238.407 284.174 242.705 277.742 245.967 270.776C247.732 267.006 249.369 262.583 248.348 258.373C247.983 256.792 247.244 255.322 246.194 254.087C245.143 252.851 243.811 251.885 242.31 251.271C239.856 250.321 237.179 250.106 234.606 250.651C226.073 252.23 220.329 259.291 217.115 266.917C215.511 270.789 214.392 274.845 213.784 278.992C213.237 282.877 213.125 286.812 213.45 290.723L213.48 291.268C213.487 291.322 213.484 291.79 213.5 291.408C213.516 291.026 213.484 291.597 213.481 291.691C213.47 291.88 213.453 292.064 213.425 292.249C213.397 292.435 213.367 292.532 213.359 292.666C213.373 292.273 213.452 292.399 213.38 292.586C213.308 292.772 212.961 293.482 213.251 292.984C213.542 292.485 213.203 292.991 213.126 293.139C213.048 293.288 212.971 293.288 212.943 293.358C212.968 293.3 213.56 292.84 213.209 293.067C213.077 293.146 212.599 293.486 213.113 293.169C213.628 292.852 212.995 293.186 212.857 293.256C212.404 293.47 213.691 293.095 213.067 293.192C212.874 293.22 212.685 293.248 212.491 293.276L212.271 293.308C211.802 293.376 212.631 293.294 212.666 293.305C212.429 293.274 212.19 293.259 211.95 293.261C211.533 293.221 211.119 293.153 210.711 293.057L210.456 293.001C210.066 292.931 211.127 293.194 210.741 293.075C210.487 292.991 210.225 292.925 209.971 292.841C208.232 292.203 206.544 291.436 204.919 290.548C205.293 290.735 205.465 290.859 205.009 290.595C204.859 290.507 204.709 290.425 204.558 290.331C204.257 290.155 203.955 289.968 203.653 289.782C202.775 289.228 201.907 288.662 201.033 288.097C196.611 285.256 191.582 282.328 188.323 278.108C185.924 275 183.904 269.516 186.702 266.046C187.314 265.296 188.084 264.691 188.957 264.272C189.83 263.853 190.784 263.631 191.752 263.622C193.948 263.599 195.958 264.939 197.425 266.479C197.34 266.392 197.205 266.258 197.117 266.177C198.931 267.995 200.497 270.044 201.776 272.271C201.693 272.184 201.613 272.093 201.539 271.998C204.822 276.115 206.691 282.109 208.349 287.035C208.7 288.084 209.03 289.102 209.352 290.144C209.366 290.241 209.407 290.334 209.433 290.434C209.325 290.071 209.169 289.494 209.364 290.186C209.558 290.878 209.759 291.618 209.957 292.331C210.248 293.388 210.513 294.449 210.874 295.496C211.084 296.225 211.46 296.895 211.972 297.454C212.485 298.013 213.121 298.445 213.829 298.716C215.413 299.216 217.367 298.662 217.97 296.958C218.498 295.446 217.869 293.36 216.197 292.824Z" fill="#FFAABE"/>
<path d="M194.99 307.136L175.218 310.018C175.838 311.15 176.174 312.414 176.198 313.703C176.223 314.993 175.935 316.269 175.358 317.423C174.782 318.577 173.935 319.574 172.889 320.329C171.844 321.084 170.631 321.574 169.354 321.758C168.932 321.817 168.505 321.842 168.079 321.834L170.545 338.748C171.598 338.566 172.676 338.597 173.717 338.839C174.758 339.081 175.739 339.529 176.604 340.156C177.469 340.784 178.2 341.578 178.753 342.492C179.306 343.406 179.67 344.422 179.824 345.479C179.978 346.537 179.919 347.614 179.65 348.648C179.381 349.682 178.908 350.652 178.258 351.5C177.608 352.348 176.795 353.058 175.867 353.587C174.939 354.116 173.914 354.453 172.853 354.58L173.357 358.036C173.419 358.469 173.567 358.885 173.79 359.262C174.014 359.638 174.309 359.966 174.66 360.228C175.011 360.49 175.41 360.68 175.834 360.788C176.258 360.895 176.699 360.918 177.132 360.855L202.298 357.186C202.732 357.124 203.149 356.976 203.526 356.752C203.902 356.528 204.231 356.232 204.493 355.881C204.755 355.53 204.945 355.13 205.052 354.705C205.159 354.28 205.181 353.839 205.117 353.405L198.782 309.953C198.719 309.519 198.57 309.101 198.345 308.724C198.12 308.348 197.823 308.019 197.471 307.757C197.119 307.496 196.718 307.306 196.293 307.199C195.867 307.093 195.424 307.071 194.99 307.136Z" fill="#EDEAD9"/>
<path d="M176.098 312.694C175.961 311.757 175.658 310.851 175.202 310.021L169.835 310.803C168.96 310.931 168.171 311.401 167.643 312.11C167.114 312.819 166.889 313.709 167.016 314.584L168.074 321.835C168.5 321.843 168.927 321.818 169.349 321.759C171.445 321.451 173.334 320.323 174.599 318.623C175.864 316.923 176.403 314.791 176.098 312.694Z" fill="#EE9334"/>
<path d="M191.433 341.03C195.806 340.392 198.834 336.33 198.197 331.957C197.559 327.584 193.497 324.555 189.124 325.193C184.751 325.83 181.722 329.892 182.36 334.266C182.997 338.639 187.06 341.667 191.433 341.03Z" fill="#EE9334"/>
<path d="M205.498 354.323C205.163 353.492 204.604 352.77 203.884 352.237C203.164 351.703 202.311 351.379 201.418 351.3C201.502 350.472 201.368 349.635 201.03 348.874C200.692 348.113 200.162 347.453 199.491 346.959C198.82 346.465 198.033 346.155 197.205 346.058C196.378 345.962 195.54 346.083 194.773 346.409C194.314 345.431 193.54 344.637 192.574 344.154C191.609 343.67 190.509 343.526 189.451 343.743C188.394 343.961 187.44 344.528 186.744 345.353C186.048 346.179 185.65 347.215 185.614 348.294C185.433 348.297 185.251 348.313 185.071 348.34C183.808 348.524 182.669 349.203 181.906 350.226C181.143 351.25 180.818 352.535 181.002 353.799C181.011 353.858 181.019 353.917 181.028 353.976C181.037 354.035 180.209 354.502 180.149 354.544C179.403 355.05 178.824 355.766 178.486 356.601C178.125 357.531 178.06 358.55 178.299 359.519C178.539 360.487 179.072 361.358 179.825 362.013C180.527 362.758 181.398 363.323 182.365 363.661C183.332 363.998 184.366 364.098 185.379 363.952L200.274 361.78C201.616 361.586 202.859 360.965 203.821 360.01C204.215 359.686 204.581 359.327 204.912 358.938C205.225 358.513 205.466 358.04 205.626 357.537C205.961 356.483 205.916 355.346 205.498 354.323Z" fill="#FFAABE"/>
<path d="M179.601 345.509C179.294 343.41 178.165 341.519 176.464 340.252C174.763 338.984 172.628 338.444 170.529 338.75L172.837 354.582C174.937 354.276 176.83 353.148 178.098 351.446C179.367 349.745 179.907 347.609 179.601 345.509Z" fill="#EE9334"/>
<path d="M208.221 365.949L168.139 371.793L169.447 380.766L209.53 374.922L208.221 365.949Z" fill="#FFAABE"/>
<path d="M176.006 390.079L210.996 384.978L209.53 374.922L169.447 380.766L170.171 385.729C170.368 387.08 171.093 388.297 172.187 389.113C173.282 389.929 174.655 390.276 176.006 390.079Z" fill="#129277"/>
<path d="M207.327 359.817C207.176 358.777 206.617 357.839 205.774 357.21C204.93 356.581 203.872 356.314 202.831 356.465L170.581 361.167C169.541 361.32 168.604 361.88 167.975 362.722C167.347 363.565 167.079 364.623 167.229 365.664L168.123 371.795L208.221 365.949L207.327 359.817Z" fill="#129277"/>
<path d="M255.447 287.195L181.758 297.938L194.829 387.593L268.519 376.85L255.447 287.195Z" fill="#9747FF"/>
<path d="M260.346 347.53C246.189 349.594 234.875 346.846 226.726 339.403C219.768 333.078 215.118 323.173 213.255 310.729C212.4 305.127 212.153 299.449 212.517 293.794C212.536 293.586 212.595 293.384 212.692 293.199C212.788 293.013 212.92 292.849 213.081 292.715C213.241 292.581 213.426 292.48 213.625 292.417C213.824 292.354 214.034 292.332 214.242 292.35C214.45 292.368 214.653 292.428 214.838 292.524C215.023 292.621 215.187 292.753 215.321 292.913C215.456 293.073 215.557 293.258 215.619 293.457C215.682 293.657 215.705 293.866 215.686 294.074C215.663 294.364 213.337 322.911 228.858 337.058C236.758 344.262 248.043 346.586 262.383 343.968C262.593 343.919 262.811 343.914 263.023 343.952C263.235 343.99 263.437 344.071 263.617 344.189C263.797 344.307 263.952 344.461 264.071 344.641C264.19 344.82 264.271 345.022 264.31 345.234C264.348 345.446 264.344 345.664 264.296 345.874C264.248 346.084 264.158 346.283 264.032 346.457C263.905 346.631 263.744 346.778 263.559 346.889C263.374 347 263.169 347.071 262.955 347.1C262.073 347.268 261.202 347.405 260.346 347.53Z" fill="#FFAABE"/>
<path d="M223.045 383.799C222.944 383.815 222.841 383.821 222.739 383.816C222.531 383.806 222.326 383.755 222.137 383.666C221.948 383.577 221.778 383.452 221.637 383.297C221.497 383.142 221.388 382.961 221.318 382.765C221.247 382.568 221.216 382.359 221.227 382.151C222.365 357.944 212.17 340.81 203.423 330.7C193.89 319.688 183.938 314.36 183.843 314.313C183.471 314.116 183.191 313.779 183.067 313.376C182.943 312.973 182.984 312.537 183.181 312.164C183.378 311.791 183.715 311.512 184.118 311.388C184.521 311.264 184.957 311.305 185.33 311.502C185.753 311.726 195.83 317.118 205.752 328.535C214.917 339.096 225.594 356.978 224.411 382.313C224.39 382.68 224.242 383.029 223.993 383.3C223.744 383.57 223.409 383.747 223.045 383.799Z" fill="#FFAABE"/>
<path d="M207.698 386.041C207.53 386.065 207.359 386.062 207.191 386.033C206.986 385.997 206.789 385.921 206.613 385.809C206.437 385.697 206.284 385.551 206.164 385.38C206.044 385.209 205.959 385.017 205.914 384.813C205.869 384.609 205.864 384.398 205.9 384.193C206.116 382.957 211.321 353.76 224.79 339.284C227.244 336.671 230.438 334.87 233.944 334.124C237.45 333.378 241.101 333.722 244.406 335.109C247.711 336.497 250.513 338.862 252.436 341.887C254.359 344.912 255.311 348.453 255.165 352.035C254.787 360.039 251.387 369.452 245.058 380.001C244.841 380.362 244.49 380.622 244.081 380.724C243.672 380.826 243.239 380.761 242.878 380.544C242.517 380.327 242.257 379.975 242.155 379.567C242.053 379.158 242.118 378.725 242.335 378.364C248.389 368.267 251.658 359.358 251.988 351.888C252.333 344.564 247.673 339.939 243.193 338.057C238.713 336.176 232.123 336.071 227.118 341.451C214.285 355.241 209.082 384.443 209.031 384.737C208.974 385.067 208.815 385.37 208.575 385.604C208.336 385.839 208.029 385.991 207.698 386.041Z" fill="#FFAABE"/>
<path d="M426.744 565.864L390.774 584.608L396.368 595.342L432.337 576.598L426.744 565.864Z" fill="#BC4632"/>
<path d="M396.355 595.38L399.676 601.762C404.369 610.612 405.752 620.845 403.576 630.622C402.971 633.264 402.087 635.835 400.939 638.291C398.681 643.084 387.197 646.297 390.07 652.8C390.348 653.433 390.753 654.001 391.26 654.471C391.767 654.94 392.365 655.301 393.016 655.53C393.668 655.759 394.36 655.852 395.049 655.803C395.738 655.754 396.41 655.564 397.023 655.244L424.149 641.114C427.352 639.443 430.152 637.092 432.352 634.227C434.552 631.361 436.1 628.049 436.887 624.523L437.638 621.115L440.988 627.537C441.244 628.032 441.596 628.471 442.023 628.829C442.45 629.188 442.943 629.459 443.474 629.626C444.006 629.794 444.565 629.855 445.12 629.806C445.676 629.757 446.216 629.6 446.71 629.342L453.235 625.944C454.233 625.423 454.984 624.527 455.322 623.454C455.66 622.38 455.558 621.215 455.039 620.217L451.694 613.794L447.527 605.798L445.313 601.513L439.221 589.889L432.341 576.637L396.355 595.38Z" fill="#3A140F"/>
<path d="M528.091 545.293L496.258 570.429L503.759 579.928L535.592 554.792L528.091 545.293Z" fill="#BC4632"/>
<path d="M503.739 579.933L508.196 585.578C514.461 593.394 517.733 603.188 517.424 613.199C517.327 615.727 516.983 618.239 516.395 620.699C515.279 625.337 510.403 627.829 508.424 631.977C506.197 636.645 510.742 642.442 515.59 638.629L539.588 619.676C542.431 617.437 544.749 614.602 546.379 611.371C548.009 608.139 548.911 604.59 549.022 600.973L549.126 597.5L553.616 603.184C553.962 603.621 554.39 603.986 554.877 604.258C555.363 604.53 555.899 604.703 556.453 604.768C557.006 604.833 557.567 604.788 558.103 604.636C558.64 604.484 559.141 604.227 559.578 603.881L565.351 599.323C566.234 598.625 566.804 597.605 566.936 596.487C567.068 595.369 566.751 594.245 566.054 593.361L561.564 587.677L555.981 580.607L552.975 576.801L544.877 566.509L535.619 554.78L503.739 579.933Z" fill="#3A140F"/>
<path d="M433.169 406.86L381.833 447.395L479.17 570.668L530.506 530.132L433.169 406.86Z" fill="#129277"/>
<path d="M479.167 570.668C479.954 571.62 483.745 576.015 490.023 576.54C496.05 577.041 501.994 573.772 505.298 568.189C509.361 568.254 513.331 566.975 516.593 564.552C520.407 561.582 522.928 557.254 523.628 552.471C526.105 552.213 528.452 551.231 530.375 549.648C532.298 548.065 533.712 545.95 534.441 543.568C535.17 541.186 535.181 538.642 534.473 536.254C533.765 533.866 532.369 531.739 530.46 530.139L479.167 570.668Z" fill="#129277"/>
<path d="M339.783 515.613L333.936 506.504C319.331 483.779 326.605 453.697 350.187 439.352L428.285 391.765L441.086 411.696C451.85 428.439 446.483 450.601 429.11 461.188L339.783 515.613Z" fill="#129277"/>
<path d="M384.639 467.03L328.639 496.355L372.365 579.856L428.365 550.531L384.639 467.03Z" fill="#129277"/>
<path d="M373.608 581.671C375.609 587.855 381.431 591.888 387.582 591.508C390.266 591.305 392.834 590.327 394.972 588.692C397.111 587.058 398.73 584.838 399.632 582.302C402.611 583.469 405.902 583.572 408.949 582.593C415.312 580.462 417.449 574.306 417.684 573.579C418.251 573.7 425.125 575.106 429.691 570.603C434.061 566.299 434.502 558.356 429.885 552.361L373.608 581.671Z" fill="#129277"/>
<path d="M395.488 429.443C395.071 429.504 394.647 429.397 394.309 429.145C393.972 428.893 393.748 428.518 393.687 428.101L391.443 412.71C391.382 412.294 391.49 411.87 391.741 411.532C391.993 411.194 392.369 410.97 392.786 410.909C393.203 410.849 393.627 410.956 393.964 411.208C394.302 411.46 394.526 411.835 394.587 412.252L396.831 427.642C396.891 428.059 396.784 428.483 396.532 428.821C396.28 429.159 395.905 429.383 395.488 429.443Z" fill="#3A140F"/>
<path d="M406.688 476.59C406.326 476.644 405.957 476.572 405.642 476.385C405.328 476.198 405.087 475.908 404.961 475.565C404.836 475.221 404.832 474.845 404.952 474.499C405.072 474.153 405.307 473.859 405.619 473.667L432.188 457.149C432.275 457.104 441.536 452.488 444.94 442.014C447.609 433.928 446.127 424.474 440.596 413.95C440.4 413.577 440.36 413.141 440.486 412.739C440.611 412.337 440.891 412.001 441.264 411.805C441.637 411.609 442.073 411.569 442.475 411.695C442.878 411.82 443.214 412.1 443.409 412.473C449.366 423.804 450.893 434.092 447.95 443.054C444.229 454.371 434.705 459.443 433.656 459.981L407.274 476.345C407.096 476.464 406.897 476.547 406.688 476.59Z" fill="#3A140F"/>
<path d="M415.871 319.061L393.8 322.279C391.984 322.544 390.134 322.448 388.355 321.998C386.575 321.548 384.902 320.751 383.431 319.654C381.96 318.557 380.719 317.181 379.779 315.605C378.84 314.028 378.22 312.282 377.955 310.466L374.931 289.725C374.45 286.425 375.299 283.069 377.292 280.395C379.284 277.721 382.257 275.948 385.557 275.466L408.333 272.145C411.865 271.631 415.458 272.542 418.319 274.676C421.181 276.811 423.078 279.994 423.593 283.527L426.662 304.58C427.151 307.931 426.289 311.339 424.265 314.055C422.241 316.771 419.222 318.571 415.871 319.061Z" fill="#3A140F"/>
<path d="M413.343 295.197L410.917 278.558L387.877 281.917C386.066 282.181 384.325 282.799 382.753 283.736C381.181 284.673 379.81 285.911 378.716 287.378C377.623 288.845 376.829 290.514 376.38 292.288C375.932 294.062 375.837 295.907 376.102 297.718L378.958 317.307C379.18 318.836 379.701 320.306 380.492 321.634C381.282 322.961 382.327 324.12 383.565 325.044C384.803 325.967 386.212 326.638 387.709 327.017C389.207 327.396 390.765 327.477 392.294 327.254L417.481 323.582L415.485 309.893C417.434 309.609 419.19 308.562 420.367 306.983C421.544 305.404 422.046 303.422 421.762 301.474C421.478 299.525 420.431 297.769 418.852 296.592C417.273 295.414 415.291 294.913 413.343 295.197Z" fill="#BC4632"/>
<path d="M346.217 340.965L340.785 283.95C340.645 282.473 339.925 281.112 338.783 280.165C337.642 279.218 336.171 278.761 334.694 278.896L309.641 281.196C308.246 281.323 306.948 281.969 306.005 283.006C305.063 284.043 304.543 285.396 304.548 286.798L304.796 352.144C308.089 362.367 316.927 369.138 325.649 368.971C337.226 368.74 348.388 356.272 346.217 340.965Z" fill="#FFAABE"/>
<path d="M349.722 340.118L304.799 352.165L304.818 356.407C304.8 361.003 305.774 365.549 307.673 369.734C311.428 377.84 320.002 387.288 339.381 383.297L388.355 372.034L387.754 330.962L349.722 340.118Z" fill="#FFAABE"/>
<path d="M524.216 278.037C523.814 277.028 523.14 276.15 522.269 275.501C521.398 274.851 520.364 274.456 519.282 274.359C519.328 273.901 519.318 273.439 519.252 272.983C519.029 271.453 518.207 270.073 516.967 269.149C515.727 268.225 514.17 267.831 512.64 268.054C512.157 268.127 511.685 268.259 511.234 268.446C510.674 267.266 509.734 266.309 508.565 265.728C507.396 265.146 506.065 264.974 504.787 265.238C503.508 265.502 502.355 266.188 501.513 267.186C500.67 268.183 500.186 269.434 500.14 270.739C499.927 270.748 499.715 270.768 499.505 270.799C497.975 271.022 496.595 271.844 495.671 273.084C494.747 274.324 494.353 275.88 494.576 277.411C494.586 277.481 494.596 277.551 494.606 277.621C494.616 277.691 493.6 278.262 493.544 278.325C492.641 278.938 491.94 279.806 491.532 280.818C491.093 281.943 491.011 283.177 491.297 284.351C491.583 285.525 492.224 286.582 493.132 287.379C493.986 288.275 495.043 288.953 496.213 289.357C497.383 289.76 498.633 289.877 499.858 289.697L517.897 287.067C519.522 286.831 521.03 286.08 522.196 284.923C522.671 284.528 523.113 284.096 523.52 283.631C523.894 283.115 524.182 282.542 524.372 281.934C524.779 280.657 524.724 279.278 524.216 278.037Z" fill="#EE9334"/>
<path d="M413.339 295.17L405.501 296.313C401.395 296.911 397.219 295.854 393.893 293.374C390.566 290.894 388.361 287.194 387.762 283.088L387.203 279.255L410.523 275.855L413.339 295.17Z" fill="#3A140F"/>
<path d="M430.789 283C439.167 281.778 444.948 273.854 443.701 265.301C442.454 256.748 434.651 250.804 426.273 252.025C417.895 253.247 412.115 261.171 413.362 269.724C414.609 278.277 422.411 284.221 430.789 283Z" fill="#3A140F"/>
<path d="M462.119 269.268C475.369 267.336 484.512 254.804 482.54 241.277C480.568 227.75 468.227 218.35 454.977 220.282C441.726 222.213 432.583 234.745 434.555 248.273C436.527 261.8 448.868 271.2 462.119 269.268Z" fill="#3A140F"/>
<path d="M388.611 319.187C386.738 319.451 384.835 318.995 383.285 317.913C382.944 317.665 382.715 317.291 382.65 316.874C382.585 316.458 382.688 316.032 382.936 315.691C383.184 315.35 383.558 315.122 383.975 315.056C384.392 314.991 384.817 315.094 385.158 315.342C385.471 315.566 388.234 317.357 391.038 314.381C391.181 314.229 391.353 314.106 391.543 314.021C391.734 313.935 391.939 313.888 392.148 313.882C392.356 313.876 392.564 313.911 392.759 313.985C392.954 314.059 393.133 314.171 393.285 314.314C393.437 314.457 393.559 314.629 393.645 314.819C393.73 315.01 393.777 315.215 393.784 315.424C393.79 315.632 393.755 315.84 393.681 316.035C393.606 316.231 393.495 316.409 393.351 316.561C392.121 317.957 390.446 318.884 388.611 319.187Z" fill="#3A140F"/>
<path d="M437.576 405.985L388.052 413.205C375.401 403.582 371.51 393.714 370.097 388.659C367.77 380.236 369.067 371.525 371.814 354.434C372.378 350.949 372.966 347.702 373.55 344.731C374.99 337.374 381.28 331.724 389.036 330.742L426.189 326.034C437.811 324.565 447.612 333.906 446.069 345.005L437.576 405.985Z" fill="#FFAABE"/>
<path d="M417.486 323.581L395.206 326.83L396.502 335.717L418.782 332.469L417.486 323.581Z" fill="#BC4632"/>
<path d="M395.997 332.256L410.819 325.438C410.918 325.394 410.998 325.316 411.044 325.218C411.089 325.12 411.098 325.008 411.067 324.904C411.036 324.8 410.969 324.711 410.877 324.653C410.786 324.595 410.676 324.573 410.569 324.59L395.206 326.83L395.997 332.256Z" fill="#3A140F"/>
<path d="M435.335 327.153C441.49 329.735 444.474 330.07 453.39 331.194C479.106 334.427 495.93 322.936 505.784 316.469C506.685 315.88 507.753 315.6 508.827 315.67C509.901 315.741 510.924 316.158 511.74 316.86L533.416 335.519C533.91 335.946 534.316 336.466 534.609 337.049C534.902 337.632 535.078 338.268 535.125 338.919C535.173 339.571 535.091 340.225 534.886 340.845C534.68 341.464 534.354 342.037 533.927 342.531C523.397 354.737 487.121 390.718 436.922 374.766C434.149 358.458 438.086 343.458 435.335 327.153Z" fill="#FFAABE"/>
<path d="M495.697 301.013C496.674 300.964 499.463 300.64 502.483 297.599C502.483 297.599 512.002 306.327 518.789 295.222C520.133 296.038 523.83 298.011 527.368 296.791C529.933 295.906 532.073 293.467 533.227 290.104L532.457 284.824C532.392 284.38 532.154 283.98 531.794 283.711C531.434 283.443 530.983 283.329 530.539 283.394L486.726 289.781C486.282 289.846 485.881 290.084 485.613 290.444C485.345 290.804 485.231 291.255 485.296 291.699L485.835 295.403C488.554 299.119 492.238 301.193 495.697 301.013Z" fill="#FFAABE"/>
<path d="M527.001 294.272C523.463 295.497 519.745 293.521 518.421 292.703C511.651 303.805 502.116 295.08 502.116 295.08C499.096 298.121 496.306 298.445 495.33 298.499C491.855 298.682 488.187 296.6 485.447 292.892L489.513 320.777C489.545 320.997 489.62 321.208 489.734 321.399C489.847 321.59 489.998 321.756 490.176 321.889C490.354 322.022 490.556 322.118 490.772 322.173C490.987 322.227 491.211 322.239 491.431 322.207L535.265 315.816C535.709 315.751 536.11 315.513 536.378 315.153C536.646 314.793 536.76 314.342 536.696 313.898L532.86 287.591C531.707 290.953 529.583 293.39 527.001 294.272Z" fill="#EDEAD9"/>
<path d="M510.892 283.63L504.314 284.589L509.416 319.585L515.994 318.626L510.892 283.63Z" fill="#129277"/>
<path d="M336.821 345.336C336.424 345.392 336.021 345.295 335.692 345.066C335.364 344.836 335.134 344.491 335.049 344.1C334.964 343.708 335.03 343.299 335.234 342.954C335.439 342.609 335.766 342.354 336.15 342.24L345.768 339.436C346.173 339.318 346.609 339.365 346.978 339.568C347.348 339.771 347.622 340.112 347.74 340.517C347.858 340.922 347.811 341.357 347.608 341.727C347.405 342.097 347.064 342.371 346.659 342.489L337.04 345.293C336.968 345.313 336.895 345.327 336.821 345.336Z" fill="#FD510C"/>
<path d="M369.133 378.047C368.928 378.077 368.719 378.066 368.518 378.016C368.315 377.965 368.124 377.875 367.956 377.75C367.788 377.626 367.646 377.469 367.539 377.29C367.431 377.11 367.361 376.911 367.33 376.705C367.3 376.498 367.311 376.287 367.362 376.084C368.261 372.522 369.309 368.961 370.481 365.497C372.013 360.971 373.778 356.526 375.768 352.181C375.944 351.798 376.265 351.5 376.661 351.353C377.057 351.206 377.494 351.222 377.878 351.398C378.262 351.574 378.56 351.895 378.706 352.291C378.853 352.686 378.837 353.124 378.661 353.508C376.714 357.756 374.99 362.103 373.496 366.531C372.34 369.916 371.324 373.395 370.446 376.871C370.368 377.175 370.202 377.449 369.968 377.659C369.734 377.868 369.443 378.003 369.133 378.047Z" fill="#FD510C"/>
<path d="M514.116 318.905C516.04 316.185 517.684 313.278 519.025 310.229C519.279 309.598 519.487 308.952 519.683 308.297C520.301 306.2 522.793 299.047 526.369 305.359L530.408 293.775C530.765 292.712 531.347 291.739 532.114 290.921C533.882 289.091 536.922 287.884 538.339 298.925C538.339 298.925 541.92 317.188 529.577 332.231L514.116 318.905Z" fill="#BC4632"/>
<path d="M414.485 306.086C414.371 306.111 414.256 306.127 414.14 306.136C413.363 306.204 412.591 305.966 411.986 305.473C411.382 304.98 410.994 304.271 410.904 303.496C410.814 302.721 411.029 301.942 411.504 301.324C411.979 300.705 412.677 300.296 413.449 300.184C414.22 300.071 415.005 300.264 415.637 300.721C416.269 301.178 416.698 301.863 416.833 302.631C416.968 303.4 416.798 304.19 416.36 304.835C415.921 305.48 415.249 305.929 414.485 306.086ZM413.88 301.935C413.625 301.973 413.391 302.097 413.216 302.285C413.108 302.394 413.023 302.523 412.966 302.665C412.909 302.807 412.881 302.958 412.883 303.111C412.886 303.264 412.92 303.415 412.982 303.555C413.044 303.695 413.134 303.821 413.245 303.926C413.357 304.03 413.489 304.111 413.632 304.164C413.776 304.216 413.929 304.24 414.082 304.232C414.234 304.225 414.384 304.187 414.522 304.12C414.66 304.054 414.783 303.96 414.884 303.845C415.089 303.623 415.199 303.329 415.189 303.027C415.179 302.725 415.05 302.439 414.83 302.231C414.608 302.025 414.313 301.916 414.011 301.927L413.88 301.935Z" fill="#3A140F"/>
<path d="M412.148 304.612C411.911 304.646 411.669 304.589 411.472 304.453C411.275 304.317 411.136 304.111 411.084 303.877C410.916 303.067 410.985 302.225 411.283 301.454C411.581 300.682 412.096 300.013 412.765 299.526C413.434 299.04 414.229 298.757 415.056 298.711C415.882 298.666 416.703 298.859 417.422 299.27C417.64 299.398 417.797 299.608 417.86 299.853C417.923 300.098 417.887 300.358 417.758 300.576C417.629 300.793 417.42 300.951 417.175 301.014C416.93 301.077 416.67 301.04 416.452 300.912C416.054 300.69 415.601 300.587 415.146 300.615C414.691 300.643 414.254 300.8 413.885 301.068C413.517 301.336 413.233 301.704 413.067 302.128C412.901 302.552 412.86 303.015 412.948 303.462C413.002 303.709 412.956 303.968 412.821 304.181C412.685 304.395 412.47 304.546 412.223 304.601L412.148 304.612Z" fill="#3A140F"/>
<path d="M115.059 311.076L117.662 328.927C117.287 328.922 116.911 328.946 116.54 328.997C114.577 329.283 112.808 330.337 111.622 331.928C110.436 333.518 109.931 335.514 110.217 337.478C110.503 339.441 111.557 341.21 113.148 342.395C114.738 343.581 116.735 344.086 118.698 343.8C119.069 343.743 119.435 343.658 119.793 343.547L121.114 352.607L151.889 348.12C152.993 347.959 154.053 347.582 155.011 347.011C155.969 346.441 156.804 345.686 157.47 344.792C158.137 343.898 158.62 342.882 158.893 341.801C159.166 340.72 159.223 339.596 159.062 338.493L154.232 305.365L115.059 311.076Z" fill="#FF9191"/>
<path d="M147.072 346.788L120.824 350.615L122.686 363.389L148.934 359.562L147.072 346.788Z" fill="#FF9191"/>
<path d="M145.6 339.938L145.197 339.997C143.355 340.106 141.542 339.504 140.13 338.317C139.813 338.04 139.619 337.647 139.59 337.227C139.562 336.806 139.702 336.392 139.979 336.074C140.257 335.757 140.649 335.562 141.069 335.534C141.49 335.506 141.905 335.646 142.222 335.923C142.999 336.542 143.972 336.862 144.965 336.826C146.008 336.74 146.993 336.102 147.936 334.953C148.056 334.764 148.214 334.603 148.401 334.479C148.588 334.356 148.798 334.274 149.019 334.238C149.24 334.201 149.466 334.212 149.682 334.269C149.898 334.327 150.1 334.429 150.274 334.57C150.448 334.71 150.591 334.886 150.692 335.085C150.793 335.285 150.851 335.504 150.862 335.727C150.873 335.95 150.837 336.174 150.756 336.382C150.675 336.591 150.55 336.78 150.391 336.937C148.984 338.675 147.371 339.68 145.6 339.938Z" fill="#FD510C"/>
<path d="M146.637 290.903C145.157 291.116 143.733 291.618 142.447 292.382C141.161 293.146 140.039 294.156 139.144 295.355C137.576 293.364 135.506 291.825 133.147 290.898C130.788 289.97 128.225 289.687 125.72 290.077C123.216 290.466 120.86 291.515 118.894 293.116C116.929 294.716 115.424 296.811 114.535 299.185C112.582 298.327 110.427 298.035 108.316 298.343C106.838 298.525 105.412 299.001 104.12 299.742C102.829 300.483 101.699 301.474 100.796 302.658C99.8927 303.842 99.2353 305.194 98.862 306.635C98.4887 308.076 98.407 309.578 98.6218 311.051C98.8366 312.524 99.3435 313.94 100.113 315.214C100.882 316.489 101.898 317.597 103.102 318.474C104.305 319.351 105.671 319.978 107.12 320.32C108.57 320.661 110.072 320.709 111.54 320.462C113.168 320.228 114.725 319.644 116.105 318.75C117.484 317.856 118.654 316.673 119.532 315.284C121.203 316.474 123.11 317.29 125.123 317.678C127.137 318.067 129.211 318.017 131.204 317.534C133.197 317.05 135.063 316.144 136.675 314.876C138.287 313.608 139.608 312.009 140.548 310.186C141.794 311.319 143.275 312.161 144.886 312.652C146.497 313.142 148.196 313.269 149.862 313.023C151.34 312.84 152.766 312.365 154.057 311.624C155.349 310.883 156.479 309.891 157.382 308.708C158.285 307.524 158.942 306.172 159.316 304.73C159.689 303.289 159.771 301.788 159.556 300.315C159.341 298.841 158.834 297.426 158.065 296.151C157.296 294.876 156.279 293.768 155.076 292.892C153.873 292.015 152.506 291.388 151.057 291.046C149.608 290.705 148.105 290.656 146.637 290.903Z" fill="#BC4632"/>
<path d="M118.054 339.419C117.254 339.49 116.458 339.246 115.835 338.739C115.212 338.233 114.811 337.503 114.718 336.705C114.625 335.908 114.846 335.105 115.335 334.468C115.824 333.831 116.542 333.41 117.337 333.294C118.131 333.179 118.94 333.377 119.59 333.848C120.241 334.319 120.682 335.025 120.82 335.816C120.958 336.607 120.783 337.42 120.33 338.084C119.878 338.747 119.185 339.208 118.398 339.369C118.285 339.393 118.169 339.41 118.054 339.419ZM117.449 335.269L117.319 335.288C117.102 335.346 116.907 335.467 116.759 335.636C116.61 335.805 116.515 336.014 116.485 336.237C116.454 336.459 116.49 336.686 116.588 336.888C116.686 337.091 116.842 337.26 117.035 337.374C117.166 337.455 117.311 337.508 117.463 337.531C117.615 337.553 117.769 337.545 117.918 337.507C118.066 337.468 118.206 337.4 118.327 337.306C118.448 337.212 118.549 337.095 118.624 336.961C118.701 336.831 118.751 336.688 118.77 336.538C118.79 336.389 118.78 336.237 118.74 336.092C118.669 335.821 118.501 335.586 118.267 335.431C118.033 335.276 117.751 335.213 117.474 335.254L117.449 335.269Z" fill="#FD510C"/>
<path d="M119.867 337.341L119.797 337.351C119.545 337.368 119.296 337.284 119.105 337.119C118.914 336.953 118.796 336.718 118.778 336.466C118.731 336.017 118.559 335.591 118.28 335.237C118.002 334.882 117.629 334.614 117.204 334.462C116.78 334.311 116.321 334.283 115.881 334.381C115.441 334.479 115.038 334.7 114.718 335.018C114.546 335.204 114.308 335.313 114.055 335.323C113.802 335.332 113.556 335.241 113.37 335.069C113.185 334.897 113.075 334.658 113.066 334.406C113.056 334.153 113.148 333.907 113.32 333.721C113.891 333.123 114.623 332.703 115.428 332.51C116.233 332.318 117.076 332.362 117.856 332.637C118.636 332.913 119.321 333.407 119.827 334.062C120.333 334.716 120.639 335.503 120.709 336.327C120.725 336.572 120.647 336.813 120.49 337.002C120.333 337.19 120.11 337.311 119.867 337.341Z" fill="#FD510C"/>
<path d="M147.362 348.78L130.169 351.287C130.065 351.327 129.976 351.398 129.914 351.49C129.852 351.582 129.82 351.691 129.822 351.803C129.824 351.914 129.86 352.022 129.925 352.112C129.99 352.202 130.081 352.27 130.185 352.307L148.161 354.26L147.362 348.78Z" fill="#FD510C"/>
<path d="M179.421 416.222L171.111 425.928C165.816 432.112 158.281 435.941 150.163 436.571C142.046 437.201 134.01 434.58 127.824 429.286C117.262 419.688 106.717 410.09 96.1878 400.49C88.8631 393.312 87.7348 382.179 92.984 374.443C99.0062 365.561 112.208 363.015 121.924 369.85C141.094 385.299 160.26 400.757 179.421 416.222Z" fill="#EDEAD9"/>
<path d="M216.703 407.945L182.548 436.498C175.11 442.718 165.506 445.729 155.849 444.869C146.191 444.009 137.27 439.348 131.049 431.911L193.253 379.912L216.703 407.945Z" fill="#EDEAD9"/>
<path d="M199.069 386.882C198.651 386.393 204.353 382.291 205.01 381.854C208.527 379.607 212.3 377.789 216.249 376.439C219.077 375.4 222.037 373.946 225.142 373.597C226.38 373.455 228.623 373.227 229.592 374.18C229.951 374.534 230.686 376.258 230.06 376.602C232.867 375.081 235.78 373.763 238.776 372.66C240.935 371.855 253.534 367.583 252.423 373.353C251.688 377.171 246.883 379.542 243.892 381.353C237.157 385.424 230.479 389.356 224.085 393.949L212.172 402.47L212.139 402.475L199.069 386.882Z" fill="#FF9191"/>
<path d="M219.064 386.017C218.704 386.072 218.336 386.001 218.023 385.817C217.709 385.633 217.468 385.347 217.339 385.006C217.211 384.666 217.204 384.292 217.318 383.946C217.433 383.601 217.663 383.306 217.969 383.109L228.515 376.261C228.869 376.032 229.299 375.952 229.712 376.04C230.124 376.128 230.484 376.376 230.714 376.729C230.943 377.083 231.023 377.513 230.935 377.926C230.847 378.338 230.599 378.699 230.246 378.928L219.699 385.776C219.507 385.9 219.29 385.982 219.064 386.017Z" fill="#FD510C"/>
<path d="M124.221 494.77C123.806 494.842 123.379 494.747 123.034 494.504C122.69 494.262 122.456 493.892 122.383 493.477C122.311 493.062 122.407 492.635 122.649 492.29C122.892 491.945 123.262 491.711 123.677 491.639C124.889 491.391 131.113 489.857 134.592 483.775C135.681 481.823 136.367 479.671 136.609 477.449C136.852 475.227 136.646 472.978 136.004 470.837C135.942 470.637 135.921 470.427 135.94 470.219C135.96 470.011 136.02 469.809 136.118 469.624C136.215 469.44 136.348 469.276 136.509 469.143C136.67 469.009 136.856 468.909 137.055 468.847C137.255 468.786 137.465 468.764 137.673 468.784C137.881 468.803 138.083 468.863 138.268 468.961C138.453 469.059 138.616 469.192 138.75 469.353C138.883 469.514 138.983 469.699 139.045 469.899C139.811 472.456 140.057 475.142 139.767 477.796C139.477 480.45 138.657 483.019 137.356 485.351C133.293 492.441 126.346 494.339 124.318 494.756L124.221 494.77Z" fill="#BC4632"/>
<path d="M164.363 406.114L145.523 390.917C145.193 390.653 144.981 390.268 144.935 389.847C144.889 389.426 145.011 389.005 145.276 388.674C145.54 388.344 145.925 388.133 146.346 388.086C146.767 388.04 147.188 388.163 147.519 388.427L164.339 401.989L177.862 390.672C178.187 390.401 178.606 390.271 179.028 390.31C179.449 390.348 179.837 390.553 180.108 390.878C180.378 391.203 180.508 391.622 180.47 392.043C180.431 392.464 180.227 392.853 179.902 393.123L164.363 406.114Z" fill="#129277"/>
<path d="M162.982 446.151C158.939 446.775 154.812 446.584 150.844 445.589C147.517 444.713 144.362 443.276 141.517 441.342C125.298 430.815 105.353 413.882 91.4732 401.524C91.3172 401.385 91.1901 401.217 91.0992 401.029C91.0083 400.841 90.9553 400.636 90.9432 400.428C90.9312 400.219 90.9604 400.01 91.0291 399.813C91.0978 399.616 91.2047 399.434 91.3436 399.278C91.4826 399.122 91.6509 398.995 91.839 398.904C92.0271 398.813 92.2313 398.76 92.4398 398.748C92.6484 398.736 92.8573 398.765 93.0546 398.834C93.2519 398.902 93.4337 399.009 93.5897 399.148C107.387 411.43 127.196 428.256 143.249 438.67C145.811 440.421 148.654 441.721 151.655 442.513C164.145 445.717 176.681 438.865 185.004 432.572C185.341 432.317 185.764 432.206 186.182 432.264C186.599 432.322 186.977 432.543 187.232 432.879C187.486 433.215 187.597 433.639 187.539 434.056C187.482 434.474 187.26 434.852 186.924 435.106C178.705 441.324 170.61 445.038 162.982 446.151Z" fill="#129277"/>
<path d="M200 594.134C199.724 594.175 199.442 594.142 199.182 594.039C198.923 593.936 198.696 593.766 198.523 593.547L158.741 543.157C158.508 542.823 158.41 542.413 158.47 542.01C158.529 541.607 158.74 541.242 159.06 540.99C159.38 540.738 159.784 540.618 160.19 540.655C160.595 540.691 160.972 540.882 161.241 541.187L201.023 591.577C201.154 591.741 201.251 591.929 201.309 592.13C201.367 592.331 201.384 592.542 201.36 592.75C201.335 592.959 201.27 593.16 201.167 593.342C201.064 593.525 200.926 593.685 200.761 593.814C200.541 593.988 200.278 594.098 200 594.134Z" fill="#BC4632"/>
<path d="M129.074 657.168C128.862 657.2 128.646 657.188 128.438 657.133C128.231 657.078 128.037 656.982 127.868 656.849L119.186 650.089C119.021 649.961 118.883 649.802 118.779 649.621C118.676 649.439 118.61 649.239 118.583 649.032C118.557 648.825 118.572 648.615 118.627 648.414C118.682 648.213 118.777 648.024 118.905 647.859C119.033 647.695 119.192 647.557 119.373 647.453C119.554 647.35 119.754 647.283 119.961 647.257C120.168 647.231 120.378 647.246 120.58 647.301C120.781 647.356 120.969 647.45 121.134 647.578L129.816 654.339C130.144 654.598 130.357 654.976 130.407 655.391C130.457 655.806 130.341 656.224 130.084 656.554C129.841 656.883 129.479 657.104 129.074 657.168Z" fill="#EDEAD9"/>
<path d="M192.546 480.944C192.128 481.005 191.702 480.897 191.364 480.645C191.025 480.392 190.8 480.015 190.739 479.597L188.263 462.613C188.219 462.401 188.219 462.181 188.263 461.968C188.307 461.756 188.394 461.554 188.519 461.377C188.643 461.199 188.803 461.048 188.988 460.934C189.173 460.821 189.379 460.746 189.594 460.714C189.809 460.683 190.028 460.696 190.238 460.752C190.447 460.809 190.643 460.907 190.814 461.042C190.984 461.177 191.125 461.345 191.228 461.536C191.33 461.727 191.393 461.938 191.412 462.154L193.888 479.138C193.949 479.555 193.842 479.98 193.59 480.318C193.339 480.657 192.963 480.882 192.546 480.944Z" fill="#BC4632"/>
<path d="M441.96 377.72C441.763 377.748 441.563 377.74 441.368 377.697C439.136 377.17 437.015 376.253 435.102 374.987C434.794 374.733 434.594 374.371 434.541 373.975C434.488 373.579 434.586 373.178 434.816 372.851C435.046 372.524 435.39 372.295 435.781 372.211C436.171 372.127 436.579 372.193 436.923 372.396C438.502 373.422 440.246 374.168 442.077 374.603C442.439 374.686 442.76 374.894 442.984 375.19C443.209 375.485 443.323 375.85 443.306 376.221C443.29 376.592 443.144 376.945 442.894 377.219C442.644 377.494 442.306 377.672 441.939 377.724L441.96 377.72Z" fill="#FD510C"/>
<path d="M401.626 602.616C401.253 602.677 400.87 602.603 400.547 602.406C400.224 602.21 399.981 601.906 399.863 601.547C399.744 601.188 399.758 600.798 399.9 600.448C400.043 600.098 400.306 599.811 400.642 599.637L433.149 582.523C433.522 582.323 433.959 582.279 434.364 582.401C434.769 582.523 435.108 582.8 435.309 583.173C435.509 583.545 435.553 583.982 435.431 584.387C435.309 584.792 435.031 585.132 434.658 585.332L402.151 602.446C401.987 602.532 401.809 602.59 401.626 602.616Z" fill="#FFAABE"/>
<path d="M510.928 586.521C510.578 586.574 510.22 586.508 509.912 586.334C509.603 586.16 509.362 585.888 509.225 585.561C509.089 585.234 509.066 584.871 509.16 584.529C509.254 584.188 509.46 583.887 509.744 583.676L539.053 561.706C539.391 561.459 539.812 561.356 540.225 561.417C540.639 561.479 541.011 561.702 541.262 562.036C541.513 562.371 541.621 562.791 541.564 563.205C541.507 563.619 541.289 563.994 540.958 564.249L511.648 586.218C511.438 586.378 511.19 586.482 510.928 586.521Z" fill="#FFAABE"/>
<path d="M386.156 489.869C385.788 489.918 385.414 489.837 385.1 489.64C384.785 489.443 384.549 489.142 384.433 488.79C384.316 488.437 384.326 488.055 384.461 487.709C384.596 487.363 384.848 487.076 385.173 486.896L392.492 482.915C392.676 482.804 392.881 482.732 393.094 482.702C393.307 482.673 393.523 482.687 393.73 482.744C393.938 482.8 394.131 482.899 394.3 483.032C394.468 483.166 394.607 483.332 394.709 483.522C394.811 483.711 394.874 483.919 394.893 484.133C394.912 484.347 394.888 484.562 394.822 484.767C394.755 484.971 394.648 485.16 394.507 485.322C394.365 485.483 394.192 485.615 393.999 485.708L386.679 489.689C386.518 489.781 386.34 489.842 386.156 489.869Z" fill="#3A140F"/>
<path d="M418.602 370.675L382.355 375.338C382.147 375.366 381.935 375.352 381.732 375.297C381.529 375.241 381.339 375.146 381.174 375.017C381.008 374.888 380.869 374.727 380.767 374.543C380.664 374.36 380.599 374.158 380.575 373.949C380.532 373.53 380.653 373.111 380.912 372.779C381.171 372.448 381.548 372.229 381.964 372.168L418.205 367.5C418.61 367.465 419.013 367.586 419.332 367.839C419.651 368.091 419.861 368.456 419.92 368.858C419.979 369.261 419.881 369.67 419.648 370.003C419.414 370.336 419.063 370.567 418.664 370.65L418.602 370.675Z" fill="#EDEAD9"/>
<path d="M403.559 396.947C403.351 396.974 403.139 396.959 402.937 396.904C402.734 396.848 402.545 396.753 402.379 396.624C402.214 396.495 402.075 396.334 401.972 396.151C401.869 395.968 401.804 395.766 401.779 395.558L395.612 347.677C395.559 347.264 395.67 346.847 395.922 346.515C396.174 346.183 396.546 345.963 396.959 345.903L396.986 345.899C397.194 345.872 397.406 345.886 397.609 345.941C397.813 345.996 398.003 346.091 398.169 346.22C398.335 346.349 398.474 346.51 398.577 346.694C398.681 346.877 398.747 347.079 398.771 347.288L404.938 395.168C404.991 395.587 404.875 396.009 404.616 396.343C404.358 396.676 403.978 396.894 403.559 396.947Z" fill="#EDEAD9"/>
<path d="M391.146 384.579C390.836 384.619 390.52 384.566 390.24 384.428C389.959 384.289 389.726 384.071 389.569 383.8C389.412 383.529 389.339 383.218 389.358 382.906C389.377 382.594 389.488 382.294 389.677 382.044L408.251 357.973C408.508 357.639 408.888 357.421 409.307 357.366C409.725 357.312 410.148 357.426 410.482 357.684C410.816 357.941 411.035 358.321 411.089 358.739C411.143 359.158 411.029 359.58 410.772 359.915L392.158 383.981C391.911 384.304 391.548 384.518 391.146 384.579Z" fill="#EDEAD9"/>
<path d="M412.534 382.489C412.324 382.519 412.109 382.507 411.903 382.453C411.696 382.399 411.503 382.304 411.334 382.174L387.268 363.6C387.103 363.472 386.964 363.313 386.86 363.132C386.756 362.951 386.688 362.751 386.661 362.544C386.634 362.337 386.649 362.127 386.703 361.925C386.758 361.723 386.851 361.534 386.979 361.369C387.106 361.203 387.265 361.064 387.446 360.96C387.627 360.856 387.827 360.789 388.034 360.762C388.241 360.735 388.452 360.749 388.653 360.804C388.855 360.858 389.044 360.952 389.21 361.079L413.282 379.659C413.529 379.849 413.715 380.109 413.815 380.405C413.916 380.701 413.927 381.02 413.847 381.322C413.767 381.624 413.6 381.896 413.367 382.103C413.133 382.311 412.844 382.445 412.534 382.489Z" fill="#EDEAD9"/>
<path d="M525.425 347.828C525.197 347.864 524.965 347.85 524.743 347.787C524.521 347.725 524.316 347.615 524.14 347.465L499.653 325.659C499.497 325.52 499.37 325.352 499.279 325.164C499.188 324.975 499.135 324.771 499.123 324.563C499.111 324.354 499.14 324.145 499.209 323.948C499.277 323.751 499.384 323.569 499.523 323.413C499.662 323.257 499.831 323.13 500.019 323.039C500.207 322.948 500.411 322.895 500.62 322.883C500.828 322.871 501.037 322.9 501.234 322.969C501.432 323.037 501.613 323.144 501.769 323.283L526.258 345.062C526.484 345.264 526.648 345.526 526.73 345.817C526.812 346.109 526.81 346.418 526.723 346.708C526.636 346.998 526.468 347.257 526.239 347.455C526.01 347.654 525.73 347.783 525.43 347.827L525.425 347.828Z" fill="#FD510C"/>
<path d="M337.852 292.492L337.734 292.509L309.25 294.535C309.041 294.549 308.832 294.522 308.634 294.456C308.436 294.39 308.253 294.285 308.096 294.148C307.938 294.011 307.809 293.844 307.716 293.657C307.623 293.47 307.567 293.267 307.553 293.059C307.538 292.85 307.565 292.641 307.631 292.443C307.698 292.245 307.803 292.062 307.94 291.904C308.077 291.747 308.243 291.618 308.43 291.525C308.617 291.432 308.821 291.376 309.029 291.362L337.51 289.353C337.918 289.328 338.32 289.46 338.633 289.724C338.945 289.987 339.144 290.36 339.189 290.766C339.233 291.173 339.119 291.58 338.871 291.905C338.622 292.229 338.258 292.445 337.855 292.508L337.852 292.492Z" fill="#FD510C"/>
<path d="M315.68 266.659C315.396 266.701 315.105 266.665 314.839 266.555C314.573 266.445 314.342 266.264 314.171 266.033L310.749 261.419C310.625 261.251 310.535 261.061 310.484 260.858C310.433 260.655 310.423 260.445 310.453 260.238C310.484 260.031 310.555 259.833 310.662 259.654C310.77 259.475 310.911 259.318 311.079 259.194C311.247 259.069 311.437 258.979 311.64 258.928C311.843 258.878 312.053 258.867 312.26 258.898C312.467 258.929 312.665 259 312.844 259.107C313.023 259.214 313.18 259.356 313.304 259.524L316.726 264.143C316.855 264.311 316.948 264.503 317.001 264.708C317.054 264.912 317.066 265.126 317.035 265.335C317.005 265.544 316.933 265.745 316.824 265.926C316.715 266.107 316.571 266.265 316.4 266.389C316.185 266.535 315.938 266.628 315.68 266.659Z" fill="#3A140F"/>
<path d="M525.881 316.079C525.592 316.119 525.296 316.079 525.028 315.963C524.76 315.847 524.529 315.659 524.36 315.42C524.191 315.182 524.091 314.901 524.071 314.609C524.051 314.318 524.112 314.026 524.247 313.767C525.854 310.69 524.825 305.744 524.818 305.695C524.729 305.283 524.807 304.853 525.035 304.498C525.263 304.144 525.623 303.895 526.035 303.805C526.447 303.716 526.878 303.794 527.232 304.023C527.586 304.251 527.836 304.611 527.925 305.023C527.962 305.276 529.212 311.135 527.062 315.242C526.946 315.465 526.778 315.658 526.573 315.803C526.367 315.949 526.13 316.044 525.881 316.079Z" fill="#3A140F"/>
</g>
<defs>
<clipPath id="clip0_8_813">
<rect width="544" height="544" fill="white" transform="translate(0 205.482) rotate(-8.29492)"/>
</clipPath>
</defs>
</svg>
