<svg width="821" height="562" viewBox="0 0 821 562" fill="none" xmlns="http://www.w3.org/2000/svg">
<path d="M739.477 146.813C741.129 147.285 742.747 147.867 744.322 148.555L744.647 148.697C745.07 148.886 744.564 148.672 744.505 148.654C744.765 148.752 745.016 148.872 745.256 149.012C745.774 149.273 746.29 149.543 746.798 149.821C747.865 150.416 748.902 151.065 749.903 151.765C750.423 152.127 750.933 152.507 751.434 152.896L751.796 153.183L751.987 153.343L752.272 153.585L752.722 153.984C753.562 154.737 754.347 155.549 755.121 156.362C756.06 157.369 756.971 158.4 757.817 159.486L758.499 160.394C758.801 160.806 758.221 159.988 758.417 160.278L758.583 160.521L759.007 161.152C759.516 161.931 759.986 162.735 760.415 163.561C760.617 163.954 760.811 164.354 760.992 164.762C761.098 164.997 761.198 165.23 761.312 165.473L761.439 165.794C761.561 166.082 761.266 165.304 761.42 165.751C761.783 166.766 762.075 167.805 762.293 168.86C762.391 169.348 762.467 169.841 762.535 170.341C762.604 170.842 762.557 170.268 762.526 170.248C762.55 170.376 762.561 170.506 762.559 170.636C762.585 170.959 762.604 171.284 762.612 171.612C762.632 172.545 762.599 173.478 762.513 174.406C762.473 174.826 762.422 175.242 762.367 175.657C762.344 175.762 762.327 175.87 762.318 175.978C762.304 175.44 762.39 175.562 762.376 175.787C762.361 176.012 762.279 176.322 762.224 176.593C762.037 177.537 761.793 178.468 761.493 179.381C761.36 179.825 761.189 180.252 761.013 180.678C760.959 180.771 760.916 180.871 760.886 180.975C760.94 180.565 761.088 180.551 760.945 180.779C760.802 181.007 760.715 181.242 760.59 181.481C760.386 181.861 760.161 182.23 759.917 182.585C759.804 182.748 759.687 182.909 759.566 183.064C759.444 183.218 759.23 183.275 759.669 182.951C759.579 183.032 759.497 183.121 759.423 183.217C759.149 183.503 758.856 183.769 758.544 184.014C758.367 184.162 758.295 184.065 758.739 183.881C758.658 183.925 758.581 183.974 758.508 184.029C758.315 184.148 758.115 184.256 757.91 184.352C757.299 184.612 758.273 184.261 757.902 184.376C757.688 184.433 757.477 184.496 757.261 184.542L756.843 184.621C756.766 184.63 756.29 184.686 756.641 184.655C756.991 184.624 756.327 184.671 756.327 184.671C756.15 184.675 755.967 184.678 755.793 184.672C755.472 184.698 755.148 184.676 754.832 184.607C754.9 184.628 755.377 184.726 754.876 184.62L754.464 184.52C754.195 184.438 753.927 184.356 753.658 184.273C753.122 184.071 753.697 184.285 753.712 184.29C753.517 184.21 753.334 184.104 753.167 183.973C753.052 183.895 752.942 183.803 752.825 183.73C753.187 183.963 752.979 183.873 752.883 183.748C752.788 183.622 752.402 183.328 752.423 183.239C752.384 183.37 752.699 183.67 752.462 183.251C752.399 183.153 752.343 183.052 752.292 182.948C752.238 182.846 752.196 182.737 752.141 182.635C752.086 182.533 752.293 183.14 752.151 182.601C752.085 182.378 752.051 182.154 751.996 181.93C751.913 181.584 751.992 182.547 752.004 181.991C752.006 181.879 751.997 181.765 752.005 181.65C752.016 181.616 752.026 181.315 752.026 181.315C752.026 181.315 751.866 181.97 751.975 181.486C752.007 181.379 752.038 181.276 752.07 181.169C752.102 181.061 752.118 181.008 752.142 180.93C752.199 180.739 752.174 180.822 752.026 181.171C752.09 181.191 752.28 180.647 752.388 180.606C752.202 180.676 752.094 180.91 752.358 180.708C752.444 180.613 752.541 180.528 752.647 180.456C752.4 180.497 752.335 180.642 752.582 180.511C752.727 180.438 752.859 180.35 753.003 180.282C753.146 180.214 753.454 180.075 753.142 180.208C752.83 180.341 753.312 180.159 753.388 180.134C753.671 180.055 753.957 179.99 754.246 179.939L754.638 179.878C754.033 179.906 755.023 179.804 754.638 179.878C755.321 179.835 756.006 179.83 756.689 179.863C756.998 179.883 757.3 179.906 757.604 179.941L758.059 180.006C757.546 179.939 757.961 179.976 758.059 180.006C758.727 180.14 759.387 180.314 760.035 180.527C760.367 180.629 760.686 180.753 760.995 180.88C761.068 180.902 761.51 181.097 761.214 180.947C760.918 180.798 761.361 180.992 761.424 181.049C762.05 181.361 762.657 181.711 763.241 182.097C763.683 182.398 764.119 182.723 764.55 183.063C764.98 183.403 764.55 183.063 764.5 183.016C764.608 183.09 764.708 183.176 764.796 183.272C765.031 183.483 765.263 183.703 765.489 183.927C766.218 184.644 766.892 185.416 767.504 186.235C767.569 186.319 767.654 186.5 767.744 186.554C767.705 186.542 767.39 186.046 767.63 186.402L767.967 186.894C768.188 187.239 768.408 187.589 768.617 187.941C768.958 188.579 769.31 189.182 769.641 189.854C769.896 190.354 770.132 190.863 770.354 191.384C770.453 191.623 770.562 191.864 770.668 192.115C770.489 191.591 770.604 191.935 770.64 192.048C770.676 192.16 770.77 192.413 770.834 192.592C771.18 193.633 771.467 194.692 771.692 195.766C771.796 196.272 771.887 196.785 771.964 197.293C771.998 197.533 772.034 197.768 772.064 198.006C772.087 198.123 772.101 198.242 772.107 198.36C772.14 197.736 772.093 198.228 772.093 198.404C772.27 200.358 772.279 202.322 772.12 204.276C772.057 205.125 771.962 205.975 771.84 206.823C771.812 206.915 771.711 207.678 771.786 207.179C771.862 206.68 771.745 207.422 771.726 207.523C771.658 207.907 771.586 208.29 771.504 208.67C771.259 209.863 770.961 211.044 770.61 212.212C770.501 212.573 770.393 212.934 770.283 213.3C770.088 213.947 770.159 214.647 770.479 215.245C770.799 215.843 771.343 216.29 771.99 216.489C772.637 216.673 773.328 216.599 773.92 216.284C774.511 215.969 774.957 215.436 775.163 214.798C777.44 207.912 778.17 200.162 776.274 193.078C775.148 188.806 773.054 184.846 770.156 181.506C766.258 177.112 760.46 174.267 754.53 174.808C751.366 175.085 748.185 176.411 747.15 179.696C746.76 181.07 746.766 182.528 747.167 183.903C747.567 185.278 748.346 186.514 749.414 187.469C750.694 188.511 752.199 189.235 753.808 189.583C755.416 189.931 757.082 189.893 758.669 189.472C760.869 188.858 762.776 187.481 764.053 185.587C766.564 182.141 767.523 177.409 767.689 173.218C767.82 168.439 766.552 163.718 764.041 159.637C759.277 151.81 751.979 145.848 743.373 142.753C742.575 142.465 741.763 142.205 740.943 141.97C740.296 141.771 739.598 141.838 739.003 142.155C738.408 142.472 737.964 143.014 737.77 143.661C737.575 144.308 737.646 145.008 737.966 145.606C738.286 146.204 738.83 146.651 739.477 146.85L739.477 146.813Z" fill="#FFAABE"/>
<path d="M751.069 412.087L730.822 410.245C730.711 410.234 730.599 410.251 730.496 410.293C730.392 410.335 730.301 410.402 730.229 410.487C730.158 410.573 730.109 410.675 730.085 410.784C730.062 410.894 730.066 411.007 730.097 411.115L733.331 423.042C733.374 423.189 733.367 423.345 733.311 423.487C733.255 423.628 733.154 423.747 733.024 423.824C732.893 423.902 732.74 423.934 732.589 423.915C732.438 423.896 732.297 423.828 732.188 423.72L723.364 415.113C723.284 415.031 723.184 414.969 723.075 414.935C722.965 414.9 722.849 414.893 722.737 414.915C722.624 414.936 722.519 414.986 722.431 415.058C722.343 415.131 722.274 415.225 722.231 415.331L713.327 436.638C713.262 436.788 713.145 436.909 712.997 436.981C712.85 437.052 712.682 437.069 712.523 437.028C712.364 436.987 712.224 436.89 712.128 436.756C712.033 436.622 711.988 436.459 712.001 436.296L714.468 413.304C714.48 413.191 714.465 413.078 714.424 412.973C714.382 412.868 714.316 412.774 714.23 412.7C714.144 412.627 714.042 412.575 713.932 412.55C713.822 412.526 713.707 412.528 713.599 412.558L701.755 415.763C701.609 415.803 701.454 415.794 701.313 415.738C701.172 415.682 701.053 415.581 700.974 415.452C700.895 415.322 700.861 415.17 700.876 415.019C700.892 414.869 700.956 414.727 701.059 414.617L709.586 405.772C709.667 405.694 709.728 405.598 709.763 405.491C709.798 405.384 709.806 405.27 709.787 405.159C709.768 405.048 709.721 404.944 709.652 404.854C709.583 404.765 709.494 404.694 709.391 404.647L689.65 396.018C689.5 395.952 689.378 395.834 689.305 395.686C689.233 395.538 689.216 395.37 689.256 395.211C689.296 395.052 689.391 394.913 689.525 394.818C689.658 394.723 689.821 394.679 689.984 394.693L711.389 396.832C711.498 396.84 711.606 396.822 711.706 396.781C711.806 396.74 711.894 396.675 711.964 396.593C712.035 396.511 712.085 396.414 712.11 396.309C712.136 396.204 712.137 396.094 712.113 395.988L708.87 384.036C708.83 383.89 708.84 383.735 708.897 383.595C708.953 383.455 709.055 383.338 709.185 383.262C709.315 383.185 709.466 383.153 709.616 383.171C709.767 383.189 709.907 383.255 710.017 383.36L718.837 391.965C718.917 392.048 719.017 392.11 719.127 392.144C719.237 392.179 719.354 392.185 719.466 392.163C719.579 392.141 719.684 392.091 719.772 392.018C719.861 391.944 719.929 391.85 719.971 391.743L729.081 369.663C729.141 369.505 729.257 369.376 729.407 369.299C729.557 369.222 729.731 369.204 729.894 369.246C730.058 369.289 730.2 369.391 730.295 369.532C730.389 369.672 730.428 369.843 730.405 370.01L727.783 393.785C727.773 393.894 727.789 394.004 727.83 394.106C727.871 394.207 727.935 394.298 728.017 394.37C728.1 394.442 728.198 394.494 728.305 394.521C728.411 394.547 728.521 394.548 728.628 394.524L740.47 391.324C740.616 391.286 740.771 391.297 740.911 391.356C741.051 391.414 741.168 391.517 741.244 391.648C741.321 391.779 741.353 391.931 741.335 392.081C741.318 392.231 741.251 392.371 741.147 392.479L732.617 401.334C732.537 401.412 732.477 401.509 732.443 401.616C732.409 401.722 732.401 401.836 732.42 401.946C732.439 402.057 732.485 402.161 732.553 402.251C732.621 402.34 732.71 402.412 732.812 402.459L751.394 410.775C751.534 410.847 751.647 410.964 751.713 411.107C751.779 411.25 751.794 411.412 751.756 411.564C751.718 411.717 751.629 411.852 751.505 411.947C751.38 412.042 751.226 412.091 751.069 412.087Z" fill="#EE9334"/>
<path d="M719.971 242.804C709.859 241.102 699.484 242.421 690.159 246.594C680.834 250.768 672.978 257.609 667.583 266.253C662.189 274.896 659.5 284.954 659.855 295.153C660.209 305.353 663.593 315.237 669.577 323.555C675.561 331.873 683.877 338.252 693.474 341.885C703.071 345.518 713.516 346.241 723.491 343.965C733.465 341.688 742.52 336.513 749.51 329.094C756.501 321.675 761.112 312.345 762.762 302.284C764.974 288.793 761.708 274.947 753.683 263.793C745.659 252.638 733.532 245.089 719.971 242.804ZM706.433 325.357C700.135 324.296 694.282 321.401 689.616 317.038C684.95 312.675 681.68 307.039 680.219 300.844C678.758 294.649 679.173 288.173 681.409 282.234C683.646 276.295 687.605 271.16 692.785 267.48C697.966 263.799 704.135 261.737 710.513 261.555C716.891 261.373 723.191 263.078 728.617 266.456C734.043 269.834 738.351 274.733 740.996 280.532C743.64 286.331 744.504 292.771 743.476 299.038C742.795 303.2 741.296 307.182 739.065 310.759C736.835 314.335 733.916 317.434 730.476 319.879C727.036 322.325 723.141 324.069 719.015 325.011C714.889 325.953 710.612 326.076 706.429 325.372L706.433 325.357Z" fill="#FD510C"/>
<path d="M623.658 324.187C648.233 328.345 666.81 345.692 671.124 366.143C675.426 363.95 679.085 360.683 681.746 356.657C684.408 352.63 685.983 347.98 686.319 343.155L693.533 239.179L584.617 220.747L558.157 322.186C557.085 326.775 557.185 331.566 558.447 336.12C559.71 340.674 562.094 344.845 565.381 348.25C575.955 330.317 599.078 320.028 623.658 324.187Z" fill="#FD510C"/>
<path d="M600.069 285.99C599.862 285.931 599.674 285.822 599.522 285.674L578.87 265.525C578.637 265.287 578.51 264.97 578.514 264.644C578.519 264.317 578.655 264.005 578.894 263.776C579.133 263.546 579.455 263.417 579.793 263.415C580.131 263.413 580.457 263.539 580.702 263.766L601.354 283.915C601.556 284.113 601.684 284.371 601.719 284.647C601.753 284.923 601.692 285.202 601.545 285.439C601.398 285.677 601.173 285.86 600.906 285.96C600.639 286.059 600.345 286.07 600.069 285.99Z" fill="#3A140F"/>
<path d="M576.49 271.271C576.191 271.182 575.935 270.988 575.768 270.723C575.602 270.459 575.538 270.144 575.587 269.837C575.637 269.53 575.797 269.252 576.038 269.056C576.279 268.86 576.584 268.76 576.894 268.774L583.801 269.021L583.682 262.836C583.678 262.5 583.807 262.176 584.042 261.936C584.276 261.696 584.596 261.558 584.932 261.554C585.268 261.549 585.594 261.678 585.837 261.912C586.08 262.146 586.222 262.466 586.231 262.803L586.399 271.66L576.821 271.324C576.709 271.322 576.598 271.304 576.49 271.271Z" fill="#3A140F"/>
<path d="M655.152 369.966C661.697 370.999 668.401 369.96 674.24 367.008C669.676 347.119 650.545 330.33 625.423 326.456C600.302 322.583 576.783 332.782 566.146 350.34C570.771 354.903 576.821 357.907 583.375 358.896L655.152 369.966Z" fill="#EDEAD9"/>
<path d="M649.98 291.21C649.735 291.135 649.518 290.989 649.357 290.791C649.195 290.594 649.097 290.353 649.075 290.1C649.052 289.847 649.106 289.594 649.23 289.373C649.354 289.151 649.542 288.973 649.77 288.859L675.572 276.117C675.873 275.986 676.213 275.976 676.522 276.088C676.832 276.2 677.087 276.425 677.234 276.718C677.382 277.01 677.411 277.347 677.315 277.659C677.22 277.971 677.007 278.233 676.72 278.392L650.918 291.134C650.627 291.277 650.291 291.304 649.98 291.21Z" fill="#3A140F"/>
<path d="M676.535 283.795L667.324 280.971L670.31 272.683C670.365 272.525 670.452 272.381 670.564 272.257C670.676 272.133 670.812 272.033 670.965 271.962C671.117 271.891 671.282 271.851 671.45 271.844C671.618 271.837 671.786 271.864 671.944 271.922C672.264 272.038 672.525 272.274 672.67 272.58C672.816 272.885 672.834 273.234 672.72 273.551L670.637 279.335L677.285 281.35C677.611 281.449 677.884 281.672 678.045 281.969C678.206 282.266 678.242 282.614 678.144 282.936C678.047 283.258 677.824 283.528 677.525 283.686C677.226 283.844 676.876 283.877 676.55 283.779L676.535 283.795Z" fill="#3A140F"/>
<path d="M616.153 328.217C630.848 332.695 646.335 324.484 650.744 309.876C655.154 295.269 646.816 279.797 632.121 275.319C617.426 270.84 601.939 279.052 597.529 293.659C593.12 308.267 601.458 323.739 616.153 328.217Z" fill="#EDEAD9"/>
<path d="M622.173 279.621C630.857 282.267 640.01 277.414 642.616 268.781C645.222 260.149 640.294 251.005 631.609 248.358C622.925 245.712 613.772 250.565 611.166 259.198C608.56 267.83 613.488 276.974 622.173 279.621Z" fill="#EDEAD9"/>
<path d="M623.374 293.332C624.904 293.798 626.517 292.943 626.976 291.422C627.436 289.901 626.567 288.289 625.037 287.823C623.507 287.357 621.894 288.212 621.435 289.733C620.975 291.254 621.844 292.865 623.374 293.332Z" fill="#3A140F"/>
<path d="M621.79 306.324C623.32 306.79 624.933 305.935 625.392 304.414C625.852 302.893 624.983 301.282 623.453 300.815C621.923 300.349 620.31 301.204 619.851 302.725C619.391 304.246 620.26 305.858 621.79 306.324Z" fill="#3A140F"/>
<path d="M620.21 319.323C621.74 319.789 623.353 318.934 623.812 317.413C624.272 315.891 623.403 314.28 621.873 313.814C620.343 313.347 618.73 314.203 618.271 315.724C617.811 317.245 618.68 318.856 620.21 319.323Z" fill="#3A140F"/>
<path d="M660.662 312.78C660.322 312.709 660.025 312.514 659.836 312.237C659.648 311.96 659.583 311.625 659.656 311.305C659.729 310.985 659.934 310.706 660.226 310.53C660.518 310.354 660.873 310.295 661.213 310.367L677.653 312.756C677.999 312.806 678.311 312.984 678.519 313.251C678.728 313.517 678.816 313.85 678.765 314.176C678.714 314.502 678.528 314.795 678.247 314.99C677.966 315.184 677.614 315.266 677.268 315.215L660.828 312.826L660.662 312.78Z" fill="#FFAABE"/>
<path d="M667.326 324.882C667.039 324.792 666.792 324.594 666.631 324.326C666.47 324.057 666.406 323.737 666.45 323.423L669.595 301.742C669.645 301.397 669.823 301.088 670.088 300.883C670.354 300.678 670.687 300.594 671.013 300.65C671.338 300.706 671.631 300.896 671.826 301.18C672.021 301.464 672.102 301.817 672.052 302.163L668.912 323.845C668.888 324.015 668.832 324.177 668.749 324.324C668.665 324.47 668.555 324.597 668.425 324.698C668.294 324.799 668.146 324.871 667.989 324.911C667.832 324.95 667.669 324.956 667.509 324.929C667.447 324.92 667.386 324.904 667.326 324.882Z" fill="#FFAABE"/>
<path d="M663.449 317.72C663.181 317.637 662.948 317.467 662.785 317.237C662.688 317.1 662.618 316.945 662.579 316.781C662.541 316.617 662.535 316.447 662.562 316.281C662.589 316.115 662.648 315.956 662.736 315.813C662.824 315.671 662.939 315.547 663.075 315.45L673.975 307.623C674.249 307.424 674.591 307.344 674.926 307.4C675.26 307.456 675.56 307.643 675.759 307.921C675.958 308.198 676.039 308.543 675.986 308.88C675.933 309.217 675.749 309.518 675.474 309.717L664.575 317.544C664.414 317.66 664.229 317.736 664.033 317.767C663.838 317.798 663.638 317.781 663.449 317.72Z" fill="#FFAABE"/>
<path d="M672.832 319.534C672.561 319.453 672.324 319.285 672.16 319.058L664.212 308.166C664.112 308.032 664.039 307.88 663.998 307.718C663.958 307.557 663.949 307.389 663.974 307.225C663.999 307.061 664.057 306.903 664.144 306.762C664.231 306.62 664.345 306.496 664.481 306.398C664.617 306.3 664.771 306.23 664.934 306.191C665.098 306.151 665.268 306.144 665.435 306.17C665.602 306.196 665.763 306.253 665.907 306.34C666.052 306.426 666.178 306.54 666.278 306.674L674.251 317.573C674.407 317.788 674.492 318.046 674.493 318.311C674.493 318.575 674.41 318.832 674.254 319.046C674.098 319.26 673.878 319.421 673.624 319.505C673.37 319.589 673.095 319.592 672.838 319.515L672.832 319.534Z" fill="#FFAABE"/>
<path d="M584.837 252.499C584.669 252.464 584.509 252.397 584.368 252.304C584.226 252.211 584.105 252.093 584.012 251.956C583.918 251.819 583.854 251.666 583.823 251.506C583.792 251.346 583.795 251.182 583.831 251.023C583.867 250.865 583.936 250.715 584.034 250.582C584.132 250.449 584.257 250.336 584.401 250.249C584.546 250.162 584.708 250.102 584.877 250.074C585.046 250.046 585.22 250.05 585.388 250.085L601.815 252.481C602.161 252.532 602.473 252.709 602.681 252.976C602.89 253.242 602.979 253.575 602.928 253.901C602.876 254.227 602.69 254.52 602.409 254.715C602.128 254.91 601.776 254.991 601.43 254.94L584.99 252.551C584.938 252.538 584.886 252.52 584.837 252.499Z" fill="#FFAABE"/>
<path d="M591.5 264.605C591.213 264.514 590.966 264.316 590.806 264.046C590.645 263.777 590.583 263.456 590.63 263.142L593.77 241.46C593.82 241.115 593.997 240.805 594.263 240.601C594.529 240.396 594.862 240.312 595.187 240.368C595.513 240.423 595.806 240.614 596 240.898C596.195 241.181 596.277 241.535 596.226 241.88L593.086 263.563C593.062 263.733 593.007 263.896 592.923 264.042C592.84 264.189 592.73 264.317 592.599 264.418C592.469 264.519 592.321 264.592 592.163 264.632C592.006 264.672 591.843 264.679 591.683 264.652L591.5 264.605Z" fill="#FFAABE"/>
<path d="M587.623 257.438C587.398 257.368 587.195 257.237 587.039 257.058C586.882 256.879 586.778 256.66 586.738 256.426C586.698 256.191 586.723 255.951 586.811 255.731C586.899 255.511 587.046 255.32 587.236 255.18L598.136 247.348C598.27 247.249 598.423 247.178 598.585 247.139C598.747 247.099 598.915 247.092 599.08 247.118C599.245 247.145 599.403 247.203 599.546 247.291C599.688 247.378 599.813 247.493 599.912 247.629C600.011 247.765 600.082 247.919 600.122 248.083C600.162 248.246 600.17 248.416 600.145 248.582C600.12 248.748 600.063 248.907 599.977 249.05C599.891 249.194 599.777 249.318 599.643 249.417L588.749 257.246C588.589 257.364 588.405 257.442 588.209 257.476C588.014 257.509 587.813 257.496 587.623 257.438Z" fill="#FFAABE"/>
<path d="M597.011 259.236C596.74 259.155 596.504 258.988 596.339 258.76L588.391 247.885C588.291 247.751 588.218 247.599 588.177 247.437C588.137 247.276 588.129 247.108 588.153 246.944C588.178 246.78 588.236 246.623 588.323 246.481C588.41 246.339 588.524 246.215 588.66 246.117C588.796 246.02 588.95 245.949 589.114 245.91C589.277 245.871 589.448 245.864 589.615 245.889C589.781 245.915 589.942 245.972 590.086 246.059C590.231 246.145 590.357 246.259 590.458 246.393L598.43 257.292C598.587 257.507 598.672 257.765 598.672 258.029C598.673 258.293 598.589 258.551 598.434 258.765C598.278 258.979 598.057 259.139 597.803 259.223C597.549 259.307 597.275 259.311 597.017 259.233L597.011 259.236Z" fill="#FFAABE"/>
<path d="M626.452 265.2C626.163 265.107 625.915 264.908 625.755 264.639C625.594 264.371 625.531 264.052 625.579 263.74L626.418 258.308C626.471 257.965 626.652 257.659 626.922 257.458C627.192 257.256 627.528 257.175 627.857 257.233C628.185 257.29 628.479 257.481 628.674 257.764C628.869 258.047 628.949 258.399 628.896 258.742L628.057 264.174C628.004 264.515 627.824 264.819 627.556 265.019C627.288 265.22 626.954 265.301 626.627 265.244L626.452 265.2Z" fill="#EE9334"/>
<path d="M624.862 271.604C622.371 270.813 620.173 269.344 618.54 267.38C618.333 267.115 618.243 266.784 618.292 266.458C618.34 266.132 618.523 265.839 618.799 265.643C619.075 265.447 619.422 265.364 619.764 265.413C620.106 265.461 620.415 265.637 620.623 265.902C620.842 266.181 625.72 272.354 632.597 267.745C632.735 267.64 632.894 267.563 633.065 267.519C633.236 267.474 633.415 267.464 633.591 267.488C633.767 267.512 633.936 267.57 634.088 267.658C634.24 267.747 634.372 267.864 634.475 268.002C634.578 268.14 634.651 268.297 634.688 268.463C634.726 268.628 634.727 268.799 634.693 268.965C634.659 269.131 634.589 269.288 634.489 269.427C634.389 269.566 634.259 269.683 634.109 269.772C630.562 272.185 627.404 272.324 624.862 271.604Z" fill="#3A140F"/>
<path d="M580.525 221.361C580.211 223.309 581.394 225.423 583.801 227.579L581.12 219.826C580.818 220.289 580.616 220.812 580.525 221.361Z" fill="#BC4632"/>
<path d="M646.074 241.638L645.669 240.752C645.001 241.438 644.194 241.985 643.298 242.359L641.029 243.3C643.371 243.607 645.672 243.868 647.93 244.084C647.133 243.41 646.499 242.575 646.074 241.638Z" fill="#BC4632"/>
<path d="M605.865 218.692L618.568 222.924C619.611 223.272 620.559 223.839 621.338 224.582C622.118 225.326 622.708 226.227 623.065 227.216L633.797 222.719C635.557 221.981 637.559 221.935 639.365 222.592C641.17 223.248 642.631 224.553 643.425 226.219L643.843 227.093C644.507 226.41 645.314 225.863 646.212 225.486L658.467 220.35C659.339 219.982 660.28 219.781 661.237 219.757C662.194 219.734 663.148 219.889 664.044 220.213C664.94 220.538 665.761 221.026 666.459 221.649C667.157 222.272 667.719 223.018 668.113 223.845L669.731 227.241L673.6 222.525C664.231 219.106 651.95 216.058 638.327 214.077C624.554 212.055 611.757 211.441 601.71 212.056L604.175 218.335C604.75 218.39 605.318 218.51 605.865 218.692Z" fill="#BC4632"/>
<path d="M692.233 235.151C692.336 234.447 692.266 233.725 692.029 233.054C691.885 233.298 691.728 233.533 691.559 233.759L686.534 240.282C689.863 238.988 691.925 237.282 692.233 235.151Z" fill="#BC4632"/>
<path d="M671.733 115.172L650.006 131.359L676.384 141.735L671.733 115.172Z" fill="#FD510C"/>
<path d="M669.059 122.27C673.231 123.541 677.627 121.21 678.879 117.063C680.131 112.916 677.764 108.523 673.592 107.252C669.42 105.98 665.023 108.312 663.771 112.459C662.52 116.606 664.887 120.998 669.059 122.27Z" fill="#EDEAD9"/>
<path d="M663.814 173.203C664.124 171.319 664.894 169.543 666.056 168.03C667.217 166.518 668.736 165.314 670.478 164.525C672.22 163.737 674.132 163.387 676.047 163.507C677.961 163.628 679.82 164.214 681.459 165.215C681.641 164.489 681.8 163.751 681.924 163.002C683.012 156.443 681.643 149.699 678.077 144.051C674.511 138.403 668.995 134.242 662.576 132.359C656.157 130.476 649.282 131 643.254 133.834C637.225 136.667 632.464 141.612 629.873 147.73C630.095 147.756 630.322 147.782 630.545 147.824C633.269 148.282 635.748 149.683 637.546 151.78C639.344 153.876 640.345 156.533 640.372 159.282C640.399 162.031 639.452 164.695 637.696 166.805C635.94 168.916 633.488 170.336 630.774 170.816C634.031 177.105 639.612 181.897 646.333 184.177C653.054 186.457 660.387 186.045 666.777 183.029C665.565 181.72 664.668 180.154 664.154 178.451C663.641 176.748 663.525 174.953 663.814 173.203Z" fill="#EE9334"/>
<path d="M682.318 164.73C679.932 163.236 677.101 162.669 674.348 163.132C671.595 163.596 669.105 165.059 667.338 167.252C665.571 169.445 664.645 172.22 664.733 175.065C664.82 177.909 665.914 180.632 667.812 182.73C671.387 181.01 674.541 178.504 677.048 175.393C679.556 172.281 681.355 168.64 682.318 164.73Z" fill="#FFAABE"/>
<path d="M639.717 162.369C640.211 159.282 639.484 156.113 637.696 153.56C635.908 151.007 633.205 149.278 630.182 148.754C629.969 148.688 629.738 148.685 629.519 148.66C628.688 150.67 628.093 152.775 627.746 154.931C626.802 160.761 627.733 166.758 630.4 172.023C632.743 171.598 634.896 170.442 636.564 168.714C638.231 166.986 639.333 164.77 639.717 162.369Z" fill="#FFAABE"/>
<path d="M653.551 162.445C655.23 162.956 656.999 162.018 657.503 160.349C658.007 158.68 657.054 156.912 655.375 156.401C653.696 155.889 651.927 156.827 651.423 158.496C650.919 160.165 651.872 161.933 653.551 162.445Z" fill="#FD510C"/>
<path d="M651.186 172.9C650.991 172.845 650.786 172.787 650.581 172.728C645.647 170.993 644.354 166.415 644.224 165.897C644.175 165.736 644.16 165.567 644.181 165.4C644.202 165.234 644.258 165.073 644.346 164.928C644.434 164.784 644.552 164.658 644.693 164.558C644.834 164.458 644.995 164.387 645.166 164.348C645.337 164.31 645.514 164.305 645.688 164.333C645.862 164.362 646.028 164.424 646.176 164.515C646.324 164.607 646.452 164.726 646.551 164.865C646.65 165.004 646.718 165.161 646.752 165.326C646.792 165.482 647.775 169.098 651.466 170.398C655.344 171.762 658.642 169.33 658.682 169.29C658.952 169.1 659.29 169.018 659.625 169.061C659.959 169.105 660.263 169.27 660.474 169.522C660.685 169.774 660.786 170.093 660.755 170.413C660.725 170.733 660.566 171.028 660.311 171.237C660.141 171.349 656.154 174.31 651.186 172.9Z" fill="#BC4632"/>
<path d="M616.94 167.529L685.618 191.683C687.007 192.148 688.25 192.956 689.223 194.029C689.946 194.804 690.463 195.738 690.731 196.75C690.999 197.761 691.009 198.819 690.761 199.832C690.761 199.832 689.682 206.207 682.43 205.187C680.834 204.964 679.237 204.729 677.627 204.586L662.784 203.249L653.782 231.639L605.112 223.769L619.383 190.516L606.238 179.084C604.794 177.855 603.793 176.21 603.383 174.391C603.256 173.786 603.199 173.17 603.21 172.553C603.226 171.955 603.337 170.054 604.317 168.686C606.242 165.994 611.463 165.298 616.94 167.529Z" fill="#EE9334"/>
<path d="M630.826 171.335C629.485 172.433 628.484 173.864 627.932 175.473C627.38 177.082 627.298 178.807 627.695 180.464C628.091 182.121 628.951 183.645 630.181 184.873C631.412 186.1 632.966 186.984 634.676 187.428C634.878 187.975 636.898 193.238 642.822 194.999C648.478 196.678 653.019 193.775 653.569 193.414C655.141 194.37 656.966 194.868 658.822 194.847C660.677 194.826 662.482 194.286 664.016 193.294C665.55 192.302 666.747 190.9 667.459 189.261C668.171 187.621 668.369 185.815 668.027 184.062C668.027 184.062 644.004 194.575 630.826 171.335Z" fill="#EDEAD9"/>
<path d="M637.332 207.929C639.119 208.474 641.003 207.475 641.539 205.698C642.075 203.922 641.061 202.04 639.274 201.496C637.487 200.951 635.603 201.95 635.067 203.726C634.531 205.503 635.545 207.384 637.332 207.929Z" fill="#129277"/>
<path d="M633.125 223.426C634.912 223.971 636.795 222.972 637.332 221.196C637.868 219.419 636.854 217.537 635.067 216.993C633.279 216.448 631.396 217.447 630.86 219.223C630.323 221 631.337 222.882 633.125 223.426Z" fill="#129277"/>
<path d="M666.013 240.262L657.066 243.99C661.824 244.218 666.269 244.23 670.296 244.045L667.653 242.045C667.004 241.545 666.449 240.942 666.013 240.262Z" fill="#BC4632"/>
<path d="M601.263 213.176L600.146 210.048C599.512 208.284 598.194 206.836 596.483 206.024C594.773 205.211 592.809 205.1 591.024 205.716L584.391 207.985C583.506 208.288 582.691 208.759 581.993 209.374C581.295 209.988 580.727 210.733 580.322 211.565C579.917 212.398 579.683 213.302 579.633 214.226C579.583 215.15 579.718 216.076 580.03 216.951L580.834 219.202C583.015 215.803 590.593 213.728 601.263 213.176Z" fill="#EDEAD9"/>
<path d="M594.065 230.955L596.453 224.417C596.993 222.936 598.018 221.68 599.364 220.85C600.709 220.02 602.298 219.663 603.877 219.836L601.561 213.339C590.907 213.879 583.385 215.95 581.209 219.361L583.921 227.046C586.172 229.016 589.482 231.021 593.63 232.962C593.677 232.275 593.824 231.599 594.065 230.955Z" fill="#EDEAD9"/>
<path d="M618.718 224.203L606.227 219.755C605.675 219.562 605.101 219.435 604.518 219.376L605.498 222.069C605.814 222.938 605.952 223.857 605.903 224.775C605.855 225.693 605.621 226.591 605.215 227.419C604.809 228.247 604.24 228.987 603.539 229.598C602.838 230.21 602.019 230.679 601.13 230.981L595.425 232.922C601.693 235.656 609.689 238.246 618.764 240.398L617.891 238.45C617.13 236.743 617.093 234.816 617.789 233.092C618.484 231.368 619.856 229.988 621.601 229.254L623.106 228.623C622.766 227.612 622.194 226.688 621.433 225.922C620.673 225.156 619.744 224.568 618.718 224.203Z" fill="#EDEAD9"/>
<path d="M605.161 222.256L604.215 219.491C602.662 219.314 601.101 219.676 599.778 220.519C598.455 221.361 597.448 222.635 596.917 224.138L594.569 230.773C594.341 231.426 594.207 232.109 594.169 232.803L595.327 233.355L600.886 231.378C602.633 230.757 604.065 229.447 604.867 227.736C605.669 226.026 605.774 224.055 605.161 222.256Z" fill="#EDEAD9"/>
<path d="M645.082 240.898L642.677 235.405C642.121 234.134 641.953 232.733 642.193 231.374C642.434 230.014 643.073 228.757 644.031 227.758L643.634 226.855C642.88 225.133 641.467 223.774 639.706 223.077C637.946 222.38 635.982 222.402 634.247 223.137L623.659 227.622C624.161 229.121 624.138 230.741 623.595 232.22L621.204 238.743C621.067 239.115 620.897 239.475 620.696 239.818C624.98 240.827 629.488 241.734 634.158 242.511C636.291 242.87 638.399 243.184 640.479 243.468L642.73 242.518C643.618 242.142 644.418 241.591 645.082 240.898Z" fill="#EDEAD9"/>
<path d="M618.284 238.31L619.125 240.323L620.458 240.66C620.652 240.308 620.816 239.939 620.949 239.557L623.255 232.868C623.779 231.351 623.798 229.69 623.308 228.154L621.859 228.806C620.178 229.564 618.858 230.99 618.187 232.772C617.517 234.554 617.552 236.545 618.284 238.31Z" fill="#EDEAD9"/>
<path d="M642.968 235.012L645.317 240.617C646.251 239.597 646.875 238.315 647.109 236.928C647.344 235.541 647.18 234.111 646.637 232.815L644.289 227.21C643.354 228.23 642.73 229.512 642.496 230.899C642.261 232.286 642.425 233.716 642.968 235.012Z" fill="#EDEAD9"/>
<path d="M691.609 232.905C692.526 231.456 692.859 229.73 692.547 228.052C692.234 226.374 691.297 224.861 689.913 223.798L684.325 219.518C682.822 218.367 680.911 217.837 679.013 218.044C677.114 218.252 675.384 219.18 674.202 220.624L673.805 221.108C683.675 224.898 690.245 229.099 691.609 232.905Z" fill="#EDEAD9"/>
<path d="M691.768 233.522C690.439 229.652 683.971 225.361 674.244 221.477L670.389 226.282L671.654 229.177C672.027 230.031 672.227 230.948 672.243 231.877C672.259 232.806 672.091 233.728 671.747 234.59C671.404 235.452 670.893 236.237 670.243 236.901C669.593 237.564 668.817 238.093 667.959 238.458L666.015 239.295C666.445 239.993 666.993 240.612 667.635 241.124L670.226 243.175C676.884 242.89 682.38 242.023 686.191 240.622L691.336 234.224C691.492 233.998 691.637 233.764 691.768 233.522Z" fill="#EDEAD9"/>
<path d="M665.8 239.883L667.712 239.032C668.549 238.66 669.307 238.12 669.941 237.443C670.575 236.766 671.073 235.965 671.408 235.086C671.742 234.206 671.906 233.267 671.889 232.32C671.873 231.373 671.676 230.437 671.311 229.567L670.073 226.616L666.241 231.603C665.354 232.763 664.837 234.181 664.758 235.663C664.679 237.144 665.043 238.618 665.8 239.883Z" fill="#EDEAD9"/>
<path d="M665.763 232.166L669.676 227.257L668.172 223.712C667.425 221.978 666.024 220.609 664.276 219.905C662.528 219.201 660.577 219.22 658.852 219.958L646.839 225.104C645.958 225.482 645.164 226.036 644.506 226.734L646.889 232.265C647.44 233.544 647.606 234.955 647.365 236.323C647.125 237.691 646.49 238.956 645.538 239.961L645.932 240.866C646.344 241.825 646.962 242.682 647.742 243.374C650.763 243.687 653.687 243.921 656.514 244.075L665.316 240.326C664.543 239.081 664.171 237.628 664.251 236.167C664.331 234.707 664.859 233.309 665.763 232.166Z" fill="#EDEAD9"/>
<path d="M664.667 242.637C664.358 242.538 664.096 242.317 663.937 242.019C663.023 240.356 662.574 238.455 662.644 236.539C662.731 234.732 663.311 233.38 665.015 230.238C666.195 228.057 667.441 225.881 668.717 223.786C668.893 223.495 669.171 223.291 669.491 223.218C669.811 223.146 670.145 223.211 670.421 223.4C670.697 223.588 670.892 223.884 670.962 224.223C671.033 224.562 670.973 224.916 670.797 225.207C669.537 227.286 668.311 229.425 667.152 231.568C665.548 234.535 665.163 235.496 665.106 236.709C665.061 238.133 665.4 239.544 666.084 240.777C666.203 241.004 666.256 241.263 666.236 241.521C666.215 241.779 666.123 242.024 665.971 242.226C665.819 242.427 665.613 242.576 665.38 242.653C665.147 242.729 664.897 242.731 664.662 242.657L664.667 242.637Z" fill="#BC4632"/>
<path d="M645.309 243.334C645.098 243.267 644.908 243.144 644.758 242.978C644.607 242.812 644.501 242.608 644.451 242.387C644.4 242.167 644.407 241.936 644.47 241.719C644.534 241.503 644.651 241.307 644.811 241.153C645.324 240.655 645.755 240.074 646.088 239.434C646.394 238.784 646.616 238.095 646.747 237.385C647.013 235.823 646.174 232.346 643.703 228.388C643.613 228.244 643.552 228.085 643.522 227.918C643.492 227.75 643.495 227.579 643.529 227.413C643.563 227.247 643.629 227.09 643.723 226.951C643.816 226.812 643.935 226.693 644.073 226.602C644.212 226.51 644.366 226.448 644.528 226.418C644.69 226.388 644.856 226.392 645.017 226.428C645.178 226.465 645.331 226.533 645.467 226.63C645.602 226.728 645.718 226.851 645.808 226.994C648.307 231.021 649.659 235.275 649.213 237.849C649.042 238.822 648.736 239.764 648.305 240.645C647.853 241.541 647.262 242.354 646.555 243.052C646.391 243.209 646.189 243.318 645.97 243.368C645.751 243.417 645.523 243.405 645.309 243.334Z" fill="#BC4632"/>
<path d="M620.53 240.863L620.445 240.836C620.138 240.712 619.89 240.466 619.753 240.15C619.616 239.834 619.603 239.475 619.715 239.15L622.474 231.243C622.779 230.473 623.231 228.612 622.654 227.808C622.458 227.529 622.373 227.18 622.42 226.837C622.466 226.494 622.639 226.186 622.901 225.98C623.163 225.774 623.492 225.687 623.816 225.738C624.139 225.79 624.432 225.975 624.628 226.254C626.181 228.429 624.966 231.748 624.756 232.286L622.032 240.107C621.917 240.41 621.699 240.655 621.421 240.795C621.144 240.935 620.825 240.959 620.53 240.863Z" fill="#BC4632"/>
<path d="M593.793 232.539L593.711 232.513C593.401 232.391 593.149 232.148 593.011 231.836C592.873 231.524 592.86 231.168 592.974 230.847L595.992 222.464C597.753 217.43 602.377 216.67 604.581 216.972C604.906 217.021 605.2 217.201 605.4 217.472C605.6 217.743 605.689 218.084 605.648 218.421C605.608 218.758 605.441 219.064 605.183 219.273C604.926 219.483 604.599 219.578 604.272 219.539C604.075 219.515 599.855 219.041 598.344 223.375L595.32 231.762C595.209 232.068 594.989 232.319 594.706 232.463C594.422 232.607 594.096 232.634 593.793 232.539Z" fill="#BC4632"/>
<path d="M688.872 342.232C688.606 342.147 688.375 341.971 688.214 341.732C688.053 341.492 687.973 341.204 687.986 340.912L688.959 319.93C688.975 319.585 689.121 319.261 689.364 319.031C689.607 318.8 689.928 318.681 690.257 318.7C690.585 318.72 690.893 318.875 691.114 319.133C691.334 319.391 691.449 319.729 691.433 320.075L690.46 341.057C690.442 341.4 690.295 341.72 690.053 341.949C689.81 342.177 689.491 342.295 689.165 342.276C689.066 342.274 688.968 342.26 688.872 342.232Z" fill="#FFAABE"/>
<path d="M690.99 267.219C690.718 267.13 690.482 266.946 690.322 266.697C690.163 266.448 690.088 266.15 690.111 265.852L691.451 245.253C691.458 245.079 691.498 244.908 691.568 244.751C691.639 244.594 691.739 244.453 691.862 244.338C691.985 244.222 692.129 244.134 692.285 244.079C692.442 244.023 692.607 244.001 692.772 244.014C692.937 244.027 693.098 244.075 693.246 244.155C693.393 244.235 693.524 244.345 693.631 244.479C693.738 244.612 693.819 244.767 693.868 244.934C693.917 245.101 693.935 245.276 693.919 245.449L692.603 266.072C692.594 266.244 692.552 266.412 692.48 266.567C692.408 266.721 692.308 266.859 692.185 266.972C692.062 267.084 691.919 267.17 691.764 267.224C691.609 267.277 691.445 267.298 691.282 267.284C691.182 267.277 691.084 267.255 690.99 267.219Z" fill="#FFAABE"/>
<path d="M138.678 437.944L138.215 438.184C138.122 438.214 137.532 438.512 137.996 438.292C138.46 438.073 137.793 438.385 137.681 438.437C137.46 438.54 137.233 438.64 137.009 438.734C136.151 439.107 135.283 439.446 134.398 439.753C133.325 440.124 132.237 440.449 131.134 440.727C130.604 440.861 130.064 440.982 129.53 441.085C129.397 441.128 129.26 441.172 129.114 441.171C129.666 441.089 129.271 441.121 129.158 441.157C128.798 441.215 128.44 441.277 128.077 441.325C125.611 441.656 123.12 441.736 120.64 441.566L119.737 441.5C119.156 441.458 120.19 441.546 119.849 441.512L119.289 441.453C118.561 441.378 117.834 441.288 117.11 441.175C116.243 441.039 115.385 440.868 114.536 440.662C114.137 440.567 113.735 440.462 113.349 440.341C112.901 440.162 112.441 440.015 111.972 439.9C112.024 439.846 112.521 440.107 112.05 439.923L111.736 439.806C111.501 439.716 111.269 439.62 111.03 439.5C110.56 439.296 110.094 439.078 109.633 438.847C109.212 438.636 108.803 438.41 108.398 438.179C108.17 438.044 107.939 437.9 107.718 437.753C107.644 437.707 107.313 437.489 107.612 437.691C107.91 437.893 107.497 437.605 107.434 437.562C106.507 436.901 105.637 436.165 104.834 435.36C104.664 435.186 104.494 435.012 104.332 434.829L104.132 434.616C103.848 434.308 104.251 434.749 104.272 434.779C103.985 434.381 103.635 434.019 103.355 433.624C102.764 432.854 102.214 432.054 101.709 431.227C101.474 430.839 101.247 430.442 101.031 430.043C100.988 429.913 100.9 429.792 100.837 429.663L100.811 429.586L100.863 429.745L100.755 429.513C100.704 429.354 100.612 429.207 100.544 429.048C100.165 428.166 99.8674 427.251 99.6546 426.316C99.6443 426.21 99.6214 426.107 99.5865 426.007C99.77 426.321 99.6703 426.513 99.6525 426.21C99.6348 425.906 99.5904 425.803 99.5732 425.6C99.5265 425.125 99.5544 424.662 99.5451 424.185C99.5373 423.862 99.4673 424.744 99.5263 424.41C99.5437 424.314 99.5512 424.22 99.5636 424.126C99.6018 423.911 99.648 423.704 99.7007 423.5C99.7245 423.407 99.7548 423.317 99.7801 423.229C99.8529 422.971 99.9421 423.145 99.703 423.441C99.8301 423.236 99.9412 423.021 100.035 422.8L100.181 422.55C100.395 422.177 100.097 422.689 100.087 422.676C100.077 422.664 100.555 422.088 100.607 422.029C100.816 421.79 101.033 421.56 101.26 421.343C101.317 421.287 101.657 421.001 101.396 421.213C101.135 421.426 101.663 421.02 101.721 420.981C101.898 420.844 102.082 420.715 102.271 420.595C102.417 420.51 102.765 420.233 102.271 420.595C102.392 420.528 102.52 420.474 102.652 420.435C102.911 420.351 103.171 420.267 103.43 420.183C103.993 420.033 103.362 420.205 103.362 420.205C103.566 420.165 103.775 420.148 103.983 420.154C104.101 420.141 104.219 420.142 104.336 420.157C104.265 420.09 103.841 420.083 104.204 420.152L104.552 420.221C104.604 420.231 105.163 420.322 104.759 420.261C104.355 420.199 104.759 420.261 104.866 420.306L105.191 420.457C105.27 420.501 105.546 420.599 105.576 420.675C105.524 420.515 105.192 420.393 105.546 420.684C105.67 420.783 106.08 421.045 106.121 421.219C106.121 421.219 105.759 420.706 106.015 421.125C106.048 421.226 106.138 421.32 106.2 421.412C106.344 421.621 106.208 421.671 106.147 421.248C106.172 421.359 106.207 421.467 106.252 421.571C106.242 421.542 106.357 421.895 106.357 421.895C106.303 421.528 106.287 421.448 106.31 421.649C106.335 421.726 106.327 421.819 106.329 421.909C106.346 422.035 106.346 422.162 106.328 422.288C106.49 421.788 106.35 422.057 106.3 422.201C106.25 422.345 106.236 422.451 106.21 422.572C106.088 423.145 106.377 422.272 106.21 422.572C106.042 422.871 105.988 423.038 105.856 423.262C105.781 423.408 105.694 423.549 105.597 423.682C105.804 423.418 105.733 423.483 105.558 423.694C105.19 424.157 104.79 424.595 104.362 425.004C104.238 425.124 103.634 425.644 104.031 425.318C103.741 425.556 103.447 425.784 103.141 426.006C102.622 426.376 102.083 426.716 101.525 427.024L101.129 427.237C101.055 427.261 100.627 427.474 100.933 427.333L100.629 427.463L100.106 427.669C99.5115 427.901 98.9033 428.097 98.2851 428.257C98.0011 428.349 97.6999 428.387 97.4115 428.448C97.9183 428.343 97.5485 428.404 97.4408 428.439L96.8041 428.527C95.6456 428.666 94.4772 428.698 93.3139 428.625C93.2196 428.618 92.8169 428.577 93.1822 428.619C93.5476 428.661 93.0118 428.594 92.9728 428.591C92.7373 428.565 92.5067 428.539 92.273 428.502C91.7844 428.43 91.2976 428.348 90.8142 428.242C90.0162 428.073 89.2283 427.869 88.4505 427.629L87.579 427.345C87.4855 427.317 87.3936 427.285 87.3037 427.247C87.7987 427.472 87.4932 427.314 87.3766 427.272C87.0738 427.156 86.7628 427.049 86.483 426.92C85.4788 426.5 84.5029 426.016 83.5612 425.474C83.1153 425.218 82.6809 424.947 82.2499 424.67C81.8189 424.393 82.2952 424.693 82.3418 424.737C82.249 424.664 82.1514 424.597 82.0498 424.537C81.811 424.369 81.5707 424.196 81.3402 424.02C80.5383 423.418 79.7672 422.778 79.0268 422.099C78.3187 421.453 77.6434 420.775 76.9974 420.087L76.5735 419.616C76.2058 419.201 76.8751 419.978 76.6505 419.703C76.5815 419.624 76.5125 419.545 76.4483 419.465C76.1514 419.118 75.8643 418.768 75.5658 418.416C73.8577 416.236 72.3792 413.89 71.1533 411.412C71.1235 411.32 71.0675 411.232 71.023 411.145C70.864 410.823 71.3677 411.871 71.1708 411.449C71.1174 411.285 71.0214 411.14 70.95 410.987C70.396 409.784 69.1253 408.839 67.7163 409.364C66.5342 409.804 65.461 411.276 66.0546 412.568C69.0201 418.983 73.3787 424.841 79.3189 428.844C82.9228 431.302 87.0545 432.906 91.3957 433.533C94.2444 433.931 97.1472 433.778 99.9432 433.083C103.044 432.262 105.878 430.656 108.164 428.422C110.389 426.285 112.073 423.298 111.176 420.178C110.318 417.196 107.288 415.315 104.272 415.142C101.256 414.969 98.1693 416.787 96.3157 419.12C94.776 421.016 94.0359 423.423 94.2506 425.836C94.6124 430.27 97.0802 434.525 99.9553 437.822C103.203 441.514 107.49 444.169 112.276 445.451C115.874 446.403 119.59 446.865 123.321 446.824C128.618 446.793 133.855 445.663 138.694 443.509C139.641 443.096 140.578 442.649 141.505 442.174C142.707 441.562 142.998 439.681 142.247 438.653C141.366 437.444 139.978 437.284 138.688 437.941L138.678 437.944Z" fill="#FFAABE"/>
<path d="M92.2258 184.204L74.5452 194.404C74.4484 194.46 74.3665 194.539 74.3064 194.633C74.2462 194.728 74.2096 194.835 74.1996 194.946C74.1896 195.058 74.2066 195.169 74.249 195.273C74.2915 195.376 74.3582 195.467 74.4434 195.538L83.8853 203.467C84.0008 203.564 84.0811 203.697 84.1139 203.845C84.1466 203.993 84.1302 204.148 84.067 204.286C84.0037 204.424 83.8972 204.538 83.7637 204.61C83.6301 204.683 83.4768 204.709 83.3271 204.687L71.1845 202.72C71.0718 202.698 70.9553 202.705 70.8456 202.74C70.736 202.775 70.6365 202.836 70.5564 202.919C70.4763 203.002 70.4181 203.103 70.3869 203.214C70.3558 203.325 70.3528 203.442 70.3781 203.554L75.2063 226.23C75.2416 226.392 75.2172 226.562 75.1377 226.708C75.0581 226.854 74.9287 226.967 74.7732 227.026C74.6177 227.085 74.4465 227.086 74.291 227.028C74.1355 226.971 74.0062 226.86 73.9268 226.714L62.8405 206.408C62.7869 206.313 62.7113 206.232 62.62 206.172C62.5287 206.112 62.4244 206.075 62.3156 206.063C62.2067 206.052 62.0966 206.066 61.9942 206.106C61.8919 206.145 61.8002 206.208 61.7269 206.29L53.8132 215.778C53.7144 215.893 53.5809 215.973 53.4328 216.006C53.2848 216.039 53.1304 216.023 52.9931 215.959C52.8558 215.896 52.7431 215.79 52.6723 215.656C52.6014 215.523 52.5762 215.369 52.6006 215.22L54.5782 203.018C54.5993 202.907 54.5934 202.794 54.561 202.686C54.5286 202.579 54.4706 202.481 54.392 202.401C54.3133 202.321 54.2165 202.262 54.1096 202.228C54.0028 202.194 53.8891 202.187 53.7784 202.206L32.6552 206.538C32.4937 206.569 32.3268 206.542 32.1839 206.462C32.041 206.381 31.9314 206.253 31.8747 206.099C31.8179 205.945 31.8176 205.776 31.8738 205.621C31.93 205.466 32.0391 205.336 32.1817 205.253L50.978 194.628C51.0714 194.572 51.1504 194.495 51.2089 194.404C51.2674 194.312 51.3037 194.208 51.3148 194.1C51.3259 193.991 51.3116 193.882 51.273 193.781C51.2344 193.68 51.1725 193.589 51.0925 193.516L41.657 185.591C41.5415 185.494 41.4613 185.361 41.4285 185.213C41.3957 185.065 41.4122 184.91 41.4754 184.772C41.5386 184.634 41.6451 184.52 41.7787 184.448C41.9123 184.375 42.0656 184.349 42.2152 184.371L54.353 186.34C54.4658 186.36 54.5821 186.352 54.6914 186.316C54.8007 186.281 54.8997 186.219 54.9794 186.136C55.0591 186.052 55.1171 185.951 55.1482 185.84C55.1794 185.73 55.1827 185.613 55.1578 185.501L50.0914 162.087C50.0569 161.924 50.082 161.755 50.1621 161.609C50.2422 161.463 50.372 161.351 50.5276 161.293C50.6832 161.235 50.8543 161.234 51.0094 161.292C51.1646 161.35 51.2935 161.462 51.3725 161.607L62.7373 182.66C62.7909 182.755 62.8665 182.836 62.9578 182.896C63.049 182.956 63.1534 182.993 63.2622 183.005C63.371 183.016 63.4812 183.002 63.5835 182.962C63.6859 182.923 63.7775 182.859 63.8509 182.778L71.7565 173.298C71.8552 173.183 71.9888 173.102 72.1368 173.07C72.2848 173.037 72.4393 173.053 72.5766 173.117C72.7138 173.18 72.8265 173.286 72.8973 173.42C72.9682 173.553 72.9934 173.706 72.9691 173.856L70.9687 186.071C70.9488 186.181 70.9555 186.294 70.9884 186.401C71.0213 186.508 71.0793 186.605 71.1576 186.685C71.236 186.764 71.3323 186.824 71.4386 186.858C71.5449 186.893 71.658 186.901 71.7684 186.883L91.7571 182.918C91.9186 182.888 92.0853 182.915 92.2278 182.996C92.3703 183.077 92.4793 183.206 92.5354 183.36C92.5916 183.514 92.5913 183.683 92.5346 183.838C92.4779 183.992 92.3685 184.122 92.2258 184.204Z" fill="#EE9334"/>
<path d="M216.447 223.746L216.055 241.908L228.105 242.112L228.134 240.684C223.321 236.543 219.281 229.627 216.447 223.746Z" fill="#EDEAD9"/>
<path d="M218.073 192.419L217.339 221.799L217.288 223.754C220.062 229.701 224.023 236.696 228.757 240.894L229.23 222.339C229.332 218.071 229.433 213.801 229.534 209.529C224.796 205.338 220.845 198.356 218.073 192.419Z" fill="#FD510C"/>
<path d="M252.969 156.835L253.083 156.836C254.415 156.833 255.697 156.316 256.658 155.395C257.618 154.473 258.182 153.22 258.229 151.899C258.317 149.427 258.414 146.283 258.456 143.121C255.139 146.459 251.524 150.573 248.893 154.844C249.371 155.466 249.987 155.969 250.694 156.314C251.401 156.66 252.179 156.838 252.969 156.835Z" fill="#EDEAD9"/>
<path d="M221.813 134.859C221.725 135.722 221.653 136.587 221.599 137.457C220.991 147.319 220.819 157.241 220.635 167.157C222.973 172.861 226.944 181.221 231.979 186.805C232.06 182.735 232.152 178.667 232.256 174.601C232.284 173.293 232.322 171.654 232.377 169.532C232.605 160.938 232.735 155.657 232.847 152.563C228.234 147.877 224.412 140.649 221.813 134.859Z" fill="#FD510C"/>
<path d="M258.143 129C257.701 127.071 256.921 125.241 255.841 123.598C249.592 114.174 236.129 113.367 228.837 121.218C231.124 125.33 233.914 129.517 237.067 132.596C237.556 131.442 238.418 130.492 239.51 129.905C241.798 128.728 244.964 129.311 246.743 130.894C248.424 132.385 248.78 134.65 248.594 143.023C248.546 145.207 248.459 147.874 248.299 150.93C248.234 152.154 248.599 153.359 249.328 154.33C251.917 150.001 255.478 145.831 258.745 142.447C258.749 142.023 258.758 141.597 258.758 141.179C258.81 137.023 259.095 132.88 258.143 129Z" fill="#FD510C"/>
<path d="M228.265 120.417C227.252 121.521 226.386 122.761 225.692 124.104C223.952 127.454 223.147 131.207 222.741 135.006C225.355 140.756 229.227 147.935 233.923 152.582C233.955 151.665 233.98 150.926 234.013 150.369C234.518 141.114 234.844 135.198 236.391 131.886C233.274 128.789 230.548 124.566 228.265 120.417Z" fill="#EDEAD9"/>
<path d="M219.661 167.095C219.59 171.501 219.506 175.868 219.395 180.244L219.071 192.405C221.835 198.348 225.776 205.339 230.506 209.537C230.679 201.934 230.847 194.332 231.01 186.732C225.966 181.161 221.998 172.8 219.661 167.095Z" fill="#EDEAD9"/>
<path d="M236.491 377.8L159.821 396.925C156.88 397.659 153.827 397.806 150.836 397.356C147.845 396.907 144.975 395.871 142.39 394.306C139.805 392.742 137.555 390.68 135.769 388.24C133.983 385.799 132.696 383.026 131.982 380.08L103.392 262.278L224.852 231.998L253.459 349.784C254.174 352.731 254.302 355.793 253.836 358.796C253.37 361.799 252.319 364.684 250.744 367.286C249.168 369.888 247.098 372.155 244.652 373.959C242.207 375.763 239.433 377.068 236.491 377.8Z" fill="#129277"/>
<path d="M91.4479 271.689C81.4696 274.153 72.4324 279.506 65.4793 287.07C58.5263 294.634 53.9698 304.069 52.3863 314.183C50.8028 324.297 52.2634 334.634 56.5833 343.887C60.9032 353.141 67.8884 360.895 76.6552 366.168C85.4221 371.441 95.5767 373.997 105.835 373.512C116.093 373.027 125.993 369.524 134.283 363.444C142.574 357.365 148.882 348.983 152.41 339.359C155.937 329.734 156.526 319.3 154.102 309.376C150.852 296.077 142.427 284.637 130.679 277.571C118.93 270.504 104.82 268.388 91.4479 271.689ZM111.304 353.09C105.091 354.628 98.5705 354.298 92.5667 352.142C86.5628 349.986 81.3456 346.102 77.5747 340.98C73.8038 335.858 71.6486 329.729 71.3816 323.367C71.1147 317.006 72.748 310.697 76.075 305.24C79.402 299.783 84.2732 295.421 90.0728 292.708C95.8723 289.995 102.34 289.051 108.657 289.996C114.974 290.941 120.858 293.732 125.563 298.017C130.269 302.302 133.586 307.888 135.094 314.069C136.096 318.173 136.275 322.437 135.622 326.62C134.969 330.802 133.495 334.819 131.286 338.443C129.077 342.067 126.175 345.225 122.747 347.739C119.318 350.252 115.43 352.07 111.304 353.09Z" fill="#129277"/>
<path d="M206.85 208.775C207.755 205.597 207.815 202.246 207.025 199.048L206.544 197.07C205.321 192.113 202.155 187.848 197.74 185.211C193.324 182.574 188.02 181.78 182.99 183.002L180.934 183.5C180.695 181.699 180.062 179.972 179.08 178.44C175.176 172.451 167.715 173.185 156.332 166.213C152.974 164.155 149.83 161.776 146.946 159.109C146.049 162.59 144.728 165.954 143.012 169.126C136.458 181.199 127.612 183.745 126.84 191.29C126.677 193.083 126.952 194.885 127.643 196.546L125.964 196.976C120.942 198.21 116.608 201.356 113.911 205.725C111.214 210.094 110.373 215.331 111.573 220.289L112.06 222.265C112.839 225.464 114.442 228.406 116.714 230.806C112.386 232.572 108.833 235.809 106.7 239.928C104.567 244.047 103.995 248.776 105.089 253.258L105.576 255.234C106.798 260.191 109.964 264.456 114.38 267.093C118.795 269.73 124.099 270.525 129.129 269.302L213.631 248.647C218.657 247.411 222.994 244.26 225.69 239.884C228.386 235.508 229.221 230.266 228.013 225.305L227.526 223.329C226.431 218.849 223.741 214.916 219.946 212.245C216.152 209.574 211.504 208.343 206.85 208.775Z" fill="#EDEAD9"/>
<path d="M125.586 206.014L125.53 206.305C125.235 207.833 126.119 209.371 127.505 209.741L136.345 212.1C137.731 212.47 139.093 211.531 139.388 210.002L139.444 209.711C139.739 208.183 138.855 206.645 137.47 206.275L128.629 203.916C127.244 203.547 125.882 204.486 125.586 206.014Z" fill="#FFAABE"/>
<path d="M183.224 197.835L182.692 206.937C182.608 208.364 183.943 209.601 185.672 209.702L186.002 209.721C187.731 209.821 189.201 208.746 189.284 207.32L189.817 198.218C189.9 196.791 188.566 195.553 186.836 195.453L186.507 195.434C184.777 195.334 183.308 196.409 183.224 197.835Z" fill="#FD510C"/>
<path d="M127.259 241.014L127.204 241.306C126.914 242.839 127.805 244.378 129.195 244.743L138.058 247.071C139.447 247.435 140.808 246.488 141.098 244.955L141.153 244.663C141.443 243.13 140.552 241.591 139.163 241.226L130.3 238.898C128.91 238.533 127.549 239.481 127.259 241.014Z" fill="#EE9334"/>
<path d="M157.289 206.48L153.612 214.67C153.036 215.953 153.705 217.431 155.107 217.971L155.374 218.074C156.776 218.613 158.379 218.01 158.955 216.727L162.632 208.537C163.208 207.253 162.539 205.775 161.137 205.236L160.87 205.133C159.468 204.593 157.865 205.196 157.289 206.48Z" fill="#EE9334"/>
<path d="M194.511 242.848L194.778 242.951C196.18 243.49 197.784 242.887 198.36 241.604L202.036 233.414C202.612 232.13 201.943 230.652 200.541 230.113L200.274 230.01C198.873 229.47 197.269 230.073 196.693 231.357L193.016 239.547C192.44 240.83 193.11 242.308 194.511 242.848Z" fill="#FFAABE"/>
<path d="M167.988 224.079L167.849 224.315C167.118 225.554 167.469 227.201 168.632 227.995L176.052 233.057C177.214 233.851 178.75 233.49 179.48 232.251L179.62 232.015C180.35 230.776 180 229.129 178.837 228.336L171.417 223.273C170.254 222.48 168.719 222.841 167.988 224.079Z" fill="#129277"/>
<path d="M152.149 250.786L152.26 251.017C152.844 252.231 154.352 252.757 155.628 252.193L163.769 248.592C165.045 248.027 165.606 246.586 165.021 245.372L164.91 245.141C164.326 243.927 162.818 243.401 161.542 243.965L153.401 247.566C152.125 248.131 151.564 249.572 152.149 250.786Z" fill="#FFAABE"/>
<path d="M186.418 298.297C183.119 297.542 181.248 294.904 180.681 294.017C180.404 295.302 179.861 296.518 179.087 297.585C178.312 298.652 177.324 299.547 176.185 300.212C175.046 300.878 173.781 301.3 172.472 301.451C171.163 301.601 169.838 301.477 168.583 301.087C168.613 301.179 168.643 301.271 168.648 301.372L174.307 324.591L200.38 318.132L194.957 295.876C192.414 298.021 189.262 298.949 186.418 298.297Z" fill="#FF968E"/>
<path d="M176.96 272.547L172.906 289.481L188.354 285.625L176.96 272.547Z" fill="#FD510C"/>
<path d="M178.187 275.217C179.754 274.706 180.615 273.028 180.11 271.471C179.606 269.913 177.927 269.064 176.36 269.576C174.793 270.087 173.932 271.765 174.437 273.322C174.941 274.88 176.62 275.728 178.187 275.217Z" fill="#EDEAD9"/>
<path d="M206.341 307.749C202.901 308.571 199.884 310.6 197.87 313.446C196.17 311.372 193.898 309.814 191.318 308.954C188.738 308.093 185.956 307.966 183.296 308.586C180.635 309.206 178.206 310.549 176.289 312.457C174.373 314.366 173.048 316.762 172.47 319.367C170.541 318.155 168.34 317.412 166.051 317.2C163.762 316.988 161.45 317.313 159.31 318.148C157.169 318.983 155.261 320.303 153.746 322C152.23 323.696 151.151 325.718 150.598 327.898C150.044 330.077 150.034 332.351 150.566 334.53C151.098 336.708 152.159 338.727 153.658 340.419C155.157 342.111 157.053 343.426 159.185 344.256C161.318 345.085 163.626 345.403 165.918 345.185C165.978 345.552 166.05 345.921 166.137 346.285C166.841 349.149 168.453 351.72 170.744 353.633C173.036 355.546 175.892 356.705 178.907 356.945C181.922 357.184 184.944 356.493 187.545 354.969C190.146 353.445 192.194 351.166 193.399 348.453C195.729 350.32 198.607 351.422 201.626 351.603C204.645 351.783 207.651 351.034 210.22 349.46C212.788 347.887 214.788 345.569 215.937 342.834C217.086 340.1 217.326 337.088 216.622 334.225C216.575 334.081 216.528 333.937 216.482 333.798C219.575 332.168 221.959 329.5 223.19 326.292C224.42 323.084 224.413 319.556 223.168 316.368C221.923 313.18 219.527 310.55 216.427 308.97C213.327 307.389 209.736 306.966 206.324 307.78L206.341 307.749Z" fill="#EDEAD9"/>
<path d="M179.057 284.735C175.606 285.561 172.616 287.663 170.726 290.593C168.836 293.522 168.197 297.046 168.945 300.412C170.215 300.801 171.555 300.927 172.882 300.783C174.208 300.639 175.49 300.227 176.646 299.575C177.802 298.922 178.806 298.043 179.594 296.993C180.382 295.943 180.937 294.747 181.222 293.48C181.793 294.357 183.678 296.964 187.014 297.72C189.892 298.372 193.087 297.466 195.67 295.36L195.435 294.409C195.021 292.725 194.268 291.139 193.221 289.741C192.174 288.344 190.852 287.162 189.331 286.263C187.81 285.365 186.12 284.768 184.357 284.505C182.594 284.243 180.793 284.321 179.057 284.735Z" fill="#EDEAD9"/>
<path d="M189.536 329.669C189.069 329.81 188.592 329.917 188.109 329.991C183.415 330.695 180.152 327.818 179.545 327.234C179.425 327.119 179.329 326.982 179.264 326.83C179.2 326.679 179.167 326.517 179.167 326.353C179.168 326.189 179.202 326.027 179.268 325.875C179.335 325.723 179.431 325.586 179.553 325.47C179.674 325.353 179.818 325.261 179.976 325.198C180.135 325.135 180.304 325.102 180.476 325.102C180.647 325.101 180.816 325.133 180.974 325.196C181.132 325.258 181.275 325.35 181.395 325.465C181.674 325.73 184.202 328.053 187.723 327.525C189.123 327.289 190.427 326.678 191.483 325.763C192.539 324.848 193.305 323.667 193.691 322.356C193.79 322.038 194.016 321.77 194.319 321.61C194.623 321.451 194.98 321.413 195.311 321.505C195.643 321.597 195.921 321.812 196.086 322.101C196.251 322.391 196.288 322.733 196.19 323.051C195.725 324.586 194.875 325.992 193.716 327.146C192.556 328.299 191.121 329.166 189.536 329.669Z" fill="#3A140F"/>
<path d="M222.278 271.684L216.122 274.354C216.089 274.369 216.059 274.392 216.036 274.421C216.013 274.45 215.997 274.484 215.99 274.52C215.982 274.556 215.984 274.593 215.994 274.628C216.004 274.664 216.022 274.696 216.047 274.723L218.832 277.671C218.866 277.707 218.888 277.753 218.893 277.803C218.898 277.852 218.887 277.902 218.861 277.945C218.836 277.988 218.797 278.022 218.751 278.041C218.705 278.06 218.654 278.064 218.606 278.051L214.71 276.945C214.675 276.936 214.637 276.935 214.601 276.944C214.566 276.952 214.532 276.969 214.504 276.993C214.476 277.017 214.454 277.047 214.44 277.081C214.426 277.116 214.42 277.153 214.424 277.189L215.132 284.783C215.134 284.836 215.117 284.888 215.085 284.931C215.053 284.973 215.007 285.003 214.955 285.016C214.903 285.028 214.849 285.023 214.801 285C214.753 284.976 214.715 284.937 214.693 284.889L211.84 277.833C211.828 277.798 211.806 277.767 211.779 277.742C211.751 277.717 211.717 277.7 211.681 277.692C211.644 277.683 211.607 277.684 211.571 277.694C211.535 277.704 211.502 277.723 211.475 277.749L208.531 280.557C208.494 280.591 208.447 280.612 208.397 280.617C208.347 280.622 208.297 280.61 208.255 280.584C208.212 280.558 208.18 280.518 208.162 280.472C208.144 280.425 208.141 280.374 208.155 280.326L209.268 276.41C209.279 276.375 209.281 276.338 209.274 276.302C209.267 276.266 209.251 276.232 209.228 276.204C209.205 276.175 209.176 276.153 209.142 276.138C209.108 276.124 209.072 276.118 209.035 276.121L201.969 276.737C201.916 276.74 201.864 276.724 201.822 276.693C201.779 276.661 201.749 276.616 201.736 276.564C201.723 276.513 201.729 276.459 201.751 276.411C201.774 276.362 201.813 276.324 201.861 276.3L208.405 273.535C208.439 273.52 208.468 273.497 208.491 273.469C208.514 273.44 208.53 273.406 208.537 273.37C208.545 273.334 208.543 273.297 208.533 273.261C208.523 273.226 208.505 273.194 208.48 273.167L205.7 270.217C205.663 270.182 205.64 270.135 205.633 270.085C205.627 270.034 205.638 269.983 205.665 269.939C205.691 269.896 205.732 269.862 205.779 269.844C205.827 269.827 205.88 269.826 205.928 269.842L209.817 270.945C209.853 270.955 209.891 270.956 209.928 270.948C209.964 270.94 209.999 270.923 210.027 270.899C210.056 270.875 210.079 270.844 210.093 270.809C210.107 270.774 210.112 270.736 210.108 270.699L209.335 262.853C209.321 262.795 209.33 262.733 209.361 262.682C209.391 262.631 209.441 262.593 209.499 262.579C209.557 262.564 209.619 262.573 209.67 262.603C209.721 262.634 209.758 262.684 209.772 262.742L212.672 270.062C212.685 270.097 212.706 270.128 212.734 270.152C212.762 270.177 212.796 270.194 212.832 270.203C212.868 270.211 212.906 270.21 212.942 270.2C212.978 270.19 213.011 270.172 213.038 270.146L215.979 267.344C216.014 267.307 216.061 267.283 216.112 267.277C216.162 267.27 216.213 267.281 216.257 267.307C216.3 267.333 216.333 267.374 216.351 267.422C216.368 267.469 216.369 267.522 216.353 267.57L215.241 271.491C215.23 271.526 215.228 271.563 215.235 271.599C215.242 271.635 215.258 271.669 215.281 271.697C215.304 271.726 215.333 271.748 215.367 271.762C215.401 271.777 215.438 271.783 215.474 271.779L222.155 271.252C222.207 271.248 222.259 271.263 222.303 271.293C222.346 271.323 222.377 271.367 222.392 271.417C222.406 271.468 222.403 271.522 222.382 271.571C222.361 271.619 222.325 271.66 222.278 271.684Z" fill="#EE9334"/>
<path d="M158.833 352.138L152.677 354.807C152.643 354.822 152.614 354.844 152.59 354.872C152.567 354.901 152.551 354.934 152.543 354.97C152.535 355.005 152.536 355.042 152.545 355.078C152.554 355.113 152.571 355.145 152.596 355.172L155.382 358.125C155.419 358.16 155.442 358.207 155.449 358.258C155.455 358.308 155.444 358.36 155.417 358.403C155.391 358.447 155.35 358.48 155.303 358.498C155.255 358.516 155.202 358.517 155.154 358.501L151.265 357.398C151.229 357.387 151.191 357.386 151.154 357.394C151.117 357.402 151.083 357.419 151.054 357.444C151.026 357.468 151.003 357.499 150.989 357.534C150.975 357.569 150.97 357.606 150.973 357.644L151.686 365.235C151.688 365.288 151.672 365.341 151.639 365.383C151.607 365.426 151.561 365.456 151.51 365.468C151.458 365.481 151.403 365.475 151.356 365.452C151.308 365.429 151.27 365.39 151.247 365.342L148.393 358.281C148.379 358.247 148.357 358.216 148.328 358.193C148.3 358.169 148.266 358.153 148.23 358.145C148.193 358.138 148.156 358.139 148.12 358.149C148.084 358.159 148.051 358.178 148.024 358.203L145.083 361.005C145.048 361.042 145.001 361.065 144.951 361.072C144.9 361.079 144.849 361.068 144.805 361.042C144.762 361.015 144.729 360.975 144.711 360.927C144.694 360.879 144.693 360.827 144.709 360.779L145.823 356.863C145.832 356.827 145.832 356.79 145.824 356.754C145.817 356.718 145.8 356.685 145.777 356.656C145.754 356.628 145.724 356.605 145.69 356.59C145.657 356.576 145.62 356.569 145.583 356.571L138.518 357.192C138.465 357.194 138.413 357.178 138.371 357.146C138.328 357.114 138.299 357.068 138.286 357.016C138.274 356.965 138.28 356.91 138.304 356.862C138.327 356.814 138.366 356.776 138.415 356.753L144.954 353.99C144.989 353.975 145.019 353.953 145.043 353.924C145.067 353.895 145.083 353.862 145.091 353.825C145.099 353.789 145.098 353.751 145.088 353.715C145.078 353.68 145.059 353.647 145.034 353.62L142.249 350.672C142.213 350.637 142.189 350.59 142.183 350.539C142.176 350.489 142.187 350.438 142.214 350.394C142.24 350.35 142.281 350.317 142.329 350.299C142.377 350.281 142.429 350.28 142.477 350.296L146.371 351.398C146.407 351.407 146.444 351.407 146.48 351.399C146.516 351.391 146.549 351.374 146.578 351.35C146.606 351.326 146.628 351.296 146.642 351.261C146.656 351.227 146.661 351.19 146.658 351.154L145.888 343.302C145.886 343.248 145.903 343.196 145.935 343.154C145.967 343.111 146.013 343.081 146.065 343.068C146.116 343.056 146.171 343.062 146.219 343.085C146.266 343.108 146.305 343.147 146.327 343.195L149.227 350.515C149.24 350.55 149.262 350.581 149.29 350.605C149.319 350.63 149.353 350.647 149.39 350.654C149.426 350.662 149.464 350.66 149.5 350.65C149.537 350.639 149.569 350.619 149.596 350.592L152.537 347.791C152.574 347.757 152.621 347.736 152.67 347.731C152.72 347.726 152.77 347.738 152.813 347.764C152.855 347.79 152.888 347.829 152.906 347.876C152.924 347.922 152.926 347.974 152.912 348.022L151.796 351.944C151.786 351.979 151.786 352.016 151.793 352.052C151.801 352.088 151.817 352.121 151.841 352.149C151.864 352.177 151.894 352.199 151.927 352.213C151.961 352.228 151.997 352.234 152.034 352.231L158.71 351.705C158.762 351.701 158.815 351.716 158.858 351.746C158.901 351.776 158.932 351.82 158.947 351.87C158.961 351.921 158.958 351.975 158.937 352.024C158.916 352.073 158.88 352.113 158.833 352.138Z" fill="#EE9334"/>
<path d="M240.332 375.197C240.146 375.25 239.95 375.264 239.758 375.238C209.054 370.843 177.656 377.427 151.656 393.715C151.364 393.896 151.009 393.96 150.669 393.893C150.329 393.827 150.031 393.635 149.842 393.359C149.653 393.084 149.587 392.747 149.659 392.425C149.732 392.102 149.936 391.818 150.228 391.637C176.77 375.006 208.826 368.285 240.172 372.779C240.464 372.823 240.732 372.959 240.931 373.165C241.13 373.372 241.25 373.637 241.269 373.917C241.289 374.197 241.208 374.476 241.04 374.708C240.871 374.94 240.625 375.111 240.342 375.194L240.332 375.197Z" fill="#FFAABE"/>
<path d="M110.567 290.245L110.481 290.273C110.323 290.314 110.158 290.321 109.997 290.293C109.836 290.266 109.682 290.205 109.544 290.114C109.406 290.024 109.286 289.905 109.192 289.765C109.098 289.624 109.031 289.466 108.996 289.297L104.662 269.257C104.626 269.089 104.621 268.915 104.648 268.744C104.675 268.574 104.734 268.41 104.821 268.264C104.907 268.117 105.02 267.989 105.153 267.888C105.286 267.787 105.437 267.715 105.596 267.675C105.755 267.636 105.92 267.63 106.081 267.657C106.241 267.685 106.395 267.746 106.534 267.837C106.672 267.928 106.792 268.046 106.886 268.186C106.981 268.326 107.048 268.485 107.085 268.653L111.406 288.687C111.479 289.009 111.433 289.35 111.277 289.64C111.121 289.929 110.867 290.146 110.567 290.245Z" fill="#FFAABE"/>
<path d="M126.747 370.49L126.662 370.519C126.503 370.559 126.339 370.565 126.178 370.537C126.017 370.51 125.864 370.449 125.726 370.358C125.588 370.267 125.468 370.149 125.374 370.009C125.28 369.869 125.212 369.711 125.176 369.543L120.825 349.508C120.788 349.34 120.784 349.165 120.811 348.995C120.838 348.825 120.897 348.661 120.983 348.515C121.07 348.368 121.183 348.24 121.316 348.139C121.449 348.038 121.6 347.966 121.759 347.926C121.918 347.887 122.083 347.881 122.243 347.908C122.404 347.936 122.558 347.997 122.697 348.088C122.835 348.179 122.955 348.297 123.049 348.437C123.144 348.578 123.211 348.736 123.248 348.904L127.599 368.939C127.667 369.262 127.617 369.602 127.459 369.889C127.301 370.177 127.047 370.392 126.747 370.49Z" fill="#FFAABE"/>
</svg>
